<?xml version="1.0" encoding="UTF-8"?><svg id="pelle" xmlns="http://www.w3.org/2000/svg" width="105.32" height="139.72" viewBox="0 0 105.32 139.72"><defs><style>.cls-1{fill:#009245;}.cls-2{fill:#001300;}.cls-3{fill:#fff;}.cls-4{fill:#ff7bac;}</style></defs><path class="cls-3" d="m43.61,10.09C50.82,1.7,63.68,1.94,67.29,2.01c3.78.07,14.11.42,23.49,8.07,2.72,2.22,11.11,9.07,12.38,20.94,1,9.33-2.97,16.44-4.49,18.89-16.07,35.86-28.32,62.87-33.55,74.08-.31.66-1.11,2.36-2.65,4.24-7.51,9.2-23.17,11.38-34.45,7.95-13.76-4.18-23.97-17.6-25.97-33.92C11.26,80.45,35.17,24.1,41.54,13.04c.32-.56.99-1.68,2.08-2.95Z"/><path d="m38.88,139.72c-4.04,0-7.98-.57-11.44-1.62C12.93,133.69,2.18,119.73.06,102.51l-.06-.53.21-.49C12.43,72.55,33.82,22.44,39.8,12.04c.25-.44,1.02-1.77,2.29-3.25h0C47.29,2.74,55.76-.18,67.33,0c3.61.07,14.61.28,24.72,8.52,2.91,2.37,11.75,9.59,13.11,22.28.98,9.15-2.49,16.44-4.71,20.04-15.18,33.87-28.01,62.21-33.51,73.98-.29.63-1.18,2.54-2.91,4.66-5.85,7.17-15.78,10.22-25.14,10.22ZM4.1,102.55c2.07,15.4,11.65,27.82,24.5,31.72,10.38,3.15,25.31,1.28,32.32-7.3,1.41-1.73,2.15-3.3,2.39-3.82,5.49-11.77,18.34-40.15,33.54-74.05l.13-.24c1.94-3.12,5.07-9.56,4.2-17.62-1.18-11.06-9.07-17.49-11.66-19.61-9.04-7.38-18.99-7.56-22.26-7.62-10.29-.21-17.74,2.29-22.12,7.38h0c-1.03,1.2-1.66,2.29-1.86,2.64-5.84,10.16-26.95,59.59-39.17,88.52Z"/><path class="cls-1" d="m25.74,53.99c.99,0,1.7,2.01,1.86,2.44,2.28,6.14,10.26,11.08,16.25,14.79,4.1,2.54,15.55,9.41,30.56,8.2,4.07-.33,7.41-1.17,9.74-1.9-4.05,9.21-7.41,16.77-9.73,21.99-10.92,24.54-12.75,28.2-17.83,31.55-11.55,7.61-26.11,4.48-29.93,2.99-4.58-1.78-6.83-3.79-6.83-3.79-.62-.55-1.52-1.47-3.31-3.01-.68-.59-1.07-.9-1.65-1.51-.78-.8-1.14-1.33-2.01-2.44-1.09-1.38-1.47-1.76-2.01-2.44-2.67-3.36-3.25-6.57-5.26-10.83-.1-.2-.24-.5-.36-.93-.08-.5-.11-.71-.11-.71,0,0,.14.7.11.71-.06.01-1.37-2.89-1.23-5.96.13-2.91,1.27-5.06,1.93-6.11,2.29-5.17,4.58-10.35,6.87-15.52,2.48-5.6,5.05-11.17,7.44-16.81.37-.87.77-1.72,1.14-2.59,2.81-6.39,3.45-8.13,4.37-8.12Z"/><path d="m70.81,81.77c-9.17,0-20.7-2.04-31.29-9.83-6.97-5.13-12.62-12.21-16.34-20.47l3.65-1.64c3.44,7.63,8.65,14.16,15.07,18.89,17.36,12.77,37.61,8.77,43.4,7.24l1.02,3.87c-2.72.72-8.4,1.94-15.51,1.94Z"/><ellipse class="cls-4" cx="88.3" cy="45.14" rx="4.44" ry="8.62" transform="translate(18.22 115.32) rotate(-72.12)"/><ellipse class="cls-4" cx="46.19" cy="28.33" rx="4.44" ry="8.62" transform="translate(-1.57 53.91) rotate(-59.7)"/><circle class="cls-2" cx="54.25" cy="25.57" r="8.44"/><circle class="cls-2" cx="87" cy="38.33" r="8.44"/><path d="m68.99,48.32c-2.51,0-5-.67-7.18-2.02-6.04-3.72-6.5-10.57-6.54-11.34l4-.17c0,.22.28,5.42,4.64,8.11,3.29,2.03,7.59,1.88,10.93-.39l2.24,3.31c-2.46,1.66-5.29,2.5-8.09,2.5Z"/></svg>