<?xml version="1.0" encoding="UTF-8"?><svg id="pollen" xmlns="http://www.w3.org/2000/svg" width="1920" height="1080" xmlns:xlink="http://www.w3.org/1999/xlink" viewBox="0 0 1920 1080"><defs><style>.cls-1{fill:none;stroke:#b3b3b3;stroke-width:3px;}.cls-1,.cls-2,.cls-3,.cls-4,.cls-5{stroke-miterlimit:10;}.cls-6{fill:url(#linear-gradient);}.cls-7{fill:#72e0b2;}.cls-8{fill:#999;}.cls-9{fill:#666;}.cls-10{fill:#8cc63f;}.cls-11{fill:#42210b;}.cls-12,.cls-5{fill:#39b54a;}.cls-13{fill:#603813;}.cls-14{fill:#4d4d4d;}.cls-2{fill:#fff;stroke-width:2px;}.cls-2,.cls-4,.cls-5{stroke:#000;}.cls-3{fill:#8c6239;stroke:#603813;}.cls-4{fill:#22b573;}</style><linearGradient id="linear-gradient" x1="960" y1="127.18" x2="960" y2="1269.41" gradientUnits="userSpaceOnUse"><stop offset=".08" stop-color="#15ceff"/><stop offset=".24" stop-color="#7fe4ff"/><stop offset=".43" stop-color="#fff"/></linearGradient></defs><rect class="cls-6" x="-2.5" y=".5" width="1925" height="1079"/><path d="m1922,1v1078H-2V1h1924m1-1H-3v1080h1926V0h0Z"/><path class="cls-7" d="m3,591c7.72,2.48,14.5,4.24,20,5.52,7.69,1.78,11.76,2.33,22,4.41,7.87,1.6,14.64,3.14,20,4.41,16.64,1.16,34,2.95,52,5.52,7.13,1.02,14.14,2.13,21,3.31,4.99.24,12.25.61,21,1.1,16.74.95,43.32,2.49,74.58,5.52,36.24,3.5,54.67,5.37,69.42,11.04,16.69,6.41,29.5,14.69,38,20.97,12.34,2.13,22.15,4.65,29,6.62,5.97,1.72,10.03,3.12,19,5.52,8.7,2.33,13.48,3.32,18,4.41,16.11,3.92,27.86,9.01,33,11.03,24.64,9.71,100.76,29.17,128,35.31,82.46,18.59,91.63-.3,230,15.45,51.94,5.91,93.61,10.65,150,24.28,59.05,14.27,59.25,20.16,85,19.86,61.23-.71,92.84-34.41,144.46-23.54,3.67.77,22.65,4.98,47.03,12.6,19.68,6.16,33.88,11.73,38,13.32,22.89,8.82,78.93,27.27,131.5,34.03,28.81,3.71,28.36.28,149.81-2.38,28.03-.61,51.04-.93,66.19-1.11v124.01c-535.67-.37-1071.33-.74-1607-1.11v-340.11Z"/><path class="cls-10" d="m1918.86,688c-53.1,7.69-91.93,11.56-94.38,11.27-2.36-.28-3.85-.49-3.85-.49-1.06-.15-1.75-.26-2.77-.4,0,0-1.25-.17-2.64-.34-3.55-.42-88.71,29.22-123.16,35.41-37.9,6.81-51.94-8.03-88.91,2.6-23.67,6.81-40.81,16.43-40.81,16.43-17.58,9.87-15.99,13-25.94,15.85-17.65,5.05-26.84-3.58-47.52,3.57-6.8,2.35-11.32,5.36-13.19,6.25-61.94,29.68-177.74,39.92-353.42,55.46-83.45,7.38-129.94,9.07-233.04,20.95-47.41,5.47-90.49,11.21-143.53,24.65-68.23,17.29-62.14,24.32-120.38,39.44-92.13,23.93-176.56,24.32-246.93,24.65-28.18.13-51.29-.6-66.36-1.23,0,46.02,0,92.03,0,138.05,537.08-.41,1074.16-.82,1611.25-1.23-1.46-130.3-2.93-260.6-4.39-390.9Z"/><path class="cls-12" d="m3,709c63.45,7.28,109.85,10.94,112.78,10.66,2.82-.26,4.6-.46,4.6-.46,1.27-.14,2.1-.25,3.31-.38,0,0,1.49-.16,3.15-.32,4.24-.4,106,27.65,147.16,33.5,45.29,6.44,62.06-7.6,106.24,2.46,28.29,6.44,48.76,15.54,48.76,15.54,21.01,9.34,19.1,12.3,31,15,21.09,4.78,32.07-3.39,56.79,3.38,8.12,2.22,13.53,5.07,15.76,5.92,74.01,28.08,212.38,37.77,422.3,52.48,99.72,6.98,155.27,8.58,278.46,19.82,56.65,5.17,108.13,10.6,171.5,23.32,81.53,16.36,74.25,23.01,143.84,37.32,110.09,22.64,210.97,23.01,295.06,23.32,33.67.12,61.28-.57,79.3-1.17v130.61c-641.75-.39-1283.5-.78-1925.25-1.17l5.25-369.83Z"/><path class="cls-4" d="m41.5,726.5c-10.59.92-13.99-.95-15-3-1.23-2.48.96-5.43-1-8-1.53-2.01-3.54-1.12-6-3-3.46-2.66-4.99-8.68-3-11,2.65-3.07,10.86,1.15,12-1,.97-1.84-5.07-4.89-5-10,.05-3.37,2.75-7.23,6-8,6.69-1.58,14.36,10.23,16,9,1.32-.99-4.47-8.05-2-12,1.74-2.78,7.06-3.21,11-2,8.51,2.61,12.22,13.4,13,13,.84-.43-6.58-11.14-3-17,2.39-3.91,9.53-5.43,14-3,6.56,3.57,6.5,15.17,8,15,1.4-.16-.56-10.12,4-13,3-1.89,7.97-.19,11,2,6.07,4.39,5.44,11.56,9,12,3.04.38,3.92-4.79,9-6,4.3-1.03,10.01,1.16,12,5,2.94,5.69-3.41,12.91-1,15,2.11,1.84,7-3.7,13-2,3.84,1.09,7.43,4.93,7,8-.76,5.5-14.32,7.65-14,9,.32,1.34,13.47-2.33,16,2,1.27,2.18-.68,5.47-1,6-4.26,7.16-16.04,7.82-23,8-28.58.72-79.23-4.23-87-5Z"/><path class="cls-4" d="m124.83,742.44c-10.59.92-13.99-.95-15-3-1.23-2.48.96-5.43-1-8-1.53-2.01-3.54-1.12-6-3-3.46-2.66-4.99-8.68-3-11,2.65-3.07,10.86,1.15,12-1,.97-1.84-5.07-4.89-5-10,.05-3.37,2.75-7.23,6-8,6.69-1.58,14.36,10.23,16,9,1.32-.99-4.47-8.05-2-12,1.74-2.78,7.06-3.21,11-2,8.51,2.61,12.22,13.4,13,13,.84-.43-6.58-11.14-3-17,2.39-3.91,9.53-5.43,14-3,6.56,3.57,6.5,15.17,8,15,1.4-.16-.56-10.12,4-13,3-1.89,7.97-.19,11,2,6.07,4.39,5.44,11.56,9,12,3.04.38,3.92-4.79,9-6,4.3-1.03,10.01,1.16,12,5,2.94,5.69-3.41,12.91-1,15,2.11,1.84,7-3.7,13-2,3.84,1.09,7.43,4.93,7,8-.76,5.5-14.32,7.65-14,9,.32,1.34,13.47-2.33,16,2,1.27,2.18-.68,5.47-1,6-4.26,7.16-16.04,7.82-23,8-28.58.72-79.23-4.23-87-5Z"/><path class="cls-4" d="m137.46,868.89c-3.87.34-5.11-.35-5.48-1.1-.45-.91.35-1.98-.37-2.92-.56-.74-1.3-.41-2.19-1.1-1.26-.97-1.83-3.17-1.1-4.02.97-1.12,3.97.42,4.38-.37.36-.67-1.85-1.79-1.83-3.65.02-1.23,1.01-2.64,2.19-2.92,2.44-.58,5.25,3.74,5.85,3.29.48-.36-1.63-2.94-.73-4.38.64-1.01,2.58-1.17,4.02-.73,3.11.95,4.46,4.9,4.75,4.75.31-.16-2.4-4.07-1.1-6.21.87-1.43,3.48-1.98,5.12-1.1,2.4,1.3,2.38,5.54,2.92,5.48.51-.06-.21-3.7,1.46-4.75,1.1-.69,2.91-.07,4.02.73,2.22,1.6,1.99,4.22,3.29,4.38,1.11.14,1.43-1.75,3.29-2.19,1.57-.38,3.66.42,4.38,1.83,1.08,2.08-1.25,4.72-.37,5.48.77.67,2.56-1.35,4.75-.73,1.4.4,2.71,1.8,2.56,2.92-.28,2.01-5.23,2.8-5.12,3.29.12.49,4.92-.85,5.85.73.47.8-.25,2-.37,2.19-1.56,2.62-5.86,2.86-8.4,2.92-10.44.26-28.95-1.55-31.79-1.83Z"/><path class="cls-4" d="m184.06,929.6c-6.57.57-8.68-.59-9.3-1.86-.76-1.54.59-3.37-.62-4.96-.95-1.25-2.2-.69-3.72-1.86-2.15-1.65-3.1-5.39-1.86-6.82,1.64-1.91,6.74.72,7.44-.62.6-1.14-3.15-3.03-3.1-6.2.03-2.09,1.71-4.49,3.72-4.96,4.15-.98,8.91,6.34,9.92,5.58.82-.61-2.77-4.99-1.24-7.44,1.08-1.72,4.38-1.99,6.82-1.24,5.28,1.62,7.58,8.31,8.06,8.06.52-.26-4.08-6.91-1.86-10.54,1.48-2.42,5.91-3.37,8.68-1.86,4.07,2.21,4.03,9.41,4.96,9.3.87-.1-.35-6.28,2.48-8.06,1.86-1.17,4.95-.12,6.82,1.24,3.76,2.72,3.38,7.17,5.58,7.44,1.88.24,2.43-2.97,5.58-3.72,2.67-.64,6.21.72,7.44,3.1,1.83,3.53-2.11,8.01-.62,9.3,1.31,1.14,4.34-2.29,8.06-1.24,2.38.67,4.61,3.06,4.34,4.96-.47,3.41-8.88,4.75-8.68,5.58.2.83,8.36-1.44,9.92,1.24.79,1.35-.42,3.39-.62,3.72-2.64,4.44-9.95,4.85-14.27,4.96-17.73.45-49.14-2.62-53.96-3.1Z"/><path class="cls-4" d="m249.27,884.3c-2.56.22-3.39-.23-3.63-.73-.3-.6.23-1.31-.24-1.94-.37-.49-.86-.27-1.45-.73-.84-.64-1.21-2.1-.73-2.66.64-.74,2.63.28,2.9-.24.24-.45-1.23-1.18-1.21-2.42.01-.82.67-1.75,1.45-1.94,1.62-.38,3.48,2.48,3.87,2.18.32-.24-1.08-1.95-.48-2.9.42-.67,1.71-.78,2.66-.48,2.06.63,2.96,3.24,3.15,3.15.2-.1-1.59-2.7-.73-4.11.58-.95,2.31-1.31,3.39-.73,1.59.86,1.57,3.67,1.94,3.63.34-.04-.14-2.45.97-3.15.73-.46,1.93-.05,2.66.48,1.47,1.06,1.32,2.8,2.18,2.9.73.09.95-1.16,2.18-1.45,1.04-.25,2.42.28,2.9,1.21.71,1.38-.82,3.12-.24,3.63.51.44,1.69-.9,3.15-.48.93.26,1.8,1.19,1.69,1.94-.18,1.33-3.47,1.85-3.39,2.18.08.33,3.26-.56,3.87.48.31.53-.17,1.32-.24,1.45-1.03,1.73-3.88,1.89-5.57,1.94-6.92.17-19.18-1.02-21.06-1.21Z"/><path class="cls-5" d="m1136.03,850.37c-10.34,2.45-13.98,1.09-15.28-.8-1.57-2.28.16-5.51-2.15-7.77-1.8-1.77-3.67-.59-6.37-2.1-3.81-2.13-6.2-7.87-4.56-10.45,2.17-3.43,10.92-.43,11.73-2.73.69-1.96-5.73-4.1-6.4-9.17-.44-3.35,1.67-7.55,4.78-8.78,6.39-2.53,15.69,8.04,17.14,6.59,1.17-1.17-5.59-7.32-3.72-11.58,1.32-3,6.52-4.2,10.59-3.57,8.79,1.35,14.03,11.49,14.75,10.98.77-.54-8.12-10.07-5.43-16.39,1.8-4.21,8.64-6.76,13.42-5,7,2.58,8.63,14.07,10.09,13.68,1.36-.36-2.02-9.93,2.07-13.44,2.69-2.31,7.86-1.34,11.17.39,6.64,3.46,7.06,10.64,10.64,10.57,3.06-.06,3.19-5.31,8.04-7.24,4.1-1.64,10.08-.3,12.6,3.21,3.74,5.21-1.5,13.26,1.18,14.99,2.35,1.51,6.39-4.67,12.57-3.86,3.95.52,8.06,3.81,8.09,6.9.04,5.55-13.06,9.65-12.55,10.93.51,1.28,12.99-4.25,16.12-.34,1.58,1.97.12,5.51-.12,6.08-3.18,7.7-14.74,10.07-21.6,11.25-28.17,4.85-79.01,7.29-86.81,7.66Z"/><path class="cls-5" d="m1428.82,807.71c-7.3,2.76-10.08,2.11-11.2.86-1.36-1.51-.4-4.02-2.3-5.46-1.48-1.12-2.73-.08-4.84-.93-2.97-1.19-5.26-5.15-4.31-7.18,1.26-2.7,7.91-1.34,8.28-3.09.32-1.5-4.56-2.45-5.52-6.07-.64-2.39.51-5.66,2.65-6.85,4.41-2.45,12.18,4.37,13.1,3.18.74-.96-4.76-4.8-3.8-8.08.68-2.31,4.35-3.67,7.38-3.6,6.53.16,11.3,7.04,11.77,6.6.51-.47-6.86-6.57-5.5-11.42.91-3.23,5.66-5.73,9.3-4.9,5.34,1.22,7.61,9.43,8.64,9.01.96-.39-2.41-7.04.24-9.98,1.74-1.93,5.6-1.72,8.17-.77,5.16,1.9,6.14,7.09,8.75,6.69,2.22-.34,1.82-4.16,5.17-6.03,2.83-1.58,7.31-1.17,9.48,1.15,3.21,3.44.16,9.8,2.27,10.8,1.86.88,4.21-4.01,8.79-4,2.93,0,6.23,2.01,6.54,4.26.55,4.04-8.6,8.26-8.11,9.14.49.89,9.06-4.32,11.71-1.77,1.33,1.29.6,4,.49,4.44-1.59,5.91-9.78,8.72-14.67,10.23-20.06,6.19-56.84,12.76-62.48,13.76Z"/><path class="cls-2" d="m1768.51,113.89c0,13.11-19.49,23.75-43.52,23.75-8.98,0-17.33-1.48-24.26-4.03-7.59,2.56-16.49,4.03-26.01,4.03-14.79,0-28.1-3.56-37.33-9.22-3.98,1.4-8.35,2.18-12.94,2.18-18.51,0-33.51-12.61-33.51-28.17,0-12.27,9.34-22.71,22.37-26.57-.46-2.17-.7-4.43-.7-6.74,0-18.29,15-33.12,33.51-33.12,8.36,0,16.01,3.03,21.88,8.04,4.58-1.97,9.77-3.09,15.27-3.09,14.56,0,26.96,7.81,31.58,18.72.64-.04,1.28-.06,1.93-.06,14.28,0,25.86,10.4,25.86,23.22,0,3.16-.7,6.17-1.97,8.91,16.29,3.43,27.84,12.06,27.84,22.16Z"/><path class="cls-13" d="m1718.2,707.82c2.79,3.54,5.59,7.08,8.38,10.62,38.48-41.29,76.95-82.58,115.43-123.87-3.41-3.54-6.83-7.08-10.24-10.62-37.85,41.29-75.71,82.58-113.56,123.87Z"/><path class="cls-13" d="m1841.81,707.99c-2.79,3.54-5.59,7.08-8.38,10.62-38.48-41.29-76.95-82.58-115.43-123.87,3.41-3.54,6.83-7.08,10.24-10.62,37.85,41.29,75.71,82.58,113.56,123.87Z"/><path class="cls-3" d="m1719.51,719.11c-4.33-.33-8.67-.67-13-1,0,0,49-354,49-354h-11v-19h68v17h-11c17.33,118.67,34.67,237.33,52,356h-16c-15.33-117.67-30.67-235.33-46-353-8,.33-16,.67-24,1-16,117.67-32,235.33-48,353Z"/><path class="cls-13" d="m1734.16,589.71c2.09,2.92,4.19,5.83,6.28,8.75,28.86-34.04,57.71-68.07,86.57-102.11-2.56-2.92-5.12-5.83-7.68-8.75-28.39,34.04-56.78,68.07-85.17,102.11Z"/><path class="cls-13" d="m1826.86,589.85c-2.09,2.92-4.19,5.83-6.28,8.75-28.86-34.04-57.71-68.07-86.57-102.11,2.56-2.92,5.12-5.83,7.68-8.75,28.39,34.04,56.78,68.07,85.17,102.11Z"/><path class="cls-13" d="m1725.48,478.63c-.07,6.24-.15,12.47-.22,18.71,17.53-.29,35.22-.5,53.06-.62,18.86-.13,37.56-.15,56.08-.08.57-6.27,1.14-12.54,1.71-18.81-18.77-.06-37.72-.01-56.83.13-18.09.14-36.02.36-53.8.67Z"/><path class="cls-11" d="m1838.3,607.74c-.15-6.53-.31-13.05-.46-19.58-18.38.06-36.93.03-55.64-.1-19.78-.13-39.4-.37-58.83-.71-.37,6.55-.73,13.11-1.1,19.66,19.7.32,39.57.55,59.61.67,18.97.11,37.77.13,56.41.06Z"/><path class="cls-13" d="m1730.27,422.77c-3.86,1.23-6.43,4.89-6.26,8.83.16,3.69,2.67,6.93,6.26,8.07,9.85,4.09,26.38,9.49,47.43,9.77,23.18.3,41.15-5.79,51.25-10.09,3.63-1.48,6.02-4.95,6.06-8.75.04-5.29-4.51-8.12-4.72-8.24-8.57-4.48-27.04-12.63-51.69-12.2-22.94.4-39.96,8.1-48.34,12.61Z"/><polygon class="cls-8" points="1780.85 253.3 1761.29 345.08 1755.87 344.38 1775.43 252.61 1780.85 253.3"/><polygon class="cls-8" points="1775.63 253.38 1793.5 345.36 1798.93 344.73 1781.06 252.74 1775.63 253.38"/><rect class="cls-8" x="1773.01" y="264.61" width="11" height="64" rx="5.5" ry="5.5" transform="translate(3557.02 593.21) rotate(180)"/><circle class="cls-1" cx="1778.73" cy="251.36" r="77.75"/><circle class="cls-1" cx="1778.59" cy="251.68" r="53.92"/><polygon class="cls-9" points="1820.52 105.57 1834.84 111.14 1849.16 116.71 1812.59 189.53 1776.02 262.35 1798.27 183.96 1820.52 105.57"/><polygon class="cls-9" points="1632.23 298.03 1629 283.01 1625.77 267.99 1706.69 258.43 1787.62 248.87 1709.93 273.45 1632.23 298.03"/><polygon class="cls-9" points="1883.66 359.54 1871.61 369.07 1859.56 378.61 1815.25 310.22 1770.94 241.83 1827.3 300.68 1883.66 359.54"/><polygon class="cls-9" points="1937.19 277.14 1933.15 291.97 1929.12 306.8 1852.86 278.08 1776.6 249.36 1856.89 263.25 1937.19 277.14"/><polygon class="cls-9" points="1922.89 173.15 1928.88 187.3 1934.87 201.45 1857.17 226 1779.47 250.55 1851.18 211.85 1922.89 173.15"/><polygon class="cls-9" points="1682.24 372.07 1671.51 361.07 1660.78 350.07 1724.2 298.91 1787.62 247.75 1734.93 309.91 1682.24 372.07"/><polygon class="cls-9" points="1638.39 194.92 1645.48 181.29 1652.57 167.65 1721 211.9 1789.43 256.15 1713.91 225.53 1638.39 194.92"/><polygon class="cls-9" points="1705.75 117.57 1719.97 111.76 1734.2 105.96 1757.75 183.97 1781.31 261.98 1743.53 189.77 1705.75 117.57"/><circle class="cls-14" cx="1778.61" cy="251.12" r="21.9"/><path class="cls-5" d="m1699.25,746.32c-20.81,3.26-27.79.02-30.06-3.91-2.76-4.75,1.16-10.86-3.06-15.68-3.29-3.77-7.16-1.73-12.27-5.12-7.2-4.78-11.05-16.5-7.42-21.35,4.82-6.44,21.64.81,23.59-3.6,1.67-3.77-10.69-8.98-11.24-19.1-.36-6.68,4.46-14.67,10.78-16.63,13.01-4.03,29.77,18.28,32.85,15.63,2.48-2.13-9.93-15.31-5.58-23.46,3.06-5.73,13.53-7.3,21.48-5.44,17.17,4.02,25.97,24.84,27.46,23.95,1.6-.96-14.51-21.14-8.23-33.21,4.19-8.05,18.11-12.03,27.28-7.82,13.45,6.17,14.91,29.12,17.85,28.58,2.75-.51-2.48-19.94,6.15-26.25,5.67-4.15,15.74-1.45,22.02,2.47,12.59,7.86,12.32,22.11,19.42,22.51,6.06.34,7.11-10,16.99-13.08,8.36-2.61,19.96.94,24.4,8.27,6.59,10.86-5,25.98.05,29.79,4.42,3.34,13.35-8.26,25.43-5.71,7.73,1.63,15.35,8.75,14.92,14.87-.77,10.97-27.27,17.07-26.47,19.69.81,2.61,26.32-6.42,31.91,1.79,2.81,4.14-.61,10.91-1.17,12-7.46,14.73-30.66,17.64-44.4,18.93-56.41,5.28-157.23,2.34-172.7,1.87Z"/><path class="cls-2" d="m490,155.18c0,21.41-31.82,38.77-71.07,38.77-14.67,0-28.3-2.42-39.62-6.58-12.4,4.18-26.93,6.58-42.47,6.58-24.15,0-45.89-5.81-60.95-15.05-6.5,2.29-13.64,3.56-21.13,3.56-30.22,0-54.72-20.59-54.72-46,0-20.04,15.24-37.09,36.52-43.38-.74-3.55-1.14-7.23-1.14-11,0-29.87,24.5-54.08,54.72-54.08,13.66,0,26.14,4.95,35.73,13.12,7.48-3.22,15.96-5.04,24.94-5.04,23.78,0,44.02,12.75,51.56,30.56,1.04-.07,2.09-.11,3.16-.11,23.32,0,42.23,16.97,42.23,37.91,0,5.15-1.15,10.07-3.22,14.55,26.59,5.61,45.45,19.69,45.45,36.18Z"/><path class="cls-2" d="m332.75,122.31c0,17.23-26.75,31.19-59.75,31.19-12.33,0-23.79-1.95-33.3-5.29-10.43,3.36-22.64,5.29-35.7,5.29-20.3,0-38.57-4.67-51.24-12.11-5.47,1.84-11.47,2.86-17.76,2.86-25.41,0-46-16.57-46-37,0-16.12,12.81-29.84,30.71-34.9-.62-2.85-.96-5.81-.96-8.85,0-24.03,20.59-43.5,46-43.5,11.48,0,21.98,3.98,30.03,10.55,6.29-2.59,13.42-4.05,20.97-4.05,19.99,0,37,10.26,43.34,24.58.88-.05,1.76-.08,2.66-.08,19.6,0,35.5,13.66,35.5,30.5,0,4.15-.97,8.1-2.71,11.7,22.35,4.51,38.21,15.84,38.21,29.11Z"/><path class="cls-4" d="m713.77,839.58c-7.93.29-10.4-1.23-11.08-2.8-.82-1.9.92-4.01-.45-6.01-1.06-1.56-2.6-.97-4.36-2.46-2.48-2.11-3.4-6.67-1.83-8.32,2.09-2.19,8.06,1.27,8.99-.3.79-1.34-3.6-3.83-3.35-7.65.16-2.52,2.32-5.29,4.78-5.74,5.05-.93,10.33,8.17,11.6,7.31,1.02-.69-3.03-6.17-1.04-9.03,1.4-2.01,5.39-2.13,8.28-1.08,6.25,2.27,8.61,10.45,9.21,10.19.64-.29-4.49-8.56-1.6-12.79,1.93-2.82,7.31-3.69,10.56-1.71,4.76,2.91,4.28,11.56,5.4,11.49,1.05-.07-.04-7.57,3.47-9.55,2.31-1.3,5.95.16,8.13,1.9,4.36,3.5,3.63,8.82,6.26,9.29,2.25.4,3.11-3.42,6.94-4.14,3.24-.6,7.43,1.24,8.76,4.18,1.98,4.36-3.03,9.5-1.31,11.15,1.51,1.45,5.36-2.5,9.77-1,2.82.95,5.35,3.96,4.92,6.23-.78,4.07-10.97,5.17-10.78,6.19.19,1.01,10.14-1.23,11.86,2.09.87,1.67-.72,4.05-.97,4.44-3.45,5.18-12.26,5.24-17.46,5.1-21.34-.54-58.94-6.13-64.71-6.99Z"/><path class="cls-4" d="m1529.58,965.13c-15.09.55-19.78-2.34-21.07-5.33-1.56-3.61,1.74-7.63-.85-11.42-2.03-2.96-4.95-1.84-8.3-4.69-4.72-4.02-6.47-12.68-3.47-15.83,3.98-4.17,15.34,2.41,17.1-.56,1.51-2.55-6.85-7.3-6.38-14.55.31-4.79,4.42-10.07,9.09-10.93,9.6-1.77,19.65,15.54,22.06,13.92,1.95-1.31-5.77-11.74-1.98-17.17,2.67-3.82,10.25-4.05,15.75-2.05,11.88,4.32,16.38,19.89,17.52,19.38,1.22-.55-8.54-16.28-3.04-24.34,3.67-5.37,13.91-7.03,20.08-3.26,9.05,5.53,8.15,22,10.28,21.86,2-.13-.08-14.41,6.6-18.16,4.39-2.47,11.33.3,15.47,3.62,8.3,6.66,6.9,16.79,11.92,17.67,4.28.76,5.91-6.51,13.2-7.87,6.17-1.15,14.13,2.36,16.67,7.95,3.77,8.29-5.76,18.07-2.49,21.22,2.86,2.76,10.2-4.75,18.59-1.91,5.37,1.82,10.19,7.53,9.36,11.85-1.47,7.75-20.87,9.84-20.51,11.77.35,1.93,19.28-2.34,22.56,3.98,1.65,3.18-1.36,7.71-1.85,8.44-6.56,9.86-23.32,9.96-33.21,9.71-40.61-1.02-112.14-11.66-123.11-13.31Z"/></svg>