<?xml version="1.0" encoding="UTF-8"?><svg id="svg2" xmlns="http://www.w3.org/2000/svg" width="640" height="575.43" viewBox="0 0 640 575.43"><defs><style>.cls-1{fill:red;}</style></defs><g id="layer1"><path id="path2417" class="cls-1" d="m294.79,543.21c-13.78-15.44-48.17-45.53-76.43-66.87-83.74-63.24-95.14-72.39-129.14-103.7C26.53,314.92-.09,256.93,0,178.3c.04-38.38,2.66-53.17,13.41-75.8C31.65,64.11,58.51,35.59,92.86,18.14,117.18,5.79,129.18.3,169.8.08c42.49-.23,51.44,4.72,76.43,18.45,30.42,16.71,61.74,52.44,68.21,77.81l4,15.67,9.86-21.58c55.72-121.97,233.6-120.15,295.5,3.03,19.64,39.08,21.79,122.51,4.38,169.51-22.72,61.31-65.38,108.05-164.01,179.68-64.68,46.97-137.88,118.05-142.98,128.03-5.92,11.59-.28,1.82-26.41-27.46Z"/></g></svg>