<?xml version="1.0" encoding="UTF-8"?><svg id="pelle" xmlns="http://www.w3.org/2000/svg" width="470.16" height="219.84" viewBox="0 0 470.16 219.84"><defs><style>.cls-1{fill:#001300;}.cls-2{fill:#e6e6e6;}.cls-3{fill:#fff;}.cls-4{fill:#ed1c24;}.cls-5{fill:#754c24;}</style></defs><rect class="cls-2" x="2" y="2" width="466.16" height="215.84" rx="14" ry="14"/><path d="m454.16,219.84H16c-8.82,0-16-7.18-16-16V16C0,7.18,7.18,0,16,0h438.16c8.82,0,16,7.18,16,16v187.84c0,8.82-7.18,16-16,16ZM16,4c-6.62,0-12,5.38-12,12v187.84c0,6.62,5.38,12,12,12h438.16c6.62,0,12-5.38,12-12V16c0-6.62-5.38-12-12-12H16Z"/><path class="cls-3" d="m119,82.78c5.27,7.07,4.88,19.58,4.73,24.43-.17,5.55-1.09,7.7-1.58,16.8-.47,8.87.08,12.73,0,16.8-.09,4.39-1.16,25.2-17.33,36.65-1.8,1.27-14.66,10.07-30.89,6.09-2.27-.56-14.16-3.46-21-14-10.06-15.49-2.81-37.61-7-38.49-.9-.19-1.12.83-3.5,1.75-3.46,1.34-8.87,1.37-12.25-1.75-4.16-3.84-3.3-10.34-1.75-14,2.74-6.47,10.46-10.66,14-8.75,2.91,1.57,2.66,7.09,3.5,7,.66-.07.23-3.53,1.75-8.75.73-2.52,1.07-3,1.75-5.25,1.47-4.88,1.69-8.51,1.82-9.37,1.59-10.02,53.96-27.65,67.74-9.16Z"/><path d="m82.36,185.06c-2.71,0-5.57-.3-8.54-1.03-5.36-1.31-15.25-4.9-21.3-14.21-6.24-9.61-5.91-21.75-5.69-29.79.12-4.42.23-8.23-.99-8.49-.21-.05-.33.03-.79.37-.47.35-1.17.87-2.42,1.35-3.66,1.41-9.21,1.44-12.77-1.85-4.56-4.22-3.32-11.14-1.87-14.56,1.94-4.58,6.16-7.8,9.47-8.96,2.06-.72,3.92-.73,5.22-.03,2.04,1.1,2.65,3.83,3.06,5.64.04.17.08.36.12.54.03-.25.06-.53.09-.8.16-1.56.41-3.92,1.26-6.83.4-1.36.68-2.14.96-2.9.25-.68.48-1.32.79-2.35,1.21-3.99,1.55-7.1,1.72-8.6.04-.32.06-.55.09-.71.87-5.47,14.75-12.03,27.67-15.21,7.26-1.79,31.67-6.65,40.97,5.83h0c5.38,7.22,4.98,19.95,4.82,24.75-.08,2.63-.33,4.51-.62,6.69-.33,2.49-.7,5.31-.96,10.12-.31,5.77-.18,9.43-.08,12.37.06,1.6.1,2.98.08,4.41-.11,5.86-1.72,25.84-17.54,37.04-1.97,1.4-10.89,7.2-22.76,7.2Zm-36.62-54.53c.1,0,.2.01.31.03,2.03.43,1.94,3.84,1.79,9.49-.22,7.91-.54,19.87,5.53,29.22,5.86,9.02,15.48,12.51,20.7,13.78,15.55,3.8,28.12-4.34,30.48-6.02,15.44-10.93,17.01-30.51,17.12-36.25.03-1.4-.02-2.77-.08-4.35-.1-2.96-.23-6.65.08-12.46.26-4.85.63-7.69.96-10.2.28-2.15.53-4.01.61-6.59.15-4.7.54-17.18-4.63-24.12-8.93-11.98-32.82-7.2-39.93-5.45-14.13,3.48-26.21,9.94-26.92,14.39-.02.14-.05.37-.08.66-.17,1.52-.52,4.7-1.76,8.78-.32,1.06-.57,1.74-.81,2.41-.27.74-.55,1.51-.94,2.84-.83,2.82-1.07,5.13-1.23,6.65-.17,1.63-.25,2.38-.95,2.45-.75.11-.94-.78-1.23-2.08-.37-1.63-.92-4.09-2.56-4.98-1.05-.57-2.62-.54-4.42.09-3.11,1.09-7.06,4.11-8.88,8.41-1.26,2.96-2.54,9.59,1.63,13.43,3.1,2.86,8.24,3,11.73,1.65,1.13-.43,1.74-.89,2.19-1.22.42-.31.78-.58,1.28-.58Z"/><path class="cls-4" d="m80.94,124.06c-5.83-.58-11.66-1.17-17.5-1.75-.18-1.69-.31-4.11,0-7,.41-3.85,1.25-11.74,7-15.75.92-.64,5.16-3.6,8.75-1.75,2.61,1.35,3.34,4.46,3.5,5.25"/><path d="m80.89,124.55l-17.9-1.79-.04-.4c-.25-2.37-.25-4.75,0-7.1.41-3.88,1.28-11.97,7.21-16.1,3.49-2.43,6.78-3.07,9.26-1.78,2.64,1.36,3.51,4.37,3.76,5.59l-.98.2c-.22-1.09-.98-3.74-3.24-4.9-2.14-1.1-5.06-.5-8.23,1.72-5.56,3.88-6.39,11.65-6.79,15.39-.23,2.15-.24,4.33-.04,6.49l17.09,1.71-.1.99Z"/><path class="cls-4" d="m95.19,123.33c5.86-.06,11.72-.13,17.58-.19.33-1.66.67-4.07.62-6.97-.07-3.87-.2-11.8-5.57-16.31-.86-.72-4.82-4.05-8.56-2.52-2.72,1.11-3.72,4.14-3.95,4.92"/><path d="m95.19,123.83v-1s17.16-.18,17.16-.18c.39-2.14.57-4.31.54-6.47-.07-3.76-.2-11.58-5.39-15.93-2.96-2.48-5.82-3.35-8.05-2.44-2.35.96-3.34,3.54-3.66,4.6l-.96-.29c.36-1.2,1.49-4.11,4.24-5.24,2.59-1.06,5.81-.13,9.07,2.6,5.54,4.65,5.68,12.78,5.75,16.68.04,2.36-.17,4.74-.63,7.08l-.08.4-17.99.19Z"/><path class="cls-4" d="m88.92,129.16c7.59,4.76,10.41,11.34,8.75,14-1.52,2.44-7.53,2.76-14,0"/><path d="m92.33,145.62c-2.59,0-5.72-.66-8.85-2l.39-.92c6.38,2.72,12.07,2.3,13.38.2,1.45-2.33-1.18-8.67-8.59-13.31l.53-.85c7.65,4.79,10.84,11.59,8.91,14.69-.91,1.46-3.04,2.2-5.77,2.2Z"/><circle class="cls-1" cx="76.73" cy="115.15" r="4.53"/><circle class="cls-1" cx="103.15" cy="115.32" r="4.53"/><path class="cls-5" d="m123.8,88.19c2.62-.45,4.05-4.56,4.35-5.38.69-1.91.7-3.62.62-4.66.56.66,2.99,3.37,6.77,3.54,3.95.17,8.22-2.49,8.46-5.31.24-2.82-3.7-3.98-3.39-7.08.22-2.15,2.18-2.24,3.39-5.31.12-.31,1.73-4.54,0-7.08-2.35-3.44-8.85-.77-10.16-3.54-.98-2.06,2.36-4.11,1.69-7.08-.79-3.55-6.88-6.48-11.85-5.31-5.81,1.38-8.26,7.96-10.16,7.08-1.63-.76.56-5.38-1.69-8.84-2.81-4.31-11.63-5.49-16.93-1.77-5.69,4-5.49,12.39-8.46,12.38-2.35,0-2.51-5.24-6.77-7.08-4.24-1.83-9.19,1.18-10.16,1.77-6.49,3.95-7.05,10.83-10.16,10.61-2.93-.21-3.39-6.42-6.77-7.08-2.94-.57-3.47,5.37-8.46,7.08-4.09,1.4-6.81-1.29-9.31.88-1.4,1.22-2.21,3.5-1.69,5.31,1.14,3.98,8.55,4.94,8.46,5.31-.1.41-8.72-3.54-15.24,0-2.83,1.54-5.63,4.69-5.08,7.08.82,3.51,8.6,3.99,8.46,5.31-.12,1.15-5.97-.06-10.16,3.54-2.85,2.45-4.69,6.93-3.39,8.84,2.21,3.25,13.01-1.45,13.54,0,.47,1.3-8.49,4.29-8.46,8.84.01,2.42,2.55,5.03,5.08,5.31,4.9.53,8.88-7.84,10.16-7.08,1.33.79-2.94,9.78-1.69,10.61.75.5,3.47-1.94,10.16-10.61-.55,2.98-1.1,5.96-1.65,8.94l5.25,5.25c.36-8.52,3.06-14.14,5.25-17.5,10.34-15.86,35.64-21.74,62.99-14,1.29,4.7,4.58,7.42,7,7Z"/><path d="m48.91,113.55l-5.99-5.99,1.4-7.62c-8.19,10.49-9.18,9.83-9.72,9.48-.81-.54-.29-2.41.7-5.66.49-1.61,1.4-4.61,1.01-4.94-.29,0-1.29,1.13-2.02,1.97-2,2.32-4.73,5.49-7.99,5.15-2.72-.29-5.4-3.11-5.41-5.68-.01-3.07,3.58-5.35,6.2-7.02.94-.6,2.24-1.42,2.28-1.73-.29-.2-2.33.23-3.82.55-3.65.77-8.2,1.74-9.68-.44-1.51-2.23.65-6.93,3.45-9.34,2.7-2.32,6-2.7,8.18-2.95.77-.09,1.72-.2,1.86-.37-.11-.23-1.41-.67-2.37-.98-2.35-.78-5.56-1.84-6.1-4.17-.6-2.57,2.21-5.83,5.27-7.49,3.31-1.8,7.09-1.73,10.11-1.25-1.59-.81-3.04-1.97-3.52-3.63-.54-1.88.24-4.33,1.81-5.69,1.46-1.26,3-1.03,4.63-.78,1.39.21,2.97.45,4.81-.18,2.46-.84,3.77-2.74,4.93-4.41,1.11-1.61,2.07-3,3.73-2.68,1.89.37,2.94,2.29,3.86,3.98.84,1.54,1.63,3,2.87,3.09,1.24.11,2.07-1.29,3.23-3.19,1.35-2.21,3.19-5.24,6.71-7.37,3.93-2.38,7.65-3.02,10.5-1.79,2.42,1.04,3.56,3.1,4.48,4.75.71,1.28,1.28,2.29,2.14,2.3h0c1.11,0,1.77-1.69,2.62-3.83,1.1-2.79,2.46-6.26,5.63-8.48,2.87-2.02,6.91-2.77,10.82-2.02,2.99.58,5.41,1.99,6.64,3.89,1.3,1.99,1.2,4.28,1.12,6.11-.05,1.27-.1,2.36.41,2.6.58.26,1.51-.76,2.59-1.95,1.66-1.83,3.93-4.34,7.33-5.15,2.89-.68,6.36-.07,9.06,1.62,1.77,1.1,2.92,2.51,3.24,3.97.37,1.65-.38,3.01-1.04,4.21-.58,1.05-1.08,1.95-.68,2.79.53,1.11,2.16,1.19,4.04,1.28,2.22.11,4.74.24,6.08,2.2,1.82,2.67.23,6.95.04,7.42-.62,1.59-1.46,2.43-2.13,3.11-.66.67-1.14,1.15-1.24,2.1-.15,1.43.73,2.41,1.65,3.44.92,1.03,1.87,2.1,1.74,3.63-.26,3.03-4.65,5.83-8.85,5.65-2.96-.13-5.14-1.75-6.35-2.93,0,1.31-.23,2.58-.67,3.8-1.53,4.25-3.36,5.4-4.64,5.62h0c-2.46.44-5.94-2.15-7.37-7.06-26.96-7.57-52.01-1.99-62.37,13.9-3.16,4.85-4.91,10.67-5.19,17.31l-.04.85Zm-5.18-6.24l4.51,4.51c.4-6.42,2.17-12.09,5.27-16.84,10.57-16.21,36.05-21.89,63.4-14.15l.2.06.06.2c1.23,4.49,4.4,7.1,6.57,6.73h0c1.52-.26,2.96-2.07,4.04-5.09.53-1.47.73-2.99.61-4.55l-.09-1.15.75.88c.83.98,3.12,3.26,6.5,3.41,3.78.17,7.85-2.34,8.08-4.96.1-1.21-.7-2.11-1.55-3.07-.94-1.06-2.01-2.26-1.84-4.02.12-1.22.77-1.87,1.45-2.55.65-.66,1.39-1.41,1.96-2.85.07-.18,1.67-4.33.04-6.73-1.13-1.66-3.35-1.77-5.5-1.88-2.04-.1-3.97-.2-4.68-1.71-.56-1.18.05-2.29.7-3.47.63-1.14,1.27-2.31.97-3.68-.28-1.26-1.32-2.5-2.91-3.5-2.49-1.56-5.83-2.16-8.49-1.52-3.17.75-5.35,3.16-6.94,4.92-1.38,1.53-2.38,2.63-3.46,2.13-.96-.45-.91-1.71-.85-3.31.07-1.73.16-3.88-1-5.67-1.12-1.72-3.37-3.02-6.16-3.56-3.65-.71-7.58.02-10.24,1.89-2.99,2.1-4.3,5.45-5.36,8.14-.95,2.41-1.69,4.31-3.31,4.31h0c-1.3,0-1.99-1.24-2.79-2.68-.87-1.55-1.94-3.49-4.12-4.42-2.62-1.12-6.1-.51-9.81,1.74-3.36,2.04-5.08,4.86-6.46,7.12-1.25,2.05-2.24,3.65-3.92,3.55-1.65-.12-2.57-1.82-3.47-3.48-.88-1.62-1.8-3.3-3.34-3.6-1.13-.22-1.83.71-2.97,2.37-1.16,1.68-2.61,3.77-5.3,4.7-2.01.69-3.68.43-5.16.21-1.58-.24-2.83-.43-4.03.61-1.34,1.17-2.04,3.33-1.58,4.92.8,2.8,5.07,4.04,7.11,4.64,1.09.32,1.46.42,1.35.86l-.04.15-.15.1c-.22.13-.46.06-1.48-.22-2.64-.74-8.81-2.47-13.75.21-2.76,1.5-5.39,4.54-4.89,6.66.45,1.92,3.43,2.91,5.6,3.63,1.78.59,2.95.98,2.87,1.8-.07.74-.99.84-2.51,1.01-2.09.24-5.26.6-7.78,2.77-2.76,2.37-4.47,6.66-3.32,8.35,1.2,1.76,5.65.82,8.9.13,2.72-.58,4.36-.92,4.68-.04.28.77-.8,1.45-2.59,2.59-2.48,1.57-5.86,3.72-5.85,6.38.01,2.19,2.4,4.68,4.74,4.93,2.86.31,5.45-2.7,7.34-4.9,1.38-1.61,2.22-2.57,2.97-2.13.88.53.35,2.45-.68,5.8-.51,1.67-1.36,4.46-1,4.82.28.08,1.85-.4,9.65-10.53l.95-1.23-1.89,10.27Z"/><path d="m104.48,169.49c-.18-.58-4.5-14.25-18.71-17.69-9.06-2.19-18.65.68-25.05,7.5l-.73-.68c6.64-7.08,16.61-10.07,26.01-7.79,14.76,3.58,19.25,17.77,19.43,18.37l-.96.29Z"/><path class="cls-4" d="m226.04,38.79c-3.23-7.62-3-16.15,0-16.71,5.01-.92,12.89,21.36,25.42,21.35,13-.01,21.1-24.01,25.42-23.2,2.75.51,2.67,10.78-2.82,20.42-4.28,7.5-7.87,7.65-14.12,17.63-4.69,7.48-5.56,12.01-8.47,12.06-2.66.05-4.01-3.68-8.47-10.21-8.63-12.61-13.41-13.01-16.95-21.35Z"/><path d="m251.4,71.84c-2.73,0-4.22-2.37-6.66-6.26-.84-1.34-1.8-2.87-2.99-4.6-4.04-5.9-7.25-9.11-9.82-11.68-2.96-2.96-5.3-5.29-7.26-9.93-2.62-6.18-3.23-13.39-1.42-16.75.76-1.42,1.8-1.88,2.53-2.01,2.94-.54,5.5,2.95,9.04,7.78,4.42,6.03,9.92,13.54,16.64,13.54h0c7.26,0,13.21-8.9,17.56-15.4,3.33-4.98,5.53-8.26,8.14-7.78.67.13,1.61.57,2.26,1.96,1.67,3.6.59,12.53-4.05,20.68-2.16,3.79-4.18,5.82-6.32,7.97-2.3,2.31-4.68,4.69-7.83,9.72-1.57,2.5-2.72,4.7-3.64,6.47-1.97,3.76-3.27,6.24-6.07,6.3-.03,0-.06,0-.1,0Zm-25-48.29s-.05,0-.08,0c-.09.02-.25.15-.43.48-1.21,2.24-.88,8.47,1.54,14.16h0c1.73,4.09,3.78,6.14,6.62,8.97,2.67,2.66,5.99,5.98,10.18,12.11,1.22,1.79,2.19,3.33,3.05,4.7,2,3.18,3.09,4.85,4.13,4.85,0,0,.01,0,.02,0,.98-.02,1.87-1.62,3.47-4.69.95-1.81,2.13-4.07,3.76-6.67,3.33-5.31,5.94-7.93,8.25-10.24,2.08-2.09,3.88-3.89,5.84-7.34,4.95-8.68,4.91-16.99,3.8-18.19-.92.31-3.3,3.87-5.04,6.48-4.72,7.06-11.18,16.72-20.05,16.73h-.01c-8.24,0-14.24-8.19-19.06-14.77-1.94-2.64-4.84-6.61-5.99-6.61Z"/><path class="cls-4" d="m309.25,112.83c-1.27-17.35-12.44-35.95-28.28-36-15.47-.05-26.87,17.65-28.28,34.2-1.96,23.11,15.33,46.94,32.63,44.1,14.47-2.38,25.35-22.83,23.93-42.3Zm-26.1,9c-3.63.28-6.58-3.42-7.25-7.2-.99-5.59,2.91-11.97,7.25-11.7,3.6.22,6.7,4.99,6.53,9.9-.15,4.23-2.73,8.71-6.53,9Z"/><path d="m282.51,156.86c-5.72,0-11.59-2.56-16.82-7.39-9.85-9.11-15.67-24.61-14.49-38.56,1.46-17.12,13.23-35.57,29.71-35.57h.06c16.7.05,28.46,19.44,29.77,37.39h0c1.53,20.92-10.24,41.42-25.18,43.89-1.01.17-2.03.25-3.06.25Zm-1.59-78.52c-14.32,0-25.38,16.96-26.73,32.83-1.11,13.08,4.33,27.59,13.54,36.1,5.47,5.06,11.63,7.33,17.35,6.39,13.26-2.19,24.07-21.59,22.67-40.71-1.21-16.61-11.8-34.56-26.79-34.61h-.05Zm1.84,45.01c-4.29,0-7.58-4.2-8.33-8.45-.66-3.72.54-7.94,3.05-10.75,1.68-1.88,3.73-2.83,5.77-2.71,4.43.28,8.14,5.63,7.93,11.45-.17,4.85-3.18,10.08-7.91,10.44h0c-.17.01-.34.02-.51.02Zm.13-18.92c-1.06,0-2.18.6-3.17,1.72-1.89,2.12-2.83,5.42-2.34,8.23.54,3.04,2.85,6.19,5.66,5.96h0c2.92-.22,5.02-4.09,5.14-7.56.14-4.04-2.39-8.18-5.12-8.35-.06,0-.11,0-.17,0Z"/><path class="cls-4" d="m327.66,21.54c-3.44-.07-16.41,35.59,1.4,48.49,1.23.89,7.78,5.42,15.41,3.93,21.98-4.29,25.6-53.27,23.81-53.74-1.29-.34-5.55,24.2-19.89,27.04-.94.19-4.77.84-8.71-.9-11.68-5.17-9.48-24.77-12.02-24.83Z"/><path d="m341.36,75.76c-6.39,0-11.57-3.34-13.18-4.52-5.81-4.21-9.17-11.24-9.72-20.32-.57-9.45,1.97-18.22,3.09-21.55,2.09-6.2,4.14-9.35,6.1-9.35h.04c2.08.05,2.45,2.42,3.06,6.36.95,6.15,2.4,15.44,9.53,18.59,3.31,1.46,6.57,1.05,7.81.8,9.99-1.98,14.85-15.86,17.19-22.53,1.26-3.59,1.72-4.93,3.38-4.5,1.29.34,1.62,1.58,1.5,5.56-.17,5.28-1.51,17.21-5.5,28.42-4.69,13.2-11.58,21.04-19.91,22.67-1.16.23-2.29.33-3.39.33Zm-14.09-51.94c-1.96,2.95-5.56,12.42-5.87,22.97-.21,7.07,1.11,16.63,8.55,22.02,1.65,1.19,7.54,4.99,14.24,3.67,5.03-.98,9.48-4.68,13.2-10.98,6.21-10.5,8.92-25.61,9.63-34.18-2.85,7.72-8.14,19.4-18.34,21.42-1.52.3-5.51.81-9.61-1-8.63-3.82-10.29-14.5-11.28-20.88-.16-1.02-.34-2.19-.52-3.04Z"/><path class="cls-4" d="m175.09,76.91c3.79-.88,12.38,6.49,17.58,14.03,16.3,23.6-4.38,43.25,8.79,50.38,13.71,7.42,46.03-8.49,51.5-3.33,3.4,3.21-5.71,12.56-17.58,17.33-19.4,7.79-48.83,4.42-59.04-5.78-6.82-6.81,0-11.62,1.26-31.37,1.56-24.73-7.69-40.07-2.51-41.27Z"/><path d="m210.59,161.15c-14.41,0-28.51-3.75-35.3-10.54-4.71-4.71-3.66-8.91-2.06-15.27,1.07-4.25,2.39-9.55,2.88-17.26.81-12.83-1.37-23.27-2.82-30.17-1.46-6.97-2.42-11.57,1.46-12.47h0c5.09-1.18,14.4,7.75,19.16,14.64,9.21,13.33,7.02,25.7,5.42,34.72-1.45,8.18-1.98,12.58,2.85,15.19,7.21,3.9,20.76.71,31.64-1.86,9.98-2.35,17.19-4.05,20.17-1.24.99.94,1.38,2.28,1.1,3.77-.94,4.98-9.54,12.18-19.15,16.05-7.48,3.01-16.48,4.43-25.35,4.43Zm-35.16-82.78c-1.02.24-.05,4.86.8,8.93,1.48,7.07,3.71,17.75,2.87,30.98-.5,7.99-1.93,13.66-2.97,17.8-1.58,6.3-2.23,8.91,1.27,12.41,9.16,9.15,37.45,13.46,57.42,5.45,9.38-3.77,16.66-10.31,17.32-13.82.13-.71-.11-.93-.21-1.03-1.8-1.7-10.1.25-17.42,1.98-11.98,2.82-25.55,6.02-33.76,1.58-6.96-3.77-5.77-10.53-4.38-18.35,1.59-8.99,3.58-20.17-4.93-32.49-5.49-7.95-13.4-14.01-16.01-13.42h0Z"/><path class="cls-4" d="m340.93,103.8c11.87-4.32,12.89-8.58,13.02-9.94.9-9.32-26.36-20.86-36.59-15.77-10.34,5.15-3.72,29.65,7.86,46.28,8.84,12.69,20.2,20.24,17.96,22.28-3.29,3.02-28.83-12.52-32.55-9.43-3.33,2.77,7.99,22.8,26.94,23.14,16.12.29,30.24-13.79,28.06-23.14-2.92-12.54-33.63-12.54-39.29-29.14-1.62-4.77-.98-11.05,2.24-12,2.83-.83,7.81,2.39,12.35,7.71Z"/><path d="m338.04,161.87c-.17,0-.33,0-.5,0-14.68-.27-25.61-12.03-28.37-19.89-1.23-3.51-.41-5.15.5-5.9,2.48-2.06,8.27.28,18.3,4.59,4.63,1.99,11.43,4.91,13.73,4.91.02,0,.05,0,.07,0-.67-1.14-2.91-3.42-4.92-5.46-3.61-3.67-8.54-8.69-12.87-14.89-9.68-13.9-15.12-31.64-12.66-41.27.88-3.45,2.69-5.88,5.36-7.21,7.46-3.71,22.58.52,31.49,6.65,5.08,3.5,7.6,7.17,7.27,10.61-.28,2.89-2.93,7.18-14,11.21l-.98.36-.68-.79c-4.62-5.41-9-7.77-10.78-7.25-.47.14-.89.54-1.23,1.21-1.06,2.05-1.07,5.78-.02,8.87,2.77,8.13,12.2,12.04,21.32,15.81,8.46,3.5,16.45,6.81,18,13.47.91,3.9-.61,8.66-4.18,13.06-5.89,7.28-15.6,11.93-24.87,11.93Zm-25.81-23.6c-.29,0-.51.04-.67.13-.16.3-.07,2.11,1.62,5.17,3.07,5.58,11.66,15.07,24.41,15.31,10.34.16,18.86-5.7,22.99-10.81,2.98-3.68,4.28-7.5,3.59-10.49-1.2-5.16-8.5-8.18-16.23-11.38-9.28-3.84-19.81-8.2-23.02-17.62-1.31-3.85-1.23-8.46.2-11.22.72-1.39,1.78-2.33,3.04-2.7,3.86-1.15,9.22,2.93,13.22,7.38,9.88-3.78,10.98-7.3,11.08-8.32.21-2.23-1.97-5.09-5.98-7.85-9.94-6.84-23.22-9.04-28.45-6.43-1.86.92-3.13,2.7-3.79,5.27-2.23,8.73,3.13,25.78,12.21,38.82,4.18,6,9.01,10.91,12.54,14.5,4.17,4.24,6.02,6.2,5.97,8.05-.02.66-.28,1.25-.77,1.7-2.23,2.04-7.5-.08-17.4-4.34-4.6-1.98-11.99-5.16-14.55-5.16Z"/><path class="cls-4" d="m432.22,80.64c3.86,3.04,4.01,9.72,0,12.88-7.57,5.97-27.37-6.04-36.72,0-6.27,4.05-5.28,15.2,1.41,20.39,7.01,5.45,19.73,3.95,19.77,5.37.04,1.5-14.37.23-21.18,6.44-6.3,5.75-5.33,17.2,1.41,20.39,8.53,4.04,22.25-6.23,28.24-2.15,3.16,2.16,2.66,7.41,0,10.73-7.69,9.59-39.33,10.46-50.84,0-6.88-6.25-3.82-14.05,0-35.42,3.52-19.68,4.97-35.75,5.65-46.16,5.93,2.65,15.17,5.93,26.83,6.44,12.86.57,20.8-2.57,25.42,1.07Z"/><path d="m400.6,163.72c-9.44,0-20.8-2.01-27.28-7.91-6.39-5.81-5.08-12.59-2.22-27.46.54-2.79,1.13-5.89,1.75-9.34,2.75-15.38,4.64-30.85,5.63-45.99l.14-2.15,1.97.88c8.49,3.79,17.33,5.92,26.29,6.31,4.86.22,8.97-.11,12.58-.39,6.04-.47,10.4-.82,13.7,1.79,2.2,1.74,3.52,4.59,3.52,7.64,0,3.06-1.28,5.83-3.52,7.6-4.28,3.38-11.25,1.9-18.63.33-6.87-1.46-13.98-2.97-18.2-.25-2.12,1.37-3.36,3.82-3.5,6.89-.18,4.21,1.79,8.55,5.02,11.06,4.2,3.26,11,3.86,15.06,4.22,3.38.3,5.25.46,5.29,2.29.05,1.89-1.82,2.1-5.53,2.51-4.5.5-12.03,1.33-16.14,5.08-2.83,2.58-4.21,6.75-3.59,10.87.5,3.33,2.19,5.9,4.64,7.06,3.87,1.83,9.25.24,14.45-1.31,5.4-1.6,10.49-3.11,13.99-.72,1.5,1.02,2.45,2.61,2.75,4.6.41,2.75-.52,5.94-2.42,8.32-3.4,4.24-10.98,7.11-20.8,7.89-1.55.12-3.21.19-4.94.19Zm-19.27-88.38c-1.03,14.57-2.89,29.43-5.53,44.2-.62,3.47-1.22,6.58-1.76,9.38-2.73,14.14-3.85,20,1.29,24.67,6.52,5.92,19.74,7.75,29.97,6.95,8.87-.7,15.86-3.23,18.69-6.77,1.38-1.72,2.08-4.07,1.8-6-.17-1.15-.67-2.01-1.47-2.56-2.32-1.58-6.75-.27-11.45,1.12-5.48,1.62-11.68,3.46-16.59,1.14-3.37-1.59-5.67-4.99-6.32-9.32-.76-5.1.98-10.29,4.54-13.53,3.47-3.17,8.66-4.52,13.11-5.23-3.88-.58-8.3-1.71-11.61-4.28-3.98-3.09-6.4-8.41-6.17-13.56.18-4.01,1.95-7.39,4.87-9.28,5.26-3.4,12.98-1.75,20.45-.17,6.38,1.36,12.97,2.76,16.15.25,1.51-1.19,2.38-3.11,2.38-5.24,0-2.13-.89-4.11-2.38-5.28h0c-2.38-1.87-6.25-1.57-11.61-1.15-3.52.28-7.9.62-12.95.4-8.65-.38-17.18-2.31-25.41-5.72Z"/><path class="cls-4" d="m315.68,44.2c-.84-11.55-8.29-23.94-18.83-23.97-10.3-.03-17.89,11.75-18.83,22.77-1.31,15.39,10.21,31.26,21.73,29.37,9.63-1.59,16.88-15.2,15.93-28.17Zm-17.38,5.99c-2.42.19-4.38-2.28-4.83-4.79-.66-3.72,1.94-7.97,4.83-7.79,2.4.15,4.46,3.32,4.35,6.59-.1,2.82-1.82,5.8-4.35,5.99Z"/><path d="m297.87,74.02c-3.94,0-7.96-1.75-11.54-5.06-6.67-6.17-10.61-16.65-9.81-26.09.99-11.62,9.02-24.15,20.29-24.15h.04c11.41.03,19.43,13.19,20.32,25.36h0c1.03,14.17-7,28.08-17.19,29.76-.7.12-1.41.17-2.12.17Zm-1.06-52.29c-9.26,0-16.42,11.06-17.3,21.4-.73,8.56,2.83,18.06,8.86,23.63,3.53,3.26,7.48,4.73,11.13,4.13,8.59-1.42,15.59-14.09,14.68-26.58h0c-.79-10.84-7.65-22.55-17.34-22.58h-.03Zm1.22,29.98c-3.12,0-5.51-3-6.04-6.04-.46-2.62.38-5.6,2.15-7.58,1.22-1.37,2.73-2.06,4.25-1.97,3.21.2,5.9,4,5.75,8.14-.12,3.45-2.3,7.18-5.73,7.44h0c-.13,0-.25.01-.38.01Zm.08-12.6c-.75,0-1.41.61-1.74.98-1.16,1.3-1.74,3.33-1.44,5.06.32,1.81,1.7,3.7,3.24,3.56h0c1.65-.12,2.89-2.5,2.96-4.55.09-2.61-1.54-4.95-2.94-5.04-.03,0-.06,0-.09,0Z"/><rect x="220.71" y="169.9" width="134.13" height="40.07"/><path d="m356.33,211.47h-137.13v-43.07h137.13v43.07Zm-134.13-3h131.13v-37.07h-131.13v37.07Z"/><rect class="cls-4" x="218.48" y="168.23" width="133.57" height="38.96"/><path d="m352.55,207.68h-134.57v-39.96h134.57v39.96Zm-133.57-1h132.57v-37.96h-132.57v37.96Z"/><path d="m265.9,180.3c1.25,1.67,1.88,3.81,1.88,6.42,0,2.82-.72,5.17-2.15,7.04-1.68,2.2-4.08,3.29-7.19,3.29-2.91,0-5.19-.96-6.86-2.88-1.48-1.85-2.23-4.19-2.23-7.02,0-2.55.63-4.74,1.9-6.56,1.63-2.33,4.04-3.5,7.23-3.5s5.8,1.07,7.41,3.22Zm-2.26,12.04c1.01-1.62,1.51-3.48,1.51-5.58,0-2.22-.58-4.01-1.74-5.37-1.16-1.36-2.75-2.03-4.77-2.03s-3.55.67-4.78,2.01c-1.23,1.34-1.85,3.32-1.85,5.94,0,2.09.53,3.86,1.59,5.3,1.06,1.44,2.78,2.16,5.15,2.16s3.89-.81,4.89-2.43Z"/><path d="m270.82,177.6h2.5v9.25l9.45-9.25h3.58l-8.07,7.62,8.24,11.27h-3.35l-6.77-9.49-3.08,2.91v6.58h-2.5v-18.89Z"/><path d="m293.89,177.6h2.89l6.86,18.89h-2.8l-1.92-5.66h-7.47l-2.04,5.66h-2.62l7.11-18.89Zm4.21,11.15l-2.87-8.35-3.05,8.35h5.92Z"/><path d="m302.56,177.6h2.98l5.43,9.08,5.43-9.08h3.01l-7.16,11.28v7.61h-2.56v-7.61l-7.14-11.28Z"/><path class="cls-3" d="m267.77,181.37c1.25,1.67,1.88,3.81,1.88,6.42,0,2.82-.72,5.17-2.15,7.04-1.68,2.2-4.08,3.29-7.19,3.29-2.91,0-5.19-.96-6.86-2.88-1.48-1.85-2.22-4.19-2.22-7.02,0-2.55.63-4.74,1.9-6.56,1.63-2.33,4.04-3.5,7.23-3.5s5.8,1.07,7.41,3.22Zm-2.26,12.04c1.01-1.62,1.51-3.48,1.51-5.58,0-2.22-.58-4.01-1.74-5.37-1.16-1.36-2.75-2.03-4.77-2.03s-3.55.67-4.78,2.01c-1.23,1.34-1.85,3.32-1.85,5.94,0,2.09.53,3.86,1.59,5.3,1.06,1.44,2.78,2.16,5.15,2.16s3.89-.81,4.89-2.43Z"/><path class="cls-3" d="m272.7,178.67h2.5v9.25l9.45-9.25h3.58l-8.07,7.62,8.24,11.27h-3.35l-6.77-9.49-3.08,2.91v6.58h-2.5v-18.89Z"/><path class="cls-3" d="m295.76,178.67h2.89l6.85,18.89h-2.8l-1.92-5.66h-7.47l-2.05,5.66h-2.62l7.11-18.89Zm4.21,11.15l-2.87-8.35-3.05,8.35h5.92Z"/><path class="cls-3" d="m304.44,178.67h2.98l5.43,9.08,5.43-9.08h3.01l-7.16,11.28v7.61h-2.56v-7.61l-7.14-11.28Z"/></svg>