<?xml version="1.0" encoding="UTF-8"?><svg id="pelle" xmlns="http://www.w3.org/2000/svg" width="317.36" height="689.61" viewBox="0 0 317.36 689.61"><defs><style>.cls-1{fill:#f2f2f2;}.cls-2{fill:#001300;}.cls-3{fill:#0071bc;}.cls-4{fill:#fff;}.cls-5{fill:#ff0;}.cls-6{fill:#ed1c24;}.cls-7{fill:#fbb03b;}.cls-8{fill:#fcee21;}.cls-9{fill:#ccc;}.cls-10{fill:#29abe2;}.cls-11{fill:#754c24;}</style></defs><path class="cls-9" d="m212.22,400.31c-3.87-6.9-20.27,3.21-44.26,5.66-10.62,1.08-18.67.09-34.78-1.89-29.38-3.61-43.84-9.45-47.43-3.77-1.76,2.77.92,5.44,3.3,15.68,1.15,4.93,1.63,9.08,1.97,25.64.45,21.58.67,32.38,0,41.42-1.08,14.58-1.81,24.49-5.92,37.48-3.08,9.76-5.66,17.93-11.84,27.62-5.34,8.37-8.31,9.96-7.89,13.81,1.32,12.08,32.83,17.02,37.48,17.75,13.26,2.08,37.55,3.37,41.42-5.92,2.03-4.86-2.23-10.96,1.97-15.78,1.99-2.28,4.42-2.6,5.92-5.92,1.48-3.28.57-6.18,1.55-6.51,1.21-.4,3.56,3.57,4.74,5.66,7.47,13.23,29.82,18.42,39.52,9.43,2.96-2.74,1.81-4.09,7.9-15.09,5.01-9.04,9.21-14.31,11.07-16.98,8.87-12.75,11.73-34.32,11.07-49.06-1.47-32.72-21.03-47.64-15.81-71.7.47-2.17,1.32-5.2,0-7.55Z"/><path d="m121.47,581.71c-5.84,0-12.48-.52-18.69-1.5-10.99-1.73-36.67-6.95-37.9-18.19-.29-2.7.98-4.4,3.3-7.48,1.25-1.67,2.81-3.74,4.67-6.65,6.14-9.63,8.75-17.91,11.78-27.5,4.09-12.94,4.81-22.66,5.89-37.37.67-9.02.45-19.84,0-41.38-.35-17-.87-20.84-1.96-25.54-.93-4.01-1.92-6.89-2.65-9-1.15-3.34-1.78-5.18-.59-7.06,2.55-4.03,9.83-2.73,23.04-.36,6.65,1.19,14.92,2.68,24.87,3.9,16.05,1.97,24.1,2.96,34.67,1.89,9.95-1.02,18.62-3.36,25.58-5.25,10.07-2.73,16.72-4.53,19.17-.16h0c1.3,2.32.65,5.22.17,7.35l-.12.55c-2.73,12.58,1.38,22.6,6.15,34.21,4.21,10.25,8.97,21.87,9.67,37.36.7,15.58-2.48,36.89-11.16,49.36-.35.51-.79,1.11-1.3,1.81-2.13,2.93-5.69,7.83-9.74,15.13-2.92,5.27-4.18,8.33-5.01,10.36-.92,2.24-1.38,3.36-3,4.86-4.18,3.87-10.91,5.42-18.47,4.24-9.5-1.48-17.86-6.77-21.83-13.79-3.21-5.68-4.11-5.45-4.15-5.43-.14.11-.19.89-.23,1.47-.08,1.24-.19,2.94-1.02,4.77-.98,2.17-2.35,3.14-3.68,4.08-.82.58-1.59,1.13-2.31,1.96-2.27,2.6-1.92,5.58-1.54,8.72.28,2.33.57,4.74-.34,6.92-1.79,4.3-7.72,6.83-17.62,7.53-1.76.12-3.66.18-5.66.18Zm-29.45-183.27c-2.95,0-4.88.61-5.85,2.14-.94,1.48-.43,2.96.69,6.2.73,2.13,1.73,5.04,2.68,9.1,1.2,5.15,1.65,9.6,1.99,25.75.45,21.57.67,32.4,0,41.47-1.09,14.78-1.82,24.54-5.94,37.59-3.05,9.66-5.68,18-11.89,27.74-1.88,2.94-3.45,5.03-4.71,6.71-2.31,3.07-3.36,4.47-3.11,6.77,1.19,10.85,28.67,16,37.06,17.31,8.26,1.3,17.27,1.78,24.12,1.3,9.36-.66,15.15-3.05,16.76-6.92.81-1.94.55-4.12.28-6.42-.39-3.22-.78-6.56,1.78-9.5.8-.92,1.66-1.53,2.49-2.11,1.27-.9,2.48-1.76,3.35-3.68.75-1.67.86-3.26.94-4.42.08-1.17.14-2.09.91-2.35.84-.28,2.13.21,5.34,5.89,3.82,6.77,11.91,11.86,21.11,13.3,7.25,1.13,13.68-.32,17.63-3.99,1.46-1.35,1.86-2.34,2.75-4.51.84-2.05,2.11-5.14,5.06-10.46,4.08-7.36,7.66-12.29,9.81-15.23.5-.69.94-1.29,1.29-1.79,8.55-12.28,11.67-33.33,10.98-48.75-.69-15.32-5.42-26.85-9.6-37.03-4.83-11.76-9-21.92-6.2-34.8l.12-.56c.46-2.07,1.04-4.66-.07-6.64-2.07-3.69-8.42-1.97-18.03.63-7,1.9-15.71,4.25-25.75,5.28-10.67,1.09-18.76.1-34.88-1.89-9.98-1.23-18.27-2.71-24.93-3.91-7.12-1.28-12.46-2.24-16.17-2.24Z"/><path class="cls-10" d="m79.09,383.35c-4.74,1.2-7.82,11.64-3.88,17.94,3.36,5.37,11.07,6.55,15.53,7.18,44.59,6.24,75.69,3.19,97.03,3.59,0,0,8.02.15,23.29-3.59,2.31-.57,5.17-1.34,7.76-3.59,4.88-4.24,6.71-11.92,3.88-14.35-2.08-1.79-6.33-.43-7.76,0-5.08,1.53-25.38,2.21-65.98,3.59-33.2,1.12-51.93,1.57-62.1-7.18-1.4-1.2-4.71-4.36-7.76-3.59Z"/><path d="m150.04,412.71c-16.53,0-35.96-.72-59.35-3.99-4.27-.6-12.22-1.71-15.7-7.29-2.51-4.02-2.14-9.53-.66-13.21,1.11-2.77,2.82-4.63,4.69-5.1h0c2.96-.75,6.13,2.02,7.66,3.36l.33.29c10.31,8.86,29.73,8.21,61.93,7.12,40.53-1.37,60.87-2.06,65.92-3.58l.13-.04c1.57-.48,5.74-1.74,7.87.09.93.8,1.42,2.13,1.42,3.85,0,3.69-2.17,8.16-5.3,10.88-2.54,2.2-5.28,3.01-7.87,3.64-15.08,3.69-23.01,3.6-23.35,3.6-5.42-.1-11.35.02-18.21.15-6.04.12-12.51.25-19.5.25Zm-70.9-29.12h0c-1.71.44-3.3,2.19-4.35,4.8-1.43,3.57-1.8,8.9.62,12.76,3.36,5.38,11.16,6.48,15.35,7.06,33.24,4.65,58.49,4.15,78.77,3.74,6.87-.14,12.8-.26,18.23-.15.34,0,8.2.1,23.22-3.58,2.53-.62,5.21-1.4,7.66-3.53,3.03-2.63,5.14-6.95,5.13-10.5,0-1.57-.44-2.77-1.25-3.47-1.91-1.65-5.89-.44-7.39,0l-.13.04c-5.11,1.54-25.48,2.23-66.05,3.6-32.31,1.09-51.82,1.75-62.27-7.24l-.33-.29c-1.46-1.28-4.5-3.93-7.21-3.25Z"/><path class="cls-10" d="m170.73,207.12c-.77-.04-.15,0-39.39,2.32-5.53.33-11.15.64-16.22,4.63-5.38,4.24-10.13,12.63-8.11,19.7,1.98,6.94,8.93,7.17,11.59,16.22.65,2.2,1.78,6.06,0,9.27-2.75,4.95-10.31,4.04-17.38,5.79-7.91,1.97-13.38,7.88-24.33,19.7-2.75,2.96-15.16,16.58-27.81,39.39-7.61,13.74-11.42,23.79-13.9,32.44-3.68,12.81-5.4,19.35-2.32,25.49,7.09,14.12,33.53,16.78,39.39,9.27,1.87-2.4,2.08-6.41,4.63-6.95,2.53-.54,5.18,2.77,5.79,3.48,9.96,11.43,70.43,7.51,88.06,6.95,13.97-.44,51.93-2.42,51.93-2.46-.01-.25-2-.74-3.26.15-2.12,1.49-2.82,6.69,0,9.27,1.54,1.41,3.93,1.84,5.79,1.16,2.08-.77,3.1-2.78,3.48-3.48,1.72-3.2,8.79-8.44,23.17-18.54,5.02-3.52,5.18-3.86,6.95-4.63,9.4-4.12,16.12.35,18.54-2.32,3.69-4.07-10.61-15.97-16.22-34.76-7.75-25.97,8.71-39.63-2.32-53.3-2.57-3.19-4.54-3.78-25.49-20.86-.27-.29-.79-.82-1.52-1.4-6.02-4.73-12.7-1.24-15.86-4.4-2.55-2.54-1.61-8.18,0-11.59,3.88-8.22,13.4-7.17,16.22-13.9,2.15-5.12-1.05-11.52-3.48-15.06-6.37-9.3-23.66-9.81-57.93-11.59Z"/><path d="m223.34,403.49c-1.49,0-3.02-.54-4.11-1.54-1.37-1.25-2.07-3.21-1.93-5.38.1-1.52.6-2.88,1.36-3.74-11.63.67-43.74,2.1-47.92,2.24-1.88.06-4.25.16-7,.27-23.46.97-72.28,2.99-81.26-7.31l-.13-.15c-.79-.92-3.18-3.72-5.42-3.25-1.45.31-2.08,1.85-2.82,3.63-.46,1.12-.94,2.28-1.67,3.23-2.51,3.22-8.76,4.76-16.31,4.01-4.83-.48-9.69-1.89-13.67-3.97-4.56-2.38-7.96-5.62-9.83-9.35-3.1-6.16-1.44-12.68,2.3-25.67,3.05-10.59,7.34-20.61,13.93-32.49,11.68-21.08,23.36-34.6,27.84-39.44,10.97-11.84,16.47-17.79,24.45-19.77,2.11-.52,4.24-.81,6.3-1.08,4.86-.65,9.05-1.21,10.92-4.59,1.73-3.12.63-6.85-.02-9.08-1.39-4.75-3.95-7-6.42-9.18-2.17-1.92-4.22-3.73-5.17-7.04-2.05-7.15,2.7-15.62,8.2-19.96,5.1-4.02,10.78-4.36,16.26-4.68h.1c17.74-1.06,27.34-1.64,32.59-1.96q6.4-.39,6.83-.37l4.07.21c31.88,1.64,47.88,2.46,54.05,11.49,1.85,2.7,5.89,9.6,3.5,15.3-1.39,3.31-4.33,4.78-7.43,6.32-3.35,1.67-6.81,3.39-8.79,7.59-1.51,3.2-2.53,8.83-.05,11.3,1.36,1.35,3.45,1.42,5.87,1.5,3.1.1,6.6.22,9.97,2.87.55.44,1.07.91,1.54,1.42,9.28,7.56,14.75,11.83,18.37,14.65,4.48,3.49,5.68,4.43,7.13,6.22,5.66,7.01,4.21,13.87,2.37,22.55-1.79,8.47-3.82,18.06,0,30.83,2.83,9.48,7.96,17.33,11.71,23.06,3.86,5.9,6.41,9.79,4.45,11.94-1.13,1.24-3.01,1.06-5.61.81-3.26-.31-7.72-.74-13.01,1.57-1.21.53-1.65.85-3.49,2.17-.81.58-1.89,1.36-3.42,2.44-14.63,10.28-21.44,15.38-23.1,18.45l-.04.08c-.4.75-1.47,2.74-3.57,3.51-.61.22-1.27.33-1.94.33Zm-3.91-10.71c-.89.7-1.52,2.18-1.63,3.82-.13,2.02.51,3.83,1.77,4.98,1.44,1.32,3.72,1.78,5.54,1.11,1.92-.71,2.89-2.51,3.3-3.28l.04-.08c1.71-3.18,8.26-8.1,23.25-18.62,1.53-1.07,2.6-1.85,3.41-2.43,1.88-1.35,2.32-1.68,3.58-2.23,5.4-2.37,9.94-1.93,13.26-1.61,2.46.24,4.24.41,5.2-.65,1.69-1.86-.91-5.84-4.5-11.33-3.77-5.76-8.92-13.64-11.77-23.19-3.85-12.89-1.8-22.55,0-31.08,1.81-8.55,3.24-15.31-2.27-22.14-1.41-1.75-2.61-2.68-7.05-6.14-3.62-2.82-9.09-7.09-18.41-14.68-.48-.51-.98-.97-1.51-1.39-3.24-2.55-6.66-2.67-9.68-2.77-2.53-.08-4.71-.16-6.21-1.65-2.8-2.79-1.52-8.76-.05-11.87,2.06-4.36,5.6-6.12,9.02-7.82,3.02-1.5,5.88-2.93,7.2-6.07,2.36-5.63-2.05-12.77-3.45-14.82-6.04-8.82-21.96-9.64-53.67-11.27l-4.07-.21q-.41-.02-6.77.37c-5.26.32-14.85.9-32.6,1.95h-.1c-5.41.33-11.01.66-15.98,4.58-5.37,4.24-10.01,12.49-8.02,19.43.91,3.17,2.91,4.94,5.02,6.8,2.41,2.12,5.13,4.53,6.57,9.42.63,2.15,1.81,6.16-.02,9.46-1.99,3.6-6.3,4.17-11.29,4.84-2.05.27-4.17.56-6.24,1.07-7.84,1.95-13.31,7.86-24.21,19.62-4.47,4.82-16.12,18.31-27.77,39.34-6.56,11.85-10.85,21.84-13.88,32.39-3.7,12.86-5.35,19.31-2.33,25.31,2.63,5.23,10.25,11.78,23.11,13.05,7.26.72,13.49-.78,15.86-3.82.69-.89,1.16-2.02,1.6-3.11.75-1.83,1.46-3.57,3.18-3.93,2.54-.54,5.07,2.43,5.91,3.41l.13.15c8.82,10.11,57.47,8.1,80.86,7.14,2.75-.11,5.12-.21,7-.27,11.56-.37,38.94-1.75,48.52-2.27h0c1.14-.8,2.78-.59,3.37-.3.07.03.28.14.29.35v.1s-.06.08-.06.08c-.04.05-1.31.14-3.42.26Z"/><path d="m210.92,242.6c-1.93,0-3.63-.18-5.03-.41l.08-.49c3.43.56,8.76.81,14.68-1.19,4.17-1.41,8.07-3.77,11.27-6.83l.35.36c-3.25,3.11-7.22,5.51-11.45,6.94-3.61,1.22-7,1.62-9.89,1.62Z"/><path d="m133.25,245.13c-2.93,0-5.86-.32-8.7-.95-8.08-1.8-13.94-5.73-17.43-8.72l.32-.38c3.45,2.95,9.24,6.83,17.22,8.61,5.62,1.25,11.57,1.25,17.21,0l.11.49c-2.86.63-5.79.95-8.73.95Z"/><path d="m169.04,234.26c-20.91,0-44.79-4.42-49.6-9.24-.58-.58-.86-1.16-.86-1.73.02-1.59,2.31-3.07,7.01-4.52l.15.48c-5.48,1.7-6.64,3.14-6.65,4.05,0,.43.24.89.71,1.37,4.26,4.27,26.48,9.1,49.15,9.1.41,0,.82,0,1.23,0,10.05-.08,20.96-1.17,30.7-3.08,8.7-1.7,15.11-3.84,16.74-5.57.25-.27.38-.52.36-.73-.03-.57-1.06-1.69-7.56-2.78l.08-.49c5.37.9,7.91,1.93,7.98,3.24.02.36-.15.73-.5,1.1-3.59,3.83-26.35,8.64-47.8,8.81-.38,0-.75,0-1.13,0Z"/><path d="m76.79,384.36l-.48-.13c3.32-12.73,9.15-25.44,16.85-36.74,10.94-16.06,23.46-26.28,32.04-32.03l.28.42c-8.54,5.73-21.01,15.91-31.91,31.9-7.67,11.26-13.47,23.91-16.78,36.59Z"/><path d="m223.2,392.1c-.8,0-1.71-.17-2.72-.52l.16-.47c1.9.65,3.39.66,4.42.02,2.77-1.7,1.66-7.48-.19-17.04-1.37-7.1-3.07-15.93-4.07-27.07-.9-10.01-.71-16.54-.5-20.57.33-6.23,1.11-12.47,2.32-18.57l.49.1c-1.2,6.08-1.98,12.3-2.31,18.5-.22,4.02-.4,10.52.5,20.5,1,11.12,2.7,19.93,4.06,27.02,1.95,10.11,3.02,15.68-.04,17.56-.59.36-1.3.54-2.12.54Z"/><path d="m171.57,269.36c-3.54,0-7.15-.16-11.29-.59-7.85-.81-15.66-2.37-23.22-4.64l.14-.48c7.53,2.27,15.31,3.82,23.13,4.63,9.42.97,16.14.56,25.45,0,8.07-.49,16.06-2.09,23.1-4.62,1.7-.61,6.88-2.47,6.79-4.39-.03-.7-.79-1.43-2.18-2.1l.22-.45c1.59.77,2.41,1.62,2.46,2.53.09,2.02-3.75,3.67-7.12,4.88-7.09,2.55-15.13,4.16-23.24,4.65-5.25.32-9.68.59-14.24.59Z"/><path class="cls-10" d="m30.54,377.44c-2.75,3.66-4.02,7.09-4.63,9.27-.63,2.22-2.76,9.74.87,16.97.02.04.21.42.4.74,4.81,8.45,26.18,16.21,39.12,6.52,6.36-4.76,10.85-13.86,8.27-17.28-3.3-4.38-15.19,4.48-27.81,0-8.46-3-13.43-10.64-16.22-16.22Z"/><path d="m51.67,415.69c-2.78,0-5.26-.36-7.1-.75-7.94-1.66-15.02-5.83-17.62-10.39-.18-.33-.38-.72-.4-.76-2.44-4.86-2.74-10.63-.89-17.15.95-3.34,2.52-6.49,4.68-9.35l.24-.32.18.36c4.18,8.38,9.59,13.79,16.08,16.1,6.81,2.42,13.33.93,18.56-.27,4.33-.99,7.76-1.77,9.36.35.7.92.94,2.29.71,3.94-.63,4.43-4.51,10.32-9.02,13.7-4.74,3.55-10.17,4.54-14.77,4.54Zm-21.18-37.78c-2,2.73-3.46,5.71-4.35,8.86-1.81,6.4-1.52,12.05.86,16.79.02.04.21.42.39.73,2.52,4.44,9.47,8.52,17.28,10.15,4.82,1.01,14.03,1.86,21.47-3.71,4.42-3.31,8.22-9.05,8.83-13.37.22-1.52,0-2.75-.61-3.57-1.41-1.86-4.69-1.11-8.85-.17-5.3,1.21-11.9,2.71-18.84.25-6.52-2.31-11.96-7.69-16.18-15.98Z"/><path class="cls-10" d="m227.51,400.61c-.21.97-3.48,17.24,4.63,23.17.93.68,5.66,4.13,9.27,2.32,1.16-.58,1.88-1.55,2.32-2.32,6.16-7.11,11.84-12.44,16.22-16.22,9.11-7.86,12.54-8.91,13.9-9.27.7-.18,3.45-.87,6.95-2.32,4.02-1.67,6.26-2.63,6.95-4.63.71-2.05-.55-4.13-2.32-6.95-2.09-3.35-4.5-7.25-9.27-9.27-5.38-2.28-10.44-.93-13.9,0-4.99,1.33-8.91,3.59-16.22,9.27-4.98,3.87-11.42,9.23-18.54,16.22Z"/><path d="m239.1,426.87c-2.06,0-4.5-.98-7.11-2.88-8.32-6.08-4.88-22.72-4.73-23.43l.02-.07.05-.05c5.9-5.79,12.14-11.26,18.56-16.24,7.36-5.72,11.32-7.98,16.31-9.31,3.43-.92,8.61-2.3,14.07.01,4.79,2.03,7.19,5.87,9.31,9.25l.07.11c1.73,2.77,3.1,4.96,2.34,7.17-.75,2.16-3.13,3.14-7.09,4.78-3.33,1.38-5.98,2.07-6.85,2.29l-.13.03c-1.11.29-4.48,1.18-13.8,9.22-5.66,4.88-11.11,10.33-16.2,16.2-.6,1.07-1.42,1.89-2.39,2.38-.73.37-1.54.55-2.42.55Zm-11.36-26.13c-.28,1.37-3.32,17.09,4.55,22.85,2.07,1.51,5.98,3.82,9.01,2.3.89-.45,1.63-1.19,2.21-2.22,5.13-5.92,10.59-11.39,16.28-16.29,8.43-7.27,12.03-8.8,14-9.32l.13-.03c.86-.22,3.49-.91,6.79-2.27,4.15-1.72,6.17-2.62,6.81-4.48.65-1.88-.45-3.79-2.29-6.74l-.07-.11c-2.08-3.32-4.44-7.09-9.08-9.06-5.3-2.24-10.38-.89-13.74.01-4.91,1.31-8.83,3.55-16.13,9.22-6.38,4.96-12.59,10.39-18.46,16.15Z"/><path class="cls-3" d="m259.95,407.56c-6.28,4.24-14.18,15.89-16.63,14.71-1.64-.79-.16-6.97,0-7.65,4.24-17.7,23.05-24.35,26.72-25.52,3.59-1.15,5.52-1.16,6.17,0,1.28,2.3-1.36,8.08-4.11,10.21-.3.23-1.94,1.45-4.1,2.9-.52.35-.9.6-1.09.72,0,0-2.52,1.64-6.95,4.63Z"/><path d="m243.69,422.6c-.17,0-.34-.03-.48-.11-1.65-.79-.64-5.82-.13-7.94,1.8-7.54,6.41-13.97,13.67-19.1,5.54-3.91,11.08-5.91,13.21-6.6,3.75-1.2,5.74-1.16,6.46.12,1.35,2.42-1.34,8.34-4.18,10.53-.32.25-1.95,1.46-4.11,2.91-.47.31-.82.55-1.03.68l-.06.04s-2.52,1.64-6.95,4.63h0c-2.8,1.89-5.96,5.31-8.76,8.33-3.33,3.6-6.03,6.51-7.64,6.51Zm30.53-34.12c-.98,0-2.33.28-4.11.85-20.58,6.58-25.53,21.06-26.55,25.34-.8,3.32-1.15,6.89-.13,7.37,1.19.57,4.42-2.92,7.54-6.29,2.81-3.04,6-6.48,8.85-8.4l.14.21-.14-.21c2.37-1.6,6.22-4.19,6.97-4.62v-.02s.05-.04.05-.04c.21-.13.56-.37,1.03-.68,2.15-1.44,3.77-2.64,4.08-2.89,2.64-2.04,5.27-7.69,4.04-9.89-.27-.49-.85-.74-1.76-.74Z"/><path class="cls-4" d="m26.98,402.83c-.8-.45-2.88-.82-12.51,7.82-5.27,4.73-7.91,7.09-9.38,9.38-1.01,1.57-5.07,8.22-4.69,17.2.13,3.06.22,5.29,1.56,7.82,1.49,2.81,2.96,3.02,10.95,9.38,4.18,3.33,4.44,3.8,6.25,4.69,2.85,1.4,4.46,1.35,7.82,3.13,2.64,1.39,2.61,2.03,4.69,3.13,6.68,3.52,15.81,3.67,18.76,0,.39-.49,1.22-1.72,1.56-1.56.42.19-.62,2.15,0,3.13,1.03,1.62,6.67.62,10.95-1.56,10.41-5.3,13.49-17.94,14.07-20.33.6-2.44,1.96-9.15,0-17.2-2.09-8.56-7.78-17.94-10.95-17.2-.73.17-.93.79-1.56,1.56-4.63,5.66-18.05,1.94-25.02,0-7.73-2.14-9.92-4.15-10.95-6.25-.75-1.54-.6-2.59-1.56-3.13Z"/><path d="m42.52,468.46c-3.52,0-7.53-.92-11.02-2.75-1.01-.53-1.54-.96-2.1-1.41-.6-.49-1.23-1-2.59-1.72-1.81-.96-3.11-1.38-4.37-1.79-1.04-.34-2.12-.69-3.44-1.34-1.31-.65-1.86-1.1-3.49-2.43-.69-.57-1.59-1.31-2.83-2.3-2.71-2.16-4.68-3.62-6.13-4.69-2.83-2.1-3.89-2.88-4.92-4.81-1.38-2.6-1.48-4.85-1.61-7.98-.35-8.51,3.2-15.02,4.75-17.42,1.5-2.33,4.15-4.71,9.44-9.45,9.2-8.25,11.75-8.54,12.95-7.87.74.41.94,1.07,1.17,1.84.13.43.28.91.54,1.45.9,1.85,2.82,3.87,10.71,6.06,7.04,1.96,20.15,5.6,24.63.12.17-.21.3-.4.43-.58.36-.51.67-.96,1.34-1.11,3.57-.83,9.34,9.07,11.4,17.48,1.84,7.56.79,14.13,0,17.38-1.38,5.67-5.08,15.89-14.27,20.57-4.4,2.25-10.23,3.33-11.43,1.43-.44-.69-.23-1.64-.07-2.41.02-.1.04-.21.07-.32-.24.26-.54.65-.69.85-.1.13-.19.25-.26.34-1.53,1.9-4.62,2.85-8.21,2.85Zm-16.29-65.43c-2.21,0-7.37,4.19-11.51,7.9-5.24,4.7-7.87,7.06-9.32,9.31-1.51,2.34-4.98,8.69-4.63,16.98.13,3.03.22,5.21,1.52,7.66.95,1.78,1.89,2.48,4.7,4.56,1.45,1.07,3.43,2.54,6.15,4.71,1.25,1,2.15,1.74,2.84,2.31,1.62,1.33,2.11,1.73,3.34,2.34,1.27.62,2.28.95,3.34,1.3,1.29.42,2.62.85,4.48,1.83,1.43.75,2.11,1.31,2.72,1.8.53.43,1.03.83,1.97,1.33,6.63,3.49,15.52,3.54,18.3.1.07-.09.16-.2.25-.32.73-.96,1.25-1.58,1.76-1.35.46.21.34.77.2,1.42-.13.6-.3,1.42-.03,1.85.84,1.33,6.22.46,10.46-1.7,8.92-4.55,12.52-14.53,13.88-20.08.78-3.18,1.81-9.62,0-17.02-2.09-8.57-7.71-17.58-10.5-16.92-.37.09-.55.33-.9.81-.13.19-.28.4-.46.62-4.78,5.85-18.2,2.12-25.41.12-8.18-2.27-10.21-4.44-11.18-6.45-.29-.6-.45-1.11-.58-1.56-.24-.77-.37-1.15-.82-1.4h0c-.16-.09-.35-.13-.57-.13Z"/><path class="cls-4" d="m15.08,430.55c-1.35,1.16-4.12,3.88-5.3,8.25-2.24,8.3,3.27,15.09,3.88,15.81"/><path d="m13.37,454.85c-.64-.77-6.22-7.73-3.95-16.15,1.1-4.07,3.55-6.84,5.41-8.44l.49.57c-1.78,1.53-4.13,4.17-5.18,8.06-2.17,8.05,3.18,14.73,3.8,15.47l-.57.48Z"/><path class="cls-4" d="m31.67,437.24c-1.5,1.21-4.87,4.29-6.25,9.38-2.57,9.45,4.02,17.15,4.61,17.82"/><path d="m29.75,464.69c-.75-.85-7.3-8.61-4.69-18.17,1.28-4.68,4.17-7.79,6.38-9.57l.47.58c-2.12,1.71-4.9,4.7-6.13,9.19-2.5,9.18,3.8,16.65,4.53,17.47l-.56.5Z"/><path class="cls-4" d="m52,463.82c.97-.94,5.37-5.37,5.69-12.53.3-6.6-3.05-11.15-3.96-12.31"/><path d="m52.26,464.09l-.52-.54c1.58-1.52,5.28-5.75,5.58-12.28.28-6.07-2.62-10.45-3.88-12.06l.59-.46c1.31,1.67,4.33,6.24,4.04,12.55-.31,6.79-4.17,11.2-5.81,12.78Z"/><path class="cls-4" d="m56.69,440.36c-.65-.54-1.71-1.26-3.13-1.56-5.7-1.2-10.46,5.81-10.76,6.27-1.21,1.83-2.86,4.34-1.75,6.24.92,1.58,3.47,2.25,6.25,1.56"/><path d="m45.19,453.51c-2.01,0-3.7-.73-4.46-2.02-1.23-2.1.5-4.72,1.76-6.63.21-.32,5.16-7.7,11.15-6.44,1.17.25,2.28.8,3.29,1.64l-.48.58c-.92-.76-1.92-1.26-2.96-1.48-5.51-1.16-10.17,5.81-10.37,6.11-1.15,1.75-2.73,4.14-1.74,5.84.86,1.46,3.26,2.03,5.84,1.39l.18.73c-.76.19-1.5.28-2.21.28Z"/><path class="cls-4" d="m275.73,391.33c-11.73.32-19.49,7.13-22.21,9.52-5.64,4.95-8.3,10.21-9.52,12.69-.91,1.85-7.07,14.35-3.17,20.63.48.78,3.17,4.76,3.17,4.76,0,0,.32.2.68.5.24.21.59.57.9,1.08,1.52,2.48.12,5.25,0,7.93-.12,2.66,1.06,4.54,3.17,7.93,4.83,7.75,12.73,10.58,14.28,11.11,8.02,2.72,15.35,1.04,17.45,0,.57-.28.59-.31,3.17-1.59,7.73-3.81,8.04-3.59,9.52-4.76,3.63-2.88,5.99-7.58,4.76-9.52-.57-.9-1.66-1.48-1.59-1.59.09-.14,1.79,1.05,3.17,1.59,4.03,1.57,8.59-1.05,9.52-1.59,5.69-3.27,8.05-10.34,7.93-15.87-.06-3.18-.94-5.65-4.76-12.69-6.86-12.66-10.2-19.1-14.28-22.21-3.22-2.46-11.04-8.24-22.21-7.93Z"/><path d="m272.09,469.34c-2.77,0-5.93-.39-9.17-1.49-2.22-.75-9.81-3.78-14.48-11.26-2.16-3.47-3.35-5.38-3.23-8.15.04-.85.2-1.71.36-2.54.35-1.85.68-3.59-.3-5.18-.23-.37-.51-.7-.83-1-.32-.27-.62-.46-.63-.46l-.11-.11c-.11-.16-2.7-4-3.18-4.77-3.62-5.82,1-16.62,3.16-20.99,1.14-2.31,3.8-7.71,9.61-12.81,2.62-2.3,10.59-9.29,22.45-9.61h0c11.52-.3,19.47,5.73,22.45,8.01,3.91,2.98,7.02,8.73,13.23,20.2l1.16,2.13c3.79,7,4.74,9.53,4.81,12.86.12,5.67-2.35,12.88-8.12,16.2-3.64,2.09-7.14,2.67-9.84,1.61-.36-.14-.75-.33-1.11-.52,1.3,2.13-1.05,6.96-4.86,9.98-.88.7-1.39.93-3.08,1.7-1.28.58-3.21,1.47-6.51,3.1-1.78.88-2.34,1.17-2.7,1.35l-.47.24c-1.4.69-4.57,1.51-8.57,1.51Zm-27.82-30.68c.12.08.38.26.66.49.39.35.72.75.98,1.17,1.13,1.84.76,3.81.4,5.71-.15.8-.31,1.63-.34,2.43-.11,2.54,1.03,4.38,3.11,7.72,4.54,7.27,11.93,10.22,14.08,10.95,7.72,2.61,14.9,1.14,17.17.02l.46-.23c.36-.19.93-.47,2.71-1.35,3.31-1.64,5.25-2.52,6.53-3.11,1.66-.76,2.11-.97,2.92-1.61,3.73-2.96,5.69-7.43,4.68-9.03-.32-.5-.84-.91-1.18-1.18-.32-.25-.63-.49-.4-.82.24-.35.52-.19,1.48.35.6.34,1.43.81,2.14,1.09,2.49.97,5.76.42,9.2-1.56,5.5-3.17,7.86-10.08,7.75-15.53-.06-3.19-.99-5.65-4.72-12.52l-1.16-2.13c-6.15-11.37-9.24-17.08-13.02-19.96-2.93-2.23-10.67-8.16-21.98-7.86h0c-11.59.31-19.14,6.93-21.98,9.43-5.7,5-8.32,10.31-9.43,12.58-1.64,3.32-6.71,14.61-3.19,20.26.44.71,2.78,4.17,3.12,4.68Z"/><path class="cls-4" d="m245.89,450.66c.04-.41.56-4.79,4.45-6.96,3.1-1.73,7.07-1.35,10,.97"/><path d="m246.26,450.7l-.75-.08c.05-.51.62-5.01,4.64-7.25,3.26-1.82,7.35-1.43,10.42,1l-.46.59c-2.83-2.24-6.59-2.61-9.59-.94-3.69,2.06-4.21,6.21-4.26,6.67Z"/><path class="cls-4" d="m269.38,426.24c-1.84,1.49-4.71,4.33-4.76,7.93-.09,6.72,9.64,12.4,17.45,12.69,13.49.5,27.08-14.86,24.02-23.66-.37-1.08-2.31-5.83-12.91-8.07"/><path d="m282.72,447.26c-.22,0-.44,0-.66-.01-8.15-.3-17.91-6.2-17.82-13.07.05-3.56,2.69-6.43,4.9-8.22l.47.58c-2.08,1.69-4.58,4.38-4.62,7.65-.07,5.29,7.54,11.96,17.09,12.31,8.17.29,16.08-5.32,20.3-11.03,3.27-4.43,4.49-8.85,3.35-12.14-.58-1.67-2.98-5.78-12.64-7.83l.15-.73c10.03,2.12,12.57,6.52,13.19,8.31,1.23,3.53-.03,8.21-3.46,12.83-4.22,5.71-12.07,11.34-20.27,11.34Z"/><path class="cls-4" d="m289.77,445.61c.19.42,1.18,2.58,3.71,3.58,2.46.98,4.62.16,5.06-.02"/><path d="m295.95,450.04c-.79,0-1.68-.13-2.61-.5-2.46-.98-3.56-2.97-3.91-3.78l.69-.3c.32.73,1.3,2.51,3.5,3.39,2.15.85,4.06.27,4.78-.02l.28.7c-.49.2-1.48.52-2.73.52Z"/><path class="cls-4" d="m267.79,440.52c-.28-.25-2.53-2.27-4.76-1.59-2.45.75-3.07,4.2-3.17,4.76-1.19,6.61,6.48,13.97,12.54,17.45,2.51,1.44,7.11,3.58,13.7,3.92"/><path d="m286.07,465.44c-5.08-.26-9.74-1.6-13.86-3.97-5.8-3.34-13.98-10.84-12.72-17.84.23-1.27,1.03-4.31,3.43-5.05,2.37-.73,4.68,1.26,5.12,1.67l-.51.55c-.39-.36-2.42-2.11-4.4-1.5-2.01.62-2.71,3.33-2.91,4.47-1.19,6.62,6.74,13.83,12.36,17.06,4.02,2.31,8.57,3.61,13.53,3.87l-.04.75Z"/><path class="cls-4" d="m262.31,423.93c.46.41,2.87,2.45,6.47,2.25,3.52-.2,5.65-2.39,6.09-2.85"/><path d="m268.28,426.57c-3.19,0-5.39-1.63-6.21-2.36l.5-.56c.62.55,2.9,2.33,6.2,2.16,3.13-.17,5.12-1.97,5.83-2.73l.55.51c-.78.83-2.94,2.78-6.34,2.97-.18,0-.35.01-.53.01Z"/><path class="cls-4" d="m295.58,415.74c.12-.07.74-.46.94-1.26.2-.78-.13-1.4-.2-1.53"/><path d="m295.78,416.06l-.39-.64c.14-.08.61-.41.77-1.03.15-.59-.06-1.08-.16-1.25l.65-.37c.14.26.46.95.24,1.81-.23.87-.85,1.33-1.11,1.49Z"/><path d="m152.61,551.11l-.97-.25c3.79-14.71,7.38-29.66,10.66-44.45,6.09-27.44,6.41-32.94,4.45-40.21-1.28-4.73-3.11-8.53-4.72-11.88-2.44-5.08-4.21-8.74-2.27-12.15,2.34-4.1,9.06-5.66,19.99-4.61l-.1,1c-10.49-1-16.89.38-19.02,4.11-1.68,2.95-.01,6.42,2.3,11.22,1.63,3.39,3.48,7.24,4.78,12.05,2.01,7.46,1.7,13.03-4.44,40.69-3.29,14.8-6.88,29.76-10.67,44.48Z"/><path class="cls-1" d="m125.33,584.78c-3.55-4.69-9.42-1.32-28.39-5.06-8.07-1.59-12.1-2.38-15.11-3.36-7.09-2.31-10.17-4.45-12.63-2.81-2.74,1.83-3.42,7.13-1.4,9.82,2.09,2.79,7.03,2.73,7.02,2.81-.02.09-5.54-2.14-8.42,0-2.39,1.78-3.15,6.7-1.4,9.82,3.01,5.4,11.9,2.6,32.27,4.21,16.9,1.33,22.47,4.18,26.66,0,3.73-3.72,4.53-11.31,1.4-15.43Z"/><path d="m117.79,602.9c-2.11,0-4.67-.34-7.95-.78-3.32-.45-7.45-1-12.62-1.41-7.03-.55-12.68-.58-17.21-.61-8.61-.04-13.35-.07-15.46-3.86-1.85-3.33-1.09-8.51,1.54-10.47.67-.5,1.5-.81,2.48-.95-.46-.34-.86-.73-1.18-1.16-1.09-1.46-1.51-3.66-1.13-5.91.35-2.05,1.32-3.74,2.65-4.63,2-1.33,4.28-.47,8.07.96,1.43.54,3.05,1.15,4.99,1.78,2.99.97,7.02,1.77,15.05,3.35,8.39,1.65,14.18,1.91,18.4,2.09,5.27.23,8.18.36,10.29,3.15,3.25,4.29,2.54,12.11-1.45,16.09-1.75,1.74-3.73,2.33-6.49,2.33Zm-48.04-17.16c-1.28,0-2.3.28-3.05.84-2.23,1.66-2.87,6.29-1.27,9.18,1.83,3.28,6.09,3.3,14.59,3.34,4.55.02,10.22.05,17.29.61,5.2.41,9.34.97,12.67,1.41,7.46,1,10.86,1.46,13.59-1.27,3.61-3.6,4.28-10.92,1.36-14.78h0c-1.83-2.42-4.41-2.53-9.54-2.76-4.26-.19-10.08-.44-18.55-2.11-8.07-1.59-12.12-2.39-15.17-3.38-1.96-.64-3.59-1.26-5.03-1.8-3.61-1.36-5.59-2.11-7.16-1.07-1.11.74-1.92,2.19-2.22,3.97-.33,1.95.03,3.92.94,5.14.53.71,1.32,1.28,2.34,1.71,1.2.09,2.56.36,4.08.83.08.02.15.04.2.06.19.03.29.07.4.21l.34.44-.48.29c-.14.09-.25.09-.44.04-.04,0-.09,0-.16-.01-1.63-.13-3.02-.43-4.17-.88-.19-.01-.38-.02-.56-.02Z"/><path class="cls-1" d="m193.05,566.61c-2.01-3.29-6.06-1.48-18.2-5.15-5.16-1.56-7.74-2.34-9.64-3.18-4.48-1.97-6.35-3.57-8.06-2.65-1.9,1.01-2.7,4.43-1.55,6.32,1.18,1.95,4.41,2.24,4.4,2.29-.02.06-3.48-1.76-5.49-.55-1.67,1-2.49,4.17-1.55,6.32,1.61,3.72,7.59,2.47,20.79,4.85,10.94,1.97,14.39,4.19,17.4,1.73,2.68-2.19,3.69-7.08,1.92-9.98Z"/><path d="m187.95,578.18c-1.58,0-3.52-.46-6.17-1.09-2.13-.51-4.79-1.13-8.14-1.74-4.54-.82-8.22-1.2-11.18-1.51-5.68-.6-8.81-.92-9.98-3.62-1.02-2.36-.15-5.8,1.76-6.95.4-.24.86-.39,1.38-.45-.17-.19-.33-.39-.45-.6-.64-1.06-.78-2.58-.37-4.07.38-1.36,1.15-2.44,2.12-2.95,1.47-.78,2.93-.05,5.36,1.15.9.45,1.91.95,3.13,1.49,1.87.82,4.44,1.6,9.57,3.15,5.38,1.63,9.13,2.17,11.87,2.56,3.48.5,5.39.78,6.63,2.81,1.88,3.08.89,8.24-2.03,10.63-1.05.86-2.14,1.2-3.5,1.2Zm-31.74-14.4c-.58,0-1.06.12-1.46.35-1.47.88-2.17,3.81-1.35,5.69.94,2.17,3.69,2.46,9.16,3.03,2.97.31,6.67.7,11.25,1.52,3.37.61,6.04,1.24,8.19,1.75,4.75,1.12,6.91,1.64,8.81.09,2.53-2.07,3.42-6.69,1.81-9.33h0c-.99-1.63-2.54-1.85-5.92-2.34-2.77-.4-6.57-.95-12-2.59-5.18-1.57-7.77-2.35-9.7-3.2-1.24-.55-2.27-1.06-3.18-1.51-2.38-1.18-3.47-1.68-4.45-1.16-.72.38-1.33,1.26-1.62,2.34-.33,1.21-.23,2.46.26,3.28.28.47.73.86,1.33,1.19.79.14,1.66.41,2.62.81.04.02.08.04.11.05.14.04.25.09.34.24l.29.48-.5.24c-.14.07-.26.06-.4.01l-.1-.02c-1.06-.19-1.96-.48-2.69-.85-.29-.04-.56-.07-.81-.07Z"/><path class="cls-7" d="m155.37,564.14c-3.88-1.63-5.15-2.83-7.76-2.46-6.36.89-12.28,9.92-10.22,14.76,2.74,6.43,19.51,5.26,19.49,5.49-.01.12-6.76-1.24-12.11-.38-17.49,2.81-34.87,31.7-26.88,46.16,4.33,7.83,15.43,10.39,34.43,14.39,24.3,5.11,28.52,1.63,54.68,5.12,30.97,4.14,36.61,9.11,44.09,3.6,10.21-7.52,11.19-28.52,3.6-34.63-3.8-3.06-7.68-.73-30.84-1.71-8.44-.36-11.69-.83-14.38-3.41-4.73-4.54-5.51-13.48-2.64-19.3.32-.65,1.32-2.09,3.41-4.92,6.13-8.32,6.87-8.64,6.81-9.84-.25-5.35-15.6-12.58-24.6-7.57-6.5,3.62-7.88,12.61-9.84,12.11-1.7-.44.97-6.85-2.46-11.16-4.23-5.33-11.59-.72-24.79-6.25Z"/><path d="m243.66,653.75c-3.06,0-6.83-.76-12.19-1.84-5.73-1.16-13.59-2.74-24.53-4.2-11.56-1.54-18.94-1.73-25.45-1.89-8.42-.21-15.69-.39-29.27-3.24-19.84-4.17-30.39-6.71-34.77-14.63-3.34-6.05-2.62-14.95,1.99-24.41,4.71-9.67,14-20.16,24.35-22.32-3.13-.82-5.85-2.21-6.86-4.59-.91-2.14-.45-5.12,1.26-8.16,2.23-3.95,5.9-6.81,9.35-7.29,2.05-.28,3.38.35,5.39,1.3.75.36,1.59.76,2.63,1.19h0c6.43,2.7,11.43,2.95,15.44,3.16,4.22.21,7.27.37,9.55,3.25,2.14,2.69,2.03,6.05,1.96,8.5-.03,1.02-.08,2.41.23,2.49.44.12,1.26-1.55,1.94-2.87,1.42-2.78,3.56-6.98,7.54-9.19,5.82-3.24,14.01-1.58,19.54,1.5,3.53,1.96,5.7,4.39,5.79,6.49.05.98-.32,1.46-2.38,4.15-1.04,1.36-2.47,3.22-4.53,6.01-2.09,2.84-3.06,4.24-3.36,4.84-2.63,5.34-2.23,14.14,2.54,18.72,2.51,2.41,5.56,2.91,14.05,3.27,9.57.41,15.96.24,20.18.13,6.24-.16,8.58-.22,10.95,1.69,3.38,2.72,5.31,8.4,5.16,15.2-.15,6.75-2.53,15.61-8.78,20.22-2.46,1.81-4.77,2.52-7.74,2.52Zm-96.87-71.92c-.66.04-1.31.11-1.93.21-8.97,1.44-18.82,10.26-24.5,21.93-4.46,9.17-5.2,17.73-2.01,23.49,4.17,7.54,14.56,10.04,34.1,14.14,13.49,2.83,20.72,3.01,29.09,3.22,6.53.16,13.94.34,25.56,1.9,10.97,1.47,18.84,3.05,24.59,4.21,10.54,2.12,14.48,2.92,19.13-.51,5.96-4.39,8.24-12.92,8.38-19.43.14-6.49-1.65-11.87-4.79-14.4-2.08-1.68-4.15-1.62-10.3-1.47-4.24.11-10.64.27-20.25-.13-8.18-.35-11.8-.76-14.71-3.55-5.09-4.89-5.53-14.22-2.75-19.88.33-.67,1.3-2.07,3.45-5,2.07-2.8,3.5-4.67,4.54-6.03,1.99-2.59,2.21-2.9,2.18-3.49-.08-1.72-2.11-3.89-5.28-5.66-5.12-2.85-13.11-4.53-18.57-1.5-3.71,2.06-5.69,5.94-7.13,8.77-1.13,2.22-1.88,3.69-3.07,3.38-1.09-.28-1.04-1.62-.99-3.49.07-2.3.17-5.44-1.74-7.85-2-2.52-4.71-2.66-8.82-2.87-4.09-.21-9.18-.47-15.77-3.23h0c-1.06-.44-1.92-.85-2.67-1.21-1.98-.94-3.06-1.46-4.82-1.21-3.15.44-6.53,3.11-8.61,6.79-1.54,2.73-2,5.45-1.22,7.27.97,2.28,4.02,3.81,9.08,4.57,3.7-.22,7.53.3,9.15.53.15.02.28.04.39.05.59,0,.65.04.78.19l.15.16-.04.44-.17.14c-.16.13-.21.15-.79.07-.18,0-.42,0-.66,0-1.84,0-5.4-.01-8.96-.56Z"/><path class="cls-8" d="m114.48,642.09c1.62,4.4,5.33,6.78,7,7.76,13.06,7.7,36.34,9.59,44.46,10.42,20.77,2.1,56.76,8.74,73.41,6.45.64-.09,3.03-.44,5.68-1.89,7.71-4.22,12.39-14.89,9.46-18.92-1.87-2.58-6.05-1.33-14.76-.76-9.71.63-6.61-.79-41.44-3.23-12.02-.84-12.9-.71-22.53-1.5-9.66-.8-17.58-1.67-22.88-2.29h0c-16.42-4.48-17.93-4.02-23.46-6.06-8.01-2.95-9-5.46-11.54-4.35-3.81,1.66-5.4,8.97-3.41,14.38Z"/><path d="m231.06,667.69c-12.35,0-29.36-2.29-44.74-4.37-7.5-1.01-14.58-1.97-20.43-2.56l-1.55-.15c-9.19-.9-30.71-3.02-43.12-10.33-3.61-2.13-6.04-4.83-7.21-8.02-2.15-5.84-.33-13.27,3.68-15.01,1.66-.72,2.77-.1,4.79,1.03,1.54.86,3.66,2.04,7.12,3.32,2.73,1.01,4.46,1.39,7.58,2.09,3.21.72,7.62,1.71,15.84,3.95,7.44.87,15.13,1.64,22.79,2.27,5.44.45,8.12.61,11.52.8,2.65.15,5.77.33,11.01.7,17.38,1.21,25.36,2.18,30.12,2.76,4.81.58,6.42.78,11.25.46,2.05-.13,3.85-.31,5.43-.46,5.26-.5,8.17-.78,9.76,1.42,1.01,1.4,1.24,3.49.67,6.05-.98,4.38-4.63,10.5-10.3,13.61-1.8.99-3.88,1.68-5.85,1.95-2.42.33-5.25.48-8.37.48Zm-112.01-39.74c-.31,0-.62.07-.96.22-3.51,1.52-5.09,8.46-3.14,13.75,1.1,2.97,3.38,5.49,6.78,7.5,12.21,7.2,33.58,9.3,42.71,10.2l1.55.15c5.87.59,12.96,1.55,20.46,2.56,19.19,2.59,40.95,5.52,52.84,3.89,1.85-.25,3.81-.9,5.5-1.83,5.4-2.96,8.87-8.79,9.8-12.95.5-2.24.33-4.1-.5-5.24-1.26-1.74-3.96-1.48-8.86-1.01-1.59.15-3.4.32-5.46.46-4.91.32-6.56.12-11.43-.47-4.76-.58-12.72-1.54-30.07-2.76-5.23-.37-8.35-.55-10.99-.7-3.41-.2-6.1-.35-11.54-.81-7.67-.64-15.37-1.41-22.9-2.29-8.27-2.25-12.66-3.24-15.87-3.95-3.17-.71-4.91-1.1-7.71-2.13-3.54-1.3-5.69-2.5-7.27-3.38-1.44-.8-2.21-1.21-2.94-1.21Z"/><path class="cls-4" d="m180.91,584.02c3.89-5.93,27.12-2.07,27.81,3.98.15,1.34-.94,1.58-1.89,3.78-3.23,7.43,5.1,14.02,2.64,19.3-2.32,4.99-12.46,4.9-16.84,4.35-3.35-.42-9.47-1.2-12.68-5.87-2.34-3.4-2.12-7.75-1.7-16.46.04-.87.14-2.26.57-3.97.66-2.65,1.75-4.6,2.08-5.11Z"/><path d="m197.06,616.18c-2.44,0-4.29-.22-4.49-.25-3.39-.43-9.69-1.23-13.03-6.08-2.43-3.54-2.21-7.96-1.79-16.77.05-1.01.16-2.39.58-4.07.64-2.54,1.68-4.55,2.15-5.26,2.42-3.69,11.46-3.84,18.75-2.11,5.96,1.41,9.69,3.77,9.98,6.31.11.95-.3,1.49-.77,2.12-.34.45-.76,1.01-1.16,1.92-1.65,3.8-.13,7.36,1.35,10.8,1.29,3.02,2.52,5.87,1.29,8.52-1.92,4.13-8.38,4.88-12.86,4.88Zm-6.77-34.62c-4.17,0-7.72.83-8.97,2.74h0s-1.26,1.95-2.02,4.96c-.4,1.6-.51,2.91-.55,3.88-.42,8.59-.63,12.89,1.61,16.16,3.08,4.49,9.09,5.25,12.33,5.66,4.72.6,14.2.51,16.33-4.06,1.04-2.24-.05-4.77-1.3-7.7-1.49-3.47-3.17-7.39-1.35-11.59.44-1.02.91-1.63,1.28-2.12.46-.6.64-.87.58-1.41-.23-2.04-3.85-4.17-9.22-5.45-2.83-.67-5.91-1.05-8.71-1.05Z"/><path d="m195.77,615.69c-11.17,0-21.98-1.77-32.25-5.28-3.48-1.19-6.94-2.6-10.27-4.19l.43-.9c3.3,1.57,6.72,2.96,10.16,4.14,13.33,4.56,27.58,6.15,42.36,4.71l.1,1c-3.54.34-7.06.51-10.54.51Z"/><path d="m206.19,596.64c-7.68-.94-15.28-1.75-22.59-2.41-2-.18-3.87-.34-5.6-.48l.08-1c1.73.14,3.61.3,5.61.48,7.32.66,14.94,1.47,22.63,2.41l-.12.99Z"/><path d="m209.29,606.64c-4.52-2.03-9.38-3.36-14.44-3.96-5.6-.67-11.37-.39-16.69.81l-.22-.98c5.43-1.22,11.32-1.51,17.03-.82,5.17.61,10.13,1.97,14.74,4.04l-.41.91Z"/><path class="cls-7" d="m72.72,584.25c-3.95-1.66-5.24-2.88-7.89-2.5-6.48.9-12.5,10.09-10.4,15.02,2.79,6.54,19.85,5.35,19.83,5.59-.01.12-6.88-1.26-12.32-.39-17.79,2.86-35.48,32.26-27.35,46.98,4.41,7.97,15.7,10.58,35.04,14.64,24.73,5.2,29.02,1.65,55.64,5.21,31.52,4.21,37.25,9.27,44.86,3.67,10.39-7.65,11.39-29.02,3.67-35.23-3.86-3.11-7.82-.74-31.38-1.74-8.59-.36-11.9-.84-14.63-3.47-4.81-4.62-5.6-13.72-2.69-19.64.32-.66,1.34-2.13,3.47-5.01,6.24-8.46,6.99-8.79,6.93-10.01-.26-5.44-15.87-12.8-25.03-7.71-6.61,3.68-8.01,12.83-10.01,12.32-1.73-.44.99-6.97-2.5-11.36-4.3-5.42-11.79-.73-25.22-6.36Z"/><path d="m162.56,675.43c-3.12,0-6.95-.77-12.4-1.87-5.83-1.17-13.83-2.79-24.96-4.27-11.77-1.57-19.27-1.76-25.9-1.92-8.57-.21-15.96-.39-29.78-3.3-20.18-4.24-30.92-6.83-35.38-14.89-3.4-6.16-2.66-15.21,2.03-24.84,4.8-9.85,14.26-20.53,24.81-22.71-3.19-.83-5.98-2.25-7.01-4.67-.93-2.18-.46-5.2,1.29-8.29,2.27-4.01,6-6.93,9.5-7.42,2.08-.29,3.43.35,5.48,1.32.76.36,1.62.77,2.68,1.21h0c6.55,2.75,11.63,3,15.71,3.21,4.29.22,7.39.38,9.71,3.3,2.17,2.74,2.07,6.15,1.99,8.64-.03,1.04-.08,2.46.25,2.54.44.1,1.29-1.57,1.98-2.93,1.44-2.83,3.62-7.1,7.67-9.35,5.92-3.3,14.25-1.61,19.88,1.52,3.59,2,5.79,4.46,5.89,6.6.05.99-.33,1.49-2.42,4.21-1.06,1.38-2.51,3.27-4.61,6.12-2.13,2.89-3.12,4.32-3.42,4.93-2.67,5.44-2.27,14.39,2.59,19.06,2.56,2.46,5.66,2.96,14.31,3.33,9.74.41,16.24.25,20.54.14,6.35-.16,8.73-.22,11.14,1.71,3.44,2.77,5.4,8.55,5.25,15.46-.15,6.87-2.57,15.88-8.93,20.57-2.51,1.85-4.85,2.57-7.87,2.57Zm-98.58-73.19c-.67.04-1.33.12-1.97.22-9.13,1.47-19.15,10.44-24.94,22.33-4.54,9.33-5.29,18.05-2.05,23.91,4.24,7.68,14.82,10.21,34.71,14.39,13.73,2.88,21.08,3.07,29.6,3.28,6.65.16,14.19.35,26.01,1.93,11.17,1.49,19.17,3.1,25.02,4.28,10.72,2.16,14.73,2.97,19.48-.52,6.07-4.47,8.39-13.15,8.53-19.78.14-6.61-1.68-12.09-4.88-14.66-2.12-1.71-4.23-1.65-10.48-1.49-4.31.11-10.83.28-20.61-.14-8.33-.35-12.01-.78-14.96-3.61-5.18-4.97-5.62-14.47-2.79-20.22.33-.68,1.32-2.1,3.51-5.08,2.1-2.85,3.56-4.75,4.62-6.13,2.03-2.64,2.25-2.95,2.22-3.56-.08-1.76-2.14-3.97-5.38-5.77-5.21-2.9-13.35-4.62-18.91-1.53-3.78,2.1-5.79,6.05-7.26,8.93-1.15,2.26-1.92,3.75-3.12,3.44-1.1-.28-1.06-1.65-1-3.54.07-2.34.17-5.54-1.77-7.99-2.04-2.57-4.8-2.71-8.98-2.92-4.16-.21-9.34-.48-16.05-3.29h0c-1.08-.45-1.95-.87-2.72-1.23-2.01-.96-3.13-1.48-4.91-1.24-3.21.45-6.65,3.16-8.77,6.92-1.57,2.78-2.03,5.54-1.24,7.41.99,2.32,4.09,3.88,9.25,4.66,3.76-.22,7.66.31,9.31.53.15.02.28.04.39.05.59,0,.66.04.79.19l.15.16-.04.44-.17.14c-.16.13-.22.15-.8.07-.19,0-.43,0-.67,0-1.88,0-5.5-.02-9.12-.57Z"/><path class="cls-8" d="m31.11,663.57c1.65,4.47,5.43,6.9,7.12,7.9,13.29,7.84,36.98,9.76,45.25,10.6,21.13,2.14,57.75,8.89,74.71,6.56.65-.09,3.08-.45,5.78-1.92,7.85-4.3,12.61-15.15,9.63-19.25-1.91-2.63-6.16-1.35-15.02-.77-9.88.64-6.72-.81-42.17-3.28-12.24-.86-13.13-.72-22.93-1.53-9.83-.82-17.89-1.7-23.28-2.33h0c-16.71-4.56-18.24-4.09-23.87-6.17-8.16-3.01-9.16-5.55-11.74-4.43-3.88,1.68-5.5,9.13-3.47,14.63Z"/><path d="m149.73,689.61c-12.57,0-29.88-2.33-45.52-4.45-7.63-1.03-14.83-2-20.79-2.6l-1.57-.16c-9.35-.92-31.26-3.07-43.88-10.51-3.67-2.17-6.14-4.91-7.34-8.15-2.19-5.93-.34-13.5,3.74-15.26,1.68-.73,2.81-.1,4.87,1.05,1.57.88,3.73,2.08,7.25,3.38,2.78,1.02,4.53,1.42,7.71,2.13,3.27.73,7.75,1.74,16.12,4.02,7.58.89,15.41,1.67,23.19,2.31,5.52.46,8.25.62,11.71.82,2.7.16,5.88.34,11.22.71,17.69,1.24,25.81,2.22,30.66,2.81,4.89.59,6.54.79,11.44.47,2.09-.14,3.92-.31,5.53-.46,5.36-.51,8.3-.79,9.93,1.44,1.03,1.42,1.26,3.54.68,6.14-1,4.45-4.71,10.68-10.47,13.84-1.85,1.02-3.91,1.7-5.95,1.98-2.47.34-5.34.49-8.52.49Zm-118.15-26.21c1.12,3.02,3.44,5.59,6.91,7.64,12.44,7.33,34.18,9.46,43.47,10.38l1.57.16c5.97.6,13.18,1.58,20.82,2.61,19.53,2.64,41.67,5.62,53.77,3.96,1.89-.26,3.88-.92,5.61-1.87,5.5-3.01,9.03-8.95,9.98-13.18.51-2.28.33-4.17-.51-5.34-1.29-1.78-4.03-1.51-9.02-1.04-1.62.16-3.46.33-5.56.47-5,.33-6.67.12-11.63-.48-4.84-.59-12.94-1.57-30.61-2.8-5.33-.37-8.51-.56-11.21-.71-3.46-.2-6.2-.36-11.73-.82-7.79-.65-15.63-1.43-23.3-2.33-8.42-2.29-12.89-3.29-16.15-4.02-3.22-.72-5-1.12-7.84-2.17-3.6-1.33-5.79-2.55-7.39-3.44-1.95-1.09-2.75-1.53-3.98-1-3.57,1.55-5.18,8.62-3.2,14Z"/><path class="cls-4" d="m98.71,604.47c3.96-6.04,27.6-2.11,28.3,4.05.16,1.36-.95,1.61-1.93,3.85-3.28,7.56,5.19,14.27,2.69,19.64-2.36,5.08-12.68,4.99-17.14,4.42-3.41-.43-9.63-1.22-12.9-5.97-2.38-3.46-2.16-7.89-1.73-16.75.04-.89.14-2.3.58-4.04.67-2.69,1.78-4.68,2.12-5.2Z"/><path d="m115.15,637.19c-2.48,0-4.37-.23-4.58-.25-3.44-.44-9.86-1.25-13.25-6.18-2.47-3.6-2.25-8.1-1.82-17.06.05-1.02.16-2.42.59-4.14.65-2.58,1.71-4.63,2.19-5.35h0c2.46-3.75,11.66-3.91,19.07-2.15,6.06,1.44,9.85,3.84,10.15,6.41.11.96-.31,1.51-.79,2.15-.35.46-.78,1.03-1.18,1.95-1.68,3.87-.13,7.49,1.37,10.99,1.32,3.07,2.56,5.97,1.31,8.66-1.95,4.2-8.52,4.96-13.08,4.96Zm-16.03-32.44s-1.29,2-2.05,5.04c-.41,1.64-.52,2.97-.56,3.95-.42,8.74-.64,13.12,1.64,16.44,3.14,4.57,9.26,5.34,12.55,5.76,4.8.61,14.46.52,16.62-4.14,1.06-2.28-.05-4.86-1.33-7.84-1.51-3.53-3.22-7.52-1.37-11.79.45-1.04.92-1.66,1.3-2.16.47-.62.65-.89.59-1.43-.24-2.08-3.92-4.26-9.38-5.55-7.18-1.7-15.88-1.53-18,1.72h0Z"/><path d="m113.83,636.69c-11.36,0-22.36-1.8-32.81-5.37-3.54-1.21-7.06-2.65-10.45-4.26l.43-.9c3.36,1.6,6.84,3.02,10.34,4.22,13.57,4.64,28.07,6.26,43.11,4.8l.1,1c-3.61.35-7.18.52-10.72.52Z"/><path d="m124.43,617.31c-7.82-.96-15.56-1.78-22.99-2.45-2.04-.18-3.94-.34-5.7-.49l.08-1c1.76.14,3.67.3,5.71.49,7.45.67,15.19,1.49,23.02,2.45l-.12.99Z"/><path d="m127.59,627.48c-4.6-2.06-9.54-3.42-14.7-4.04-5.7-.68-11.57-.39-16.99.82l-.22-.98c5.52-1.24,11.52-1.53,17.32-.84,5.26.62,10.3,2.01,14.99,4.12l-.41.91Z"/><path class="cls-8" d="m117.89,259.11c-.82-.32-2.92,1.92-3.5,4.5-.28,1.23-.67,4.56,4,10,5.15,6,11.25,8.51,20,12,14.16,5.64,21.23,8.48,23,9,9.87,2.92,21.41,6.23,36,5,11.36-.96,15.58-3.91,17.5-5.5.9-.75,6.74-5.79,8-14,1.71-11.11-6.24-21.61-6.5-21.5-.1.04.84,1.79,2,6,1.22,4.43,2.24,8.19,2,12-.44,6.88-4.89,11.88-6.5,13.5-6.83,6.87-16.35,7.01-24,7-8.56,0-15.04-1.97-28-6-8.52-2.65-13.84-4.93-24.5-9.5-13.8-5.92-18.38-8.81-19.5-13.5-1.01-4.22,1.09-8.58,0-9Z"/><path d="m191.12,300.13c-11.99,0-21.74-2.89-29.8-5.27-1.64-.49-7.76-2.93-19.96-7.79l-3.06-1.22c-8.27-3.3-14.81-5.9-20.1-12.07-3.29-3.84-4.7-7.37-4.05-10.22.47-2.08,1.9-3.98,2.96-4.54.34-.18.63-.23.87-.13h0c.68.26.51,1.3.26,2.88-.27,1.7-.65,4.03-.11,6.29,1.06,4.4,5.22,7.27,19.36,13.33,10.63,4.56,15.97,6.85,24.48,9.49,12.41,3.86,19.25,5.98,27.93,5.99,7.16,0,16.92.01,23.82-6.93,1.79-1.8,6-6.71,6.43-13.34.24-3.77-.79-7.55-1.99-11.92-.78-2.85-1.46-4.56-1.79-5.38-.25-.64-.32-.81-.07-.92l.14-.06.17.11c.68.53,8.22,10.84,6.54,21.71-1.25,8.11-6.96,13.21-8.09,14.15-1.35,1.12-5.46,4.53-17.64,5.56-2.16.18-4.26.27-6.29.27Zm-73.4-40.79c-.1,0-.23.04-.37.12-.84.45-2.25,2.17-2.71,4.21-.61,2.68.76,6.07,3.95,9.78,5.21,6.08,11.69,8.66,19.9,11.93l3.06,1.22c12.18,4.85,18.29,7.29,19.92,7.77,9.39,2.78,21.07,6.24,35.91,4.99,12.03-1.01,16.04-4.35,17.36-5.44,1.11-.92,6.69-5.91,7.91-13.85,1.35-8.77-3.47-17.25-5.51-20.18.37.97.91,2.49,1.5,4.65,1.21,4.41,2.25,8.23,2.01,12.08-.44,6.8-4.74,11.82-6.57,13.66-7.05,7.09-16.93,7.06-24.18,7.07-8.75,0-15.62-2.14-28.07-6.01-8.53-2.65-13.87-4.94-24.52-9.51-13.46-5.77-18.45-8.71-19.64-13.67-.57-2.36-.18-4.75.1-6.49.18-1.09.36-2.22.05-2.34h0s-.05-.01-.08-.01Z"/><path class="cls-5" d="m185.82,287.54c-4.32,1.26-6.51,4.82-7.94,7.14-1.1,1.78-4.18,6.79-3.17,13.49.3,2.02,1.29,8.57,7.14,11.9.5.28,6.06,3.33,11.9.79,5.28-2.29,7-7.5,7.94-10.32.56-1.69,2.66-8.38-.79-15.08-.78-1.52-3.32-6.44-8.73-7.94-3.19-.88-5.84-.15-6.35,0Z"/><path d="m188.85,322.13c-3.76,0-6.69-1.58-7.12-1.83-5.96-3.4-6.94-9.94-7.27-12.08-1.02-6.79,2.05-11.78,3.21-13.66,1.46-2.38,3.67-5.96,8.08-7.25h0c.95-.28,3.48-.83,6.49,0,5.51,1.53,8.05,6.44,8.88,8.06,2.31,4.47,2.59,9.89.81,15.27-.94,2.84-2.7,8.13-8.07,10.47-1.73.75-3.44,1.03-5,1.03Zm-2.96-34.35c-4.23,1.24-6.37,4.72-7.79,7.03-1.13,1.84-4.13,6.72-3.14,13.33.31,2.09,1.27,8.45,7.02,11.72.6.34,5.99,3.26,11.68.78,5.17-2.25,6.88-7.4,7.8-10.16,1.74-5.25,1.47-10.54-.78-14.89-.81-1.57-3.27-6.34-8.57-7.81-2.88-.8-5.3-.27-6.21,0h0Z"/><path d="m183.23,320.8c-2.19-1.81-3.99-4.12-5.2-6.66-.2-.43-1.98-4.31-1.89-9.04.19-9.8,8.45-16.46,10.1-17.7l.3.4c-1.62,1.21-9.71,7.73-9.9,17.3-.09,4.69,1.76,8.65,1.84,8.81,1.18,2.48,2.93,4.72,5.07,6.49l-.32.38Z"/><rect class="cls-7" x="186.39" y="291.61" width="4" height="28.5"/><path class="cls-7" d="m189.71,309.25c-.54,0-1.07-.04-1.61-.12l.58-3.96c1.97.29,3.94-.26,5.4-1.52,1.13-.98,1.81-2.25,1.81-3.41s-.68-2.43-1.81-3.41c-1.46-1.26-3.43-1.82-5.4-1.52l-.58-3.96c3.12-.46,6.25.43,8.59,2.45,2.03,1.75,3.2,4.1,3.2,6.43s-1.17,4.68-3.2,6.43c-1.94,1.67-4.42,2.57-6.98,2.57Z"/><path class="cls-4" d="m224.56,82.96c7.59,10.19,7.03,28.21,6.81,35.19-.25,8-1.57,11.09-2.27,24.19-.68,12.77.11,18.34,0,24.19-.12,6.33-1.67,36.3-24.96,52.79-2.59,1.83-21.12,14.5-44.49,8.78-3.28-.8-20.39-4.99-30.24-20.16-14.49-22.31-4.05-54.18-10.08-55.44-1.29-.27-1.61,1.2-5.04,2.52-4.99,1.93-12.78,1.97-17.64-2.52-5.99-5.53-4.75-14.9-2.52-20.16,3.95-9.32,15.07-15.35,20.16-12.6,4.18,2.26,3.84,10.21,5.04,10.08.95-.1.32-5.09,2.52-12.6,1.06-3.62,1.54-4.33,2.52-7.56,2.12-7.02,2.43-12.26,2.62-13.5,2.29-14.43,77.72-39.83,97.57-13.2Z"/><path d="m171.78,230.06c-3.89,0-7.99-.43-12.25-1.48-7.69-1.88-21.88-7.03-30.54-20.38-8.95-13.79-8.48-31.24-8.16-42.78.18-6.73.33-12.04-1.6-12.44-.41-.08-.64.07-1.32.58-.7.52-1.66,1.24-3.44,1.92-5.37,2.08-13.33,1.84-18.16-2.62-6.49-5.99-4.71-15.85-2.64-20.72,2.77-6.54,8.79-11.13,13.51-12.79,2.91-1.02,5.52-1.04,7.34-.05,2.85,1.54,3.72,5.41,4.29,7.98.14.62.3,1.34.45,1.77.11-.47.2-1.33.29-2.17.24-2.24.59-5.62,1.81-9.8.57-1.95.98-3.08,1.38-4.17.34-.94.69-1.9,1.15-3.4,1.74-5.76,2.24-10.26,2.49-12.42.05-.45.09-.79.12-1.01,1.11-6.97,18.54-16.52,39.68-21.72,10.43-2.57,45.47-9.56,58.79,8.31,7.7,10.33,7.12,28.62,6.91,35.5-.12,3.78-.48,6.48-.89,9.61-.47,3.59-1.01,7.66-1.38,14.6-.44,8.31-.26,13.6-.11,17.84.08,2.3.15,4.29.11,6.34-.17,8.41-2.47,37.11-25.17,53.18-2.83,2-15.63,10.33-32.65,10.33Zm-52.75-78.1c.13,0,.26.01.4.04,2.75.58,2.61,5.7,2.4,13.45-.31,11.42-.78,28.68,8,42.21,8.48,13.06,22.4,18.1,29.94,19.95,22.49,5.5,40.67-6.28,44.08-8.7,22.32-15.81,24.59-44.09,24.75-52.39.04-2.02-.03-4-.11-6.28-.15-4.26-.33-9.57.11-17.93.37-6.97.91-11.06,1.39-14.67.41-3.1.76-5.78.88-9.51.21-6.79.78-24.83-6.71-34.88-3.27-4.39-17.11-17.94-57.74-7.94-20.44,5.03-37.9,14.41-38.93,20.91-.03.21-.07.53-.12.97-.24,2.19-.75,6.75-2.52,12.6-.46,1.52-.82,2.5-1.16,3.45-.39,1.07-.8,2.19-1.36,4.1-1.19,4.09-1.54,7.42-1.77,9.62-.23,2.23-.34,3.25-1.17,3.34-.89.09-1.13-1-1.54-2.82-.54-2.39-1.34-5.99-3.79-7.31-1.57-.85-3.9-.81-6.54.12-4.52,1.58-10.27,5.98-12.92,12.24-1.83,4.32-3.69,13.97,2.4,19.6,4.53,4.18,12.04,4.39,17.12,2.42,1.65-.64,2.55-1.3,3.2-1.79.59-.44,1.07-.79,1.72-.79Z"/><path class="cls-6" d="m169.73,142.42c-8.4-.84-16.8-1.68-25.2-2.52-.26-2.43-.44-5.93,0-10.08.59-5.54,1.8-16.91,10.08-22.68,1.32-.92,7.44-5.19,12.6-2.52,3.76,1.94,4.81,6.42,5.04,7.56"/><path d="m169.68,142.91l-25.61-2.56-.04-.4c-.36-3.39-.36-6.81,0-10.19.59-5.56,1.83-17.14,10.29-23.04,4.95-3.46,9.61-4.36,13.12-2.55,3.72,1.92,4.95,6.17,5.3,7.9l-.98.2c-.33-1.6-1.44-5.49-4.78-7.22-3.16-1.63-7.45-.75-12.08,2.49-8.09,5.64-9.29,16.91-9.87,22.32-.34,3.17-.35,6.39-.04,9.57l24.8,2.48-.1,1Z"/><path class="cls-6" d="m190.26,141.36c8.44-.09,16.88-.18,25.33-.27.47-2.4.97-5.86.9-10.04-.1-5.57-.3-17-8.03-23.49-1.24-1.04-6.95-5.83-12.33-3.63-3.92,1.6-5.36,5.97-5.69,7.08"/><path d="m190.26,141.86v-1s24.91-.27,24.91-.27c.59-3.15.87-6.35.81-9.54-.1-5.45-.29-16.78-7.85-23.11-4.33-3.63-8.53-4.89-11.82-3.55-3.48,1.42-4.94,5.2-5.4,6.76l-.96-.29c.51-1.7,2.1-5.82,5.98-7.4,3.65-1.49,8.21-.17,12.84,3.71,7.9,6.63,8.11,18.27,8.21,23.86.06,3.39-.25,6.81-.91,10.15l-.08.4-25.73.27Z"/><path class="cls-6" d="m181.23,149.77c10.94,6.85,14.99,16.33,12.6,20.16-2.19,3.51-10.84,3.98-20.16,0"/><path d="m186.16,173.26c-3.7,0-8.19-.96-12.69-2.87l.39-.92c9.29,3.96,17.61,3.3,19.54.2,1.11-1.78.61-5.02-1.32-8.44-2.27-4.04-6.22-7.96-11.13-11.03l.53-.85c8.74,5.48,16.06,15.56,12.76,20.85-1.27,2.04-4.26,3.07-8.1,3.07Z"/><circle class="cls-2" cx="163.68" cy="129.59" r="6.53"/><circle class="cls-2" cx="201.72" cy="129.83" r="6.53"/><path class="cls-11" d="m231.47,90.75c3.77-.65,5.84-6.57,6.26-7.75.99-2.76,1-5.21.89-6.71.81.95,4.31,4.86,9.75,5.1,5.69.25,11.84-3.59,12.19-7.64.35-4.06-5.33-5.73-4.88-10.19.32-3.09,3.14-3.23,4.88-7.64.17-.44,2.49-6.54,0-10.19-3.38-4.96-12.74-1.11-14.63-5.1-1.41-2.97,3.39-5.92,2.44-10.19-1.14-5.11-9.92-9.34-17.07-7.64-8.37,1.99-11.89,11.47-14.63,10.19-2.34-1.09.81-7.75-2.44-12.74-4.04-6.21-16.76-7.91-24.39-2.55-8.2,5.76-7.91,17.84-12.19,17.83-3.39,0-3.62-7.55-9.75-10.19-6.11-2.63-13.24,1.7-14.63,2.55-9.35,5.68-10.16,15.6-14.63,15.29-4.22-.3-4.88-9.25-9.75-10.19-4.23-.82-5,7.73-12.19,10.19-5.89,2.01-9.81-1.86-13.41,1.27-2.02,1.75-3.18,5.05-2.44,7.64,1.64,5.73,12.32,7.12,12.19,7.64-.14.59-12.56-5.1-21.95,0-4.07,2.21-8.11,6.76-7.32,10.19,1.17,5.06,12.38,5.74,12.19,7.64-.17,1.66-8.6-.09-14.63,5.1-4.11,3.53-6.75,9.98-4.88,12.74,3.18,4.67,18.75-2.09,19.51,0,.68,1.88-12.22,6.17-12.19,12.74.02,3.48,3.67,7.25,7.32,7.64,7.06.76,12.78-11.3,14.63-10.19,1.91,1.14-4.24,14.09-2.44,15.29,1.08.72,5-2.79,14.63-15.29-.79,4.29-1.58,8.58-2.37,12.88l7.56,7.56c.52-12.27,4.4-20.36,7.56-25.2,14.89-22.84,51.34-31.31,90.73-20.16,1.86,6.76,6.59,10.69,10.08,10.08Z"/><path d="m123.44,126.9l-8.3-8.3,2.13-11.55c-10.62,13.67-13.14,14.84-14.19,14.15-1.07-.71-.29-3.49,1.08-7.97.83-2.74,2.1-6.88,1.38-7.31-.43-.25-1.92,1.48-3.11,2.88-2.85,3.32-6.76,7.86-11.36,7.37-3.84-.42-7.63-4.38-7.65-8.01-.02-4.33,5.11-7.59,8.85-9.97,1.48-.94,3.51-2.23,3.36-2.65-.19-.52-3.5.18-5.7.65-5.21,1.1-11.7,2.48-13.77-.56-2.14-3.14.96-9.81,4.94-13.23,3.85-3.31,8.57-3.85,11.7-4.21,1.24-.14,2.77-.32,2.81-.64.04-.45-2.01-1.13-3.51-1.63-3.34-1.11-7.92-2.62-8.68-5.89-.83-3.58,3.25-8.29,7.5-10.61,5.17-2.81,11.17-2.43,15.66-1.56-2.66-1.17-5.31-2.93-6.08-5.65-.76-2.65.34-6.11,2.55-8.03,2.04-1.77,4.22-1.44,6.54-1.08,2.02.31,4.31.66,7-.26,3.6-1.23,5.58-4.11,7.18-6.42,1.57-2.27,2.91-4.23,5.21-3.79,2.65.51,4.07,3.13,5.45,5.65,1.23,2.26,2.39,4.4,4.26,4.53,1.86.12,3.11-1.88,4.81-4.67,1.93-3.17,4.58-7.51,9.6-10.56,5.6-3.4,10.92-4.32,14.97-2.57,3.43,1.48,5.06,4.41,6.38,6.77,1.06,1.89,1.89,3.39,3.23,3.39h0c1.71,0,2.69-2.48,3.92-5.62,1.57-3.99,3.52-8.96,8.05-12.14,4.1-2.88,9.87-3.96,15.46-2.88,4.26.82,7.71,2.84,9.46,5.53,1.84,2.82,1.7,6.08,1.59,8.71-.08,1.96-.15,3.51.69,3.9.94.44,2.25-1.01,3.92-2.85,2.37-2.62,5.63-6.22,10.47-7.37,4.12-.98,9.08-.09,12.92,2.31,2.5,1.57,4.14,3.56,4.6,5.61.52,2.32-.54,4.25-1.48,5.95-.85,1.55-1.59,2.88-.98,4.16.8,1.68,3.19,1.8,5.97,1.94,3.16.16,6.75.34,8.63,3.1,2.57,3.77.31,9.86.04,10.54-.89,2.26-2.07,3.45-3.02,4.42-.94.95-1.68,1.7-1.83,3.13-.22,2.13,1.06,3.56,2.42,5.08,1.3,1.46,2.65,2.97,2.46,5.1-.37,4.21-6.71,8.23-12.58,7.99-4.46-.19-7.68-2.77-9.31-4.45.03,2.01-.29,3.96-.96,5.81-2.18,6.05-4.76,7.68-6.55,7.99h0c-3.48.61-8.44-3.1-10.45-10.15-38.94-10.96-75.13-2.91-90.11,20.06-4.57,7.01-7.09,15.42-7.5,25.01l-.04.85Zm-7.49-8.56l6.82,6.82c.52-9.37,3.07-17.63,7.58-24.54,15.18-23.29,51.81-31.45,91.14-20.32l.2.06.06.2c1.86,6.77,6.47,10.37,9.66,9.81h0c2.25-.39,4.37-3.03,5.95-7.44.77-2.14,1.06-4.35.89-6.62l-.09-1.15.75.88c1.21,1.42,4.55,4.75,9.48,4.96.17,0,.34.01.52.01,5.36,0,10.96-3.57,11.29-7.31.16-1.81-1.02-3.14-2.27-4.54-1.4-1.57-2.85-3.2-2.6-5.66.17-1.69,1.04-2.57,2.04-3.58.95-.96,2.03-2.05,2.86-4.16.1-.26,2.44-6.33.04-9.84-1.68-2.46-4.92-2.62-8.05-2.78-2.89-.14-5.62-.28-6.61-2.37-.77-1.63.09-3.19,1-4.85.92-1.66,1.87-3.38,1.41-5.42-.42-1.86-1.93-3.68-4.26-5.14-3.68-2.3-8.42-3.15-12.35-2.22-4.62,1.1-7.78,4.59-10.09,7.14-1.94,2.15-3.35,3.7-4.79,3.03-1.29-.6-1.22-2.37-1.12-4.61.11-2.51.24-5.64-1.47-8.27-1.64-2.52-4.91-4.41-8.97-5.2-5.3-1.02-11.01.03-14.88,2.75-4.34,3.05-6.25,7.9-7.78,11.81-1.34,3.41-2.4,6.1-4.62,6.1h0c-1.78,0-2.75-1.75-3.88-3.78-1.26-2.26-2.83-5.07-6.02-6.45-5.16-2.22-11.17.63-14.29,2.52-4.87,2.96-7.36,7.04-9.35,10.31-1.77,2.9-3.17,5.19-5.5,5.03-2.28-.16-3.54-2.47-4.87-4.92-1.29-2.37-2.63-4.83-4.93-5.27-1.81-.35-2.91,1.25-4.45,3.48-1.66,2.4-3.72,5.39-7.55,6.7-2.86.98-5.25.61-7.36.29-2.32-.35-4.15-.63-5.93.91-1.98,1.72-3,4.9-2.32,7.26,1.18,4.12,7.38,5.92,10.36,6.79,1.54.45,1.95.57,1.84,1.05l-.04.15-.16.11c-.25.15-.56.07-2.01-.34-3.82-1.07-12.76-3.58-19.93.32-4.03,2.19-7.86,6.64-7.13,9.78.66,2.86,5.01,4.3,8.18,5.35,2.48.82,4.12,1.37,4.02,2.41-.09.93-1.36,1.07-3.47,1.31-3.03.35-7.62.87-11.29,4.03-4.03,3.46-6.5,9.76-4.81,12.24,1.79,2.63,8.26,1.25,12.99.25,4.15-.88,6.16-1.25,6.56-.17.36.98-1.16,1.94-3.67,3.54-3.6,2.28-8.52,5.41-8.5,9.33.02,3.29,3.47,6.89,6.98,7.27,4.22.46,7.97-3.92,10.72-7.11,1.87-2.17,3.1-3.61,4.07-3.03,1.16.69.36,3.56-1.05,8.17-.81,2.66-2.04,6.69-1.38,7.12.37.25,2.49-.1,14.13-15.2l.95-1.23-2.62,14.21Z"/><path d="m209.39,203.71c-.38-.79-9.42-19.48-30.53-21.44-13.44-1.25-26.6,4.89-34.33,16.01l-.82-.57c7.94-11.41,21.44-17.71,35.25-16.43,21.67,2.01,30.96,21.19,31.35,22.01l-.9.43Z"/></svg>