<?xml version="1.0" encoding="utf-8"?>
<!-- Generator: Adobe Illustrator 27.4.1, SVG Export Plug-In . SVG Version: 6.00 Build 0)  -->
<svg version="1.1" id="Layer_7" xmlns="http://www.w3.org/2000/svg" xmlns:xlink="http://www.w3.org/1999/xlink" x="0px" y="0px"
	 viewBox="0 0 433.1 435.8" style="enable-background:new 0 0 433.1 435.8;" xml:space="preserve">
<style type="text/css">
	.st0{fill:#D9E021;}
	.st1{fill:#006837;}
	.st2{fill:#1A1A1A;}
	.st3{fill:#A67C52;}
	.st4{fill:#FFFFFF;}
</style>
<path class="st0" d="M269.7,176.6c8.6-1.2,22.1-2.7,39.5-3.3c57.5-2,102.3,8,104.3,2.5c0.4-1.1-1.6-1.6-27.9-15.4
	c-17-8.9-22.4-11.9-32-14.3c-9.6-2.4-17.4-2.7-22.7-2.8c-35.4-1-65.8-1.4-81.2-1.6"/>
<path class="st0" d="M258.7,159.1c7.6-4.1,19.7-10.4,35.8-17.1c53-22.3,98.4-28.9,98.4-34.7c0-1.1-2.1-0.9-31.5-4.5
	c-19-2.3-25.1-3.2-35-2c-9.8,1.2-17.2,3.7-22.2,5.4c-33.4,11.7-62,22.1-76.5,27.4"/>
<path class="st0" d="M236.9,149.3c-0.4-9.7-0.6-24.7,1.4-43.1C245,45.4,269,6.2,260.4,0.3c-1.7-1.2-2.9,0.5-30,17.8
	c-17.5,11.2-23.4,14.6-28.9,22.7c-5.6,8.2-7.4,16-8.5,21.4c-7.7,35.8-13.6,66.9-16.5,82.7"/>
<path class="st0" d="M267.5,156.9c0.8-6.1,2.4-15.4,5.8-25.8c11.2-34.4,31.2-48.1,26.4-55.4c-1-1.4-2-0.9-21.5-2
	c-12.6-0.7-16.8-1.1-21.4,1.5s-6.6,6.7-8,9.5c-9,18.6-16.4,35.2-20.1,43.6"/>
<path class="st0" d="M155.4,184.1c-2.7-8.7-7.4-21.8-15-36.3C115.4,100,82.4,83.3,87.8,72c1.1-2.2,2.7-1.7,31.3-6.2
	c18.5-2.9,24.6-4.2,32-1.1c7.4,3.1,11.4,8.6,14.1,12.4c18,25.5,33,48.1,40.5,59.7"/>
<path class="st0" d="M148.7,198.6c-5.5-2.7-14.1-6.6-24.6-9.6c-34.8-9.9-57.3-1-60.6-9.1c-0.7-1.6,0.3-2.2,10.4-18.9
	c6.5-10.8,8.5-14.5,13.2-16.8c4.7-2.3,9.2-1.7,12.3-1.3c20.5,2.9,38.3,6.1,47.4,7.7"/>
<path class="st0" d="M143.8,190.5c-8.6,0.9-22.2,2-39.6,2.1C46.7,193,2.2,181.8,0,187.2c-0.4,1.1,1.6,1.7,27.4,16.2
	c16.7,9.4,22,12.6,31.5,15.2c9.5,2.7,17.3,3.2,22.6,3.5c35.3,2,65.7,3.3,81.1,3.9"/>
<path class="st0" d="M150,222.4c-5.7,0.6-14.8,1.4-26.6,1.9c-39,1.7-70.7-1.4-71.5,0.7c-0.2,0.4,1.3,0.6,20.7,5.5
	c12.6,3.2,16.6,4.2,23.3,5c6.8,0.8,12.2,0.8,15.8,0.7c24.2-0.2,45.1-0.5,55.6-0.7"/>
<path class="st0" d="M148.6,225.7c-5.8,5.7-15.2,14.2-27.7,23c-41.4,29-78.2,33-77.5,42.6c0.1,1.9,1.8,1.9,26.4,12.4
	c15.9,6.8,21,9.2,29,8.8c8-0.4,13.8-3.5,17.8-5.6c26.3-14.3,48.8-27.2,60.2-33.9"/>
<path class="st0" d="M285.6,229c9.7,0.2,24.7,1,43,4.1c60.2,10.4,97.8,36.8,104.3,28.7c1.3-1.6-0.3-3-15.8-31
	c-10-18.2-13.1-24.2-20.9-30.3c-7.8-6.1-15.5-8.3-20.9-9.8c-35.2-9.9-65.9-17.7-81.5-21.7"/>
<path class="st0" d="M288.5,258.5c8.2,2.6,21.1,7.1,37.1,14c52.8,22.9,88.9,51.2,93.1,47.1c0.8-0.8-0.8-2.2-18.5-25.9
	c-11.5-15.3-15.1-20.4-22.7-26.7c-7.6-6.3-14.5-9.9-19.3-12.3c-31.5-16.1-58.8-29.5-72.6-36.3"/>
<path class="st0" d="M236.8,293.6c7.3,2.1,18.2,5.6,29.8,11.3c38.2,18.9,47,43.8,58.1,39.7c2.2-0.8,2-2,11.3-23.5
	c6-13.9,8.3-18.5,6.9-24c-1.4-5.5-5.6-8.6-8.5-10.6c-19.5-13.6-37-24.9-46-30.6"/>
<path class="st0" d="M225.4,296.2c1,5.5,2.3,14.2,2.8,25.2c1.6,36.3-7.4,62.8-2.5,64.9c0.9,0.4,1.4-0.8,13.8-15.1
	c8-9.3,10.7-12.2,12.8-17.8c2.2-5.6,2.4-10.5,2.6-13.8c0.9-22,1.4-40.9,1.6-50.6"/>
<path class="st0" d="M198.2,293.3c-0.5,5.6-1.5,14.4-3.9,25.1c-7.9,35.4-23.5,58.7-19.4,62c0.8,0.6,1.6-0.4,17.2-11
	c10.1-6.9,13.5-9,17-13.9c3.6-4.9,5.1-9.5,6.1-12.6c6.7-21,12.1-39.1,14.8-48.4"/>
<path class="st0" d="M164.1,264c-2.6,5.5-6.9,14-13.3,24c-21.3,33-45.7,50.9-42.8,55.6c0.6,0.9,1.8,0.2,21.5-4.9
	c12.8-3.3,17-4.2,22.4-7.9c5.4-3.6,8.7-7.8,10.9-10.6c14.6-18.8,26.8-35.2,33-43.6"/>
<path class="st0" d="M186.8,282.3c-2.3,5.9-6,15.2-11.5,26.9c-18,38.8-37.6,67.5-35.6,69.5c0.4,0.4,1.3-0.9,16.6-16.6
	c9.9-10.2,13.1-13.4,17.4-19.5c4.3-6.1,7-11.3,8.8-14.8c12.1-23.5,22.4-43.9,27.6-54.2"/>
<path class="st1" d="M252.1,286.1c-2.2,4.4-0.6,17.8,2.4,44.5c6.3,55.3,18.9,109.5,24,104.9c1-0.9,0.9-3.4,2.4-9.5
	c4.9-19.2,12.5-17.1,14.4-25.4C300.6,377,259.5,271.1,252.1,286.1L252.1,286.1z"/>
<path class="st2" d="M227.4,37c0.8,3.2,0.2,12.9-0.9,32.4c-2.4,40.3-7.3,79.8-9.3,76.4c-0.4-0.7-0.3-2.5-0.9-6.9
	c-1.9-14-4.8-12.5-5.6-18.5C208.6,103.2,224.5,26.1,227.4,37L227.4,37z"/>
<path class="st2" d="M268.9,92.1c0.7,3.2-0.2,12.9-2.1,32.4c-3.8,40.2-10.1,79.4-11.9,76c-0.4-0.7-0.2-2.5-0.7-7
	c-1.4-14.1-4.4-12.6-4.9-18.7C247.9,157.6,266.4,81.1,268.9,92.1L268.9,92.1z"/>
<path class="st2" d="M138.1,92.4c2.8,1.8,9,9.3,21.4,24.3c25.7,31.1,49,63.3,45.3,62.2c-0.8-0.2-1.9-1.6-5.4-4.4
	c-10.9-9-12-5.9-16.7-9.8C169.5,153.6,128.6,86.3,138.1,92.4z"/>
<path class="st2" d="M383.2,211.2c-3.3,1.7-13.6,1.7-34.4,1.9c-42.9,0.2-85.4-3.5-82.1-7c0.6-0.7,2.6-0.8,7.2-2.2
	c14.5-4.5,12.4-9.1,18.7-10.9C310.3,187.8,394.3,205.5,383.2,211.2z"/>
<path class="st2" d="M343.2,158c-3,1.4-12.6,2.8-32,5.4c-40,5.5-79.6,8.4-76.7,5.9c0.6-0.5,2.4-0.8,6.6-2.3
	c13.4-4.6,11.3-7.2,17.1-9.1C274.6,152.6,353.4,153.1,343.2,158L343.2,158z"/>
<path class="st2" d="M324.5,321.8c-3.2-0.8-10.6-6.9-25.3-19c-30.4-25-58.4-52.3-54.2-52.7c0.9-0.1,2.3,1,6.3,2.8
	c12.7,5.6,13.8,1.5,19.2,4C285.8,264.1,335.5,324.6,324.5,321.8L324.5,321.8z"/>
<path class="st2" d="M366.2,276.8c-3.3-0.1-12.5-3.3-30.9-9.8c-38.1-13.4-74.7-28.9-70.9-29.8c0.8-0.2,2.5,0.4,6.9,1
	c14,2,13.3-1.2,19.3-0.3C307.6,240.6,377.5,277,366.2,276.8L366.2,276.8z"/>
<path class="st2" d="M236.5,343.4c-0.7-2.5-0.4-10,0.3-25.1c1.3-31.2,4.5-61.8,6-59.2c0.3,0.5,0.3,1.9,0.8,5.4
	c1.6,10.8,3.8,9.6,4.5,14.2C249.9,291.9,238.8,351.8,236.5,343.4L236.5,343.4z"/>
<path class="st2" d="M200.5,347.7c-0.2-2.6,1.4-10.3,4.6-25.5c6.5-31.6,14.6-62.4,15.6-59.5c0.2,0.6-0.1,2-0.2,5.6
	c-0.4,11.3,1.8,10.4,1.5,15.2C221.3,297.2,201.1,356.6,200.5,347.7L200.5,347.7z"/>
<path class="st2" d="M330.2,113.8c-2.6,2-11.3,6.3-28.8,14.9c-36.1,17.8-72.3,33.9-70,31.2c0.5-0.5,2.1-1.4,5.8-3.8
	c11.8-7.7,9.5-8.6,14.6-11.9C266.3,134.9,339,107,330.2,113.8z"/>
<path class="st2" d="M166,341.3c1-3.1,5.4-11.7,14.4-29.1c18.4-35.8,37.7-70.4,37.2-66.9c-0.1,0.7-0.9,2.3-2.6,6.5
	c-5.1,13.1-3.1,12.4-5.4,18C203.2,285.7,162.6,351.8,166,341.3L166,341.3z"/>
<path class="st2" d="M139.5,320.6c0.9-3.2,6.8-11,18.4-26.7c24.1-32.4,50-62.6,50.1-58.6c0,0.8-1,2.3-2.9,6.4
	c-5.8,12.9-2.2,13.4-4.8,19C193.1,276.4,136.3,331.6,139.5,320.6z"/>
<path class="st2" d="M90.8,290.7c1.6-3.4,9.9-9.9,26.4-23c34.3-27.1,70.8-50.7,70.4-45.8c-0.1,1-1.6,2.3-4.4,6.3
	c-8.8,12.7-4.3,15.1-8.2,20.4C164,263.8,85.5,302.3,90.8,290.7z"/>
<path class="st2" d="M96.6,229.9c3.2-0.7,12.9-1.2,32.3-2.3c40.2-2.2,79.8-3.1,76.5-1.8c-0.7,0.3-2.5,0.4-6.9,1.1
	c-13.9,2.2-12.2,3.6-18.2,4.4C163.4,233.8,85.8,232.3,96.6,229.9L96.6,229.9z"/>
<path class="st2" d="M68.3,204.7c3.1-1.3,12.9-1.4,32.4-1.6c40.4-0.5,80.2,2.1,77.1,4.8c-0.6,0.6-2.5,0.6-6.8,1.7
	c-13.8,3.5-11.9,7-17.9,8.4C136.3,222,57.7,209.1,68.3,204.7z"/>
<path class="st2" d="M92.6,162.1c2.4-1.9,10.1-1.4,25.6-0.4c32,2.1,63.8,9,61.5,13.1c-0.5,0.8-1.9,0.8-5.3,2.3
	c-10.7,4.7-9,10.4-13.6,12.2C147.7,194.6,84.5,168.5,92.6,162.1L92.6,162.1z"/>
<path class="st3" d="M161.1,267.8c-18.2-23.8-20.9-48.8-22.2-63.6c-2.2-23.9-5-54.2,15.9-76.3c26.1-27.7,68-20.1,73.1-19.1
	c32.6,6.4,50.3,29.8,54,35c17.9,24.9,16.7,51.3,15.9,69.9c-0.7,16.3-1.7,37-15.9,57.2c-3.8,5.3-24,34.1-57.2,35
	C190.9,306.8,169.1,278.2,161.1,267.8L161.1,267.8z"/>
<path d="M166.6,204.6c7.1-3.7,12.3-8,15.5-10.8c6.6-5.8,8.8-6.8,13.6-9.3c8.1-4.3,14.7-3.6,15.2-5.5c0.9-2.9-8.3-9.1-17.7-11.5
	c-4.1-1-11-2.8-18.4,0.4c-7.4,3.2-10.9,9.5-13.4,14c-2.1,3.7-4.4,7.9-4.3,13.8c0.1,6.8,2.4,11.4,3.9,13.3"/>
<path d="M273,184.1c-8.2-0.1-14.9-1.7-19.2-2.8c-8.7-2.3-11.2-2.1-16.8-2.2c-9.4-0.2-15.1,3.4-16.5,2c-2.1-2.2,3.4-12.2,10.9-18.7
	c3.3-2.9,8.8-7.6,17-8.1c8.3-0.5,14.4,3.6,18.8,6.6c3.6,2.4,7.6,5.2,10.3,10.7c3,6.3,3,11.5,2.6,14"/>
<polygon class="st4" points="178.9,197.5 178.9,188 178.9,178.4 184.3,183.2 189.7,188 184.3,192.8 "/>
<polygon class="st4" points="259.1,183 254.4,174.7 249.8,166.3 247.4,173.1 245,179.9 252,181.5 "/>
<path d="M163.8,230.4c-2.9,2.8,26.8,39.1,34.6,35c5.4-2.8-2.1-23.4,2.1-24.8c4-1.3,12.5,17.1,17.5,15.8c5.3-1.4,1-23.2,5.8-24.5
	c5.4-1.4,16.3,24.4,20.6,23.1c3.9-1.2-1.7-23.7,2.1-24.8c3.6-1.1,9.6,19.4,17.2,19.3c12.2-0.2,21.1-54.1,16-55.7
	c-3.8-1.2-12.8,27.5-24.8,26.4c-8.7-0.8-13.4-16.9-17.5-15.8c-4.3,1.2-0.4,19.2-5.5,20.9c-5,1.7-13.8-13.8-17.8-12.2
	c-4.1,1.7,1.7,20-1.8,21.2c-3.6,1.3-12.8-17.2-17.5-15.8c-4.2,1.3,0.9,17.1-5.5,20.9C181.8,244.1,165.8,228.4,163.8,230.4
	L163.8,230.4z"/>
</svg>
