<?xml version="1.0" encoding="UTF-8"?><svg id="pollen" xmlns="http://www.w3.org/2000/svg" width="383.62" height="347.72" viewBox="0 0 383.62 347.72"><defs><style>.cls-1{fill:#001300;}.cls-2{fill:#fff;}.cls-3{fill:#d9e021;}</style></defs><polygon class="cls-1" points="370.15 86.85 347.8 112.55 342.87 132.38 345.14 103.4 322.16 93.87 340.27 96.69 370.15 86.85"/><polygon class="cls-1" points="97.88 333.9 100.51 299.94 92.67 281.07 108.1 305.7 132.24 299.67 116.02 308.19 97.88 333.9"/><polygon class="cls-1" points="0 179.13 35.07 174.69 47.89 156.2 34.87 189.27 58.04 229.23 38.1 203.56 0 179.13"/><polygon class="cls-1" points="99.87 48.6 127.54 68.46 147.75 71.53 118.69 71.96 111.34 95.73 112.45 77.44 99.87 48.6"/><polygon class="cls-1" points="310.78 11.44 299.24 51.46 307.02 75.65 288.94 43 250.78 45.18 277.42 38.38 310.78 11.44"/><polygon class="cls-1" points="283.55 304.84 253.94 288.02 233.52 287.1 262.37 283.6 267.17 259.19 267.99 277.49 283.55 304.84"/><polygon class="cls-1" points="366.52 198.36 333.12 191.67 313.45 197.2 339.75 184.83 336.65 160.14 343.17 177.27 366.52 198.36"/><path class="cls-3" d="m41.84,246.06c-2.29-5.44-9.6-24.05-8.58-48.64,1.41-34.03,17.88-57.71,31.47-77.25,25.75-37.01,56.3-56.06,62.94-60.08,12.8-7.76,59.03-34.89,120.17-28.61,18.92,1.94,52.78,5.42,80.11,31.47,5.91,5.63,19.47,18.87,25.75,40.06,8.26,27.86-1.2,52.09-11.44,77.25-9.46,23.25-28.5,68.28-77.25,103-18.95,13.49-52.22,37.19-100.14,37.19-17.43,0-60.59-3.13-94.42-34.33-18.84-17.38-27.05-36.34-28.61-40.06Z"/><polygon class="cls-1" points="184.9 0 202.08 43.44 221.44 63.36 190.69 39.7 168.79 58.12 180.88 40.18 184.9 0"/><polygon class="cls-1" points="33.19 116.63 63.78 131.61 84.21 131.28 55.62 136.54 52.33 161.2 50.39 142.98 33.19 116.63"/><polygon class="cls-1" points="64.73 62.94 101.29 92.58 128.07 100.68 89.51 94.78 79.58 121.32 81.2 99.89 64.73 62.94"/><polygon class="cls-1" points="17.57 258.98 41.53 234.77 47.74 215.3 43.6 244.07 65.92 255.07 48.03 251.09 17.57 258.98"/><polygon class="cls-1" points="36.12 311.86 58.8 264.55 60.55 233.39 64.32 276.77 95.95 280.71 72.11 284.47 36.12 311.86"/><polygon class="cls-1" points="163.78 347.72 151.68 315.88 136.54 302.16 161 317.86 180.26 302.1 169.23 316.73 163.78 347.72"/><polygon class="cls-1" points="216.41 342.05 203.13 310.69 187.48 297.55 212.51 312.31 231.17 295.84 220.69 310.88 216.41 342.05"/><polygon class="cls-1" points="317.8 271.09 286.4 257.91 266.02 259.43 294.25 252.52 296.11 227.71 299.1 245.79 317.8 271.09"/><polygon class="cls-1" points="344.32 237.98 312.91 224.8 292.53 226.32 320.76 219.41 322.62 194.6 325.62 212.68 344.32 237.98"/><polygon class="cls-1" points="137.89 29.4 158.19 46.05 173.97 48.21 150.87 49.35 143.07 70.35 145.47 54.31 137.89 29.4"/><polygon class="cls-1" points="247.55 7.61 245.76 40.91 257.04 58 235.48 36.48 203.97 45.99 224.92 35.27 247.55 7.61"/><polygon class="cls-1" points="350.83 43.29 332.54 77.21 330.81 100.14 328.36 67.95 303.66 63.63 322.35 61.92 350.83 43.29"/><polygon class="cls-1" points="383.62 154.3 349.58 155.06 331.58 164.74 354.55 146.94 346.14 123.52 356.24 138.81 383.62 154.3"/><path class="cls-1" d="m203.68,82.81c-.8-.65-1.75-1.83-1.6-2.41.21-.83,2.59-.15,3.21,0,7.93,1.87,21.32-16.36,22.45-14.46.38.64-.85,3.24-1.6,4.82-2.05,4.3-3.68,5.22-4.81,7.23-3.54,6.31.29,19.16,0,19.28-.58.24-4.23-7.64-3.21-14.46.13-.83.34-1.8,0-2.41-.73-1.31-3.09.7-8.02,2.41-3.27,1.13-4.93,1.19-6.42,0Z"/><path class="cls-1" d="m149.25,150.29c.3,1.43.31,3.45-.35,3.75-.94.43-2.88-2.8-3.41-3.61-6.85-10.44-36.65-10.81-36.24-13.62.14-.95,3.67-1.65,5.82-2.08,5.84-1.16,8.37-.06,11.29-.41,9.15-1.1,16.03-15.78,16.44-15.55.82.46-2.01,10.92-8.92,15.27-.84.53-1.9,1.06-2.06,1.94-.34,1.88,3.88,2.91,10.59,7.08,4.44,2.76,6.27,4.59,6.83,7.22Z"/><path class="cls-1" d="m80.1,207.83c-.63,1.2-1.71,2.6-2.18,2.34-.67-.38.16-4.02.35-4.96,2.42-12.15-11.31-33.91-9.61-35.55.58-.56,2.61,1.51,3.84,2.76,3.36,3.41,3.95,6,5.5,7.86,4.87,5.84,16,.68,16.07,1.13.14.91-6.83,6.09-12.4,4.11-.68-.24-1.46-.63-2.01-.14-1.17,1.06.24,4.81,1.14,12.54.59,5.11.46,7.7-.7,9.92Z"/><path class="cls-1" d="m148.95,96.49c-1.1-.41-2.4-1.14-2.2-1.51.29-.52,3.55-.09,4.4,0,10.88,1.17,29.23-10.25,30.79-9.06.53.4-1.17,2.03-2.2,3.02-2.8,2.69-5.05,3.27-6.6,4.53-4.85,3.96.4,12.01,0,12.08-.8.15-5.8-4.79-4.4-9.06.17-.52.47-1.13,0-1.51-1.01-.82-4.23.44-10.99,1.51-4.48.71-6.76.75-8.8,0Z"/><path class="cls-1" d="m164.11,251.8c.56-1.36,1.65-2.99,2.26-2.79.88.29.46,4.21.39,5.22-.95,13.04,19.25,33.44,17.45,35.43-.61.67-3.41-1.14-5.11-2.24-4.63-3-5.77-5.6-7.95-7.28-6.86-5.28-19.51,1.92-19.66,1.46-.31-.93,7.28-7.46,14.36-6.31.87.14,1.88.42,2.46-.18,1.25-1.29-1.08-4.97-3.42-12.86-1.55-5.22-1.81-7.93-.77-10.43Z"/><path class="cls-1" d="m134.36,212.09c1.13-.53,2.71-.94,2.94-.47.33.66-2.24,2.86-2.88,3.45-8.29,7.56-8.98,31.43-11.18,31.66-.74.08-1.25-2.6-1.56-4.23-.83-4.43.06-6.67-.17-8.93-.74-7.09-12.17-9.64-11.99-10.01.37-.75,8.55-.58,11.87,4.06.41.57.81,1.3,1.5,1.25,1.47-.11,2.34-3.68,5.71-9.88,2.23-4.1,3.69-5.93,5.76-6.9Z"/><path class="cls-1" d="m280.04,155.75c1.5-.98,3.53-1.91,3.68-1.36.23.78-3.44,4.3-4.37,5.23-11.97,11.97-18.89,43.28-21.61,44.14-.92.29-.85-3.07-.81-5.12.11-5.57,1.77-8.72,2.06-11.61.9-9.05-12.31-9.48-11.99-10.01.64-1.07,10.52-2.93,13.36,2.28.35.64.65,1.49,1.5,1.25,1.82-.52,3.77-5.39,9.43-14.33,3.74-5.92,5.98-8.67,8.74-10.47Z"/><path class="cls-1" d="m299.77,100.77c.85-.12,2.14-.04,2.46.39.46.61-1.23,1.67-1.64,1.97-5.33,3.8.22,22.36-1.65,21.98-.63-.13-1.77-2.36-2.46-3.72-1.88-3.7-1.67-5.22-2.46-7.06-2.48-5.76-13.19-10.72-13.12-10.96.13-.49,7.37,1.75,11.48,6.26.5.55,1.05,1.23,1.64,1.37,1.27.3,1.11-2.29,2.46-6.28.9-2.65,1.71-3.7,3.28-3.93Z"/><path class="cls-1" d="m205.36,200.12c1.11-.43,2.7-.7,2.97-.22.39.69-2.05,2.65-2.66,3.18-7.84,6.8-6.52,30.44-8.75,30.48-.76.02-1.5-2.69-1.95-4.33-1.23-4.47-.5-6.62-.94-8.88-1.36-7.1-13.28-10.61-13.12-10.96.32-.71,8.7.15,12.5,5.04.46.6.94,1.36,1.64,1.37,1.5.02,2.08-3.45,5-9.32,1.93-3.88,3.27-5.57,5.31-6.36Z"/><path class="cls-1" d="m228.17,118.59c1.55-1.09,3.62-2.17,3.74-1.62.17.78-3.69,4.59-4.67,5.59-12.64,12.92-21.51,45.13-24.26,46.18-.93.36-.65-3.06-.48-5.14.47-5.66,2.32-8.96,2.79-11.91,1.47-9.24-11.59-8.83-11.24-9.39.71-1.13,10.62-3.65,13.1,1.45.3.62.55,1.47,1.41,1.17,1.83-.64,4.09-5.72,10.27-15.15,4.09-6.24,6.49-9.18,9.34-11.18Z"/><path class="cls-2" d="m235.5,227.18c-2.74-7.54-16.5,10.77-23.18,21.62-5.45,8.85-6.69,13.55-6.97,14.69-2.28,9.19,1.14,14.71,5.08,14.85,4.37.15,11.66-6.24,17.78-19.31,5.43-11.61,9.14-26.78,7.29-31.85Z"/><path class="cls-2" d="m88.82,221c-5.16-4.02-11.63,10.43-14.09,18.65-2.01,6.71-1.54,9.9-1.41,10.66,1.06,6.19,6.15,8.81,9.87,7.99,4.11-.91,8.7-6.52,9.87-15.99,1.04-8.41-.76-18.62-4.23-21.32Z"/><path class="cls-2" d="m256.96,123.44c-6.78-2.41-15.29,6.26-18.53,11.19-2.64,4.03-2.02,5.94-1.85,6.4,1.39,3.72,8.09,5.29,12.97,4.8,5.41-.55,11.43-3.91,12.97-9.59,1.37-5.05-1-11.17-5.56-12.79Z"/><path class="cls-2" d="m181.29,171.15c-8.24-4.02-18.59,10.43-22.53,18.65-3.22,6.71-2.46,9.9-2.25,10.66,1.69,6.19,9.83,8.81,15.77,7.99,6.58-.91,13.9-6.52,15.77-15.99,1.66-8.41-1.22-18.62-6.76-21.32Z"/><path class="cls-2" d="m121.95,112.07c-4.71-1.18-10.63,3.05-12.88,5.46-1.84,1.96-1.41,2.9-1.29,3.12.96,1.81,5.62,2.58,9.02,2.34,3.76-.27,7.95-1.91,9.02-4.68.95-2.46-.7-5.45-3.86-6.24Z"/><path class="cls-2" d="m121.92,163.78c-3.76-4.04-8.49,10.47-10.28,18.73-1.47,6.74-1.12,9.94-1.03,10.7.77,6.22,4.49,8.85,7.2,8.03,3-.91,6.34-6.55,7.2-16.05.76-8.44-.56-18.69-3.09-21.41Z"/><path class="cls-2" d="m295.56,161.32c-4.41-6.38-9.95,16.55-12.06,29.6-1.72,10.65-1.32,15.7-1.21,16.91.9,9.83,5.26,13.99,8.44,12.69,3.52-1.44,7.44-10.35,8.44-25.37.89-13.34-.65-29.54-3.62-33.83Z"/><path class="cls-2" d="m273.06,85.55c-1.38-8.92-13.78-15.3-19.98-17.06-5.07-1.44-6.48.08-6.81.47-2.65,3.15-.55,11.64,2.48,17.14,3.35,6.1,9.6,11.76,15.59,11.22,5.32-.48,9.65-5.77,8.72-11.76Z"/><path class="cls-2" d="m335.15,137c1.65-5.05-12.1-4.25-19.54-2.95-6.07,1.06-8.5,2.55-9.08,2.92-4.69,3-5.22,7.49-3.39,9.77,2.03,2.52,8.01,3.64,16.05.99,7.14-2.36,14.85-7.34,15.96-10.74Z"/><path class="cls-2" d="m191.15,127.32c-.29-5.95-10.25-9.12-15.39-9.73-4.19-.5-5.55.67-5.87.97-2.58,2.4-1.63,7.99.4,11.45,2.26,3.84,7.04,7.1,12.21,6.16,4.6-.83,8.83-4.86,8.64-8.85Z"/></svg>