<?xml version="1.0" encoding="UTF-8"?><svg id="pollen" xmlns="http://www.w3.org/2000/svg" width="256.51" height="110" viewBox="0 0 256.51 110"><defs><style>.cls-1{fill:none;}.cls-2{fill:#0071bc;}.cls-3,.cls-4{fill:#22b573;}.cls-5{fill:#29abe2;}.cls-4,.cls-6{stroke:#000;stroke-miterlimit:10;stroke-width:2px;}</style></defs><path class="cls-2" d="m57.98,3.53c3.66-1,10.36,15.69,18.06,15.13,7.19-.52,10.32-15.7,14.45-15.13,2.95.4,1.18,8.1,7.22,12.11,4.81,3.19,13.24,3.15,18.06,0,6.08-3.98,5.17-12.11,7.22-12.11,2.19,0,1.82,7.24,7.22,12.11,5.58,5.03,16.17,6.47,21.15,2.54,6.21-4.91,2.91-17.56,4.13-17.67,1.14-.1.39,11.52,7.22,15.13,4.92,2.6,13.33.75,18.06-3.03,5.84-4.66,5.24-12.15,7.22-12.11,2.66.06,1.74,13.17,7.56,15.31,6.71,2.48,16.9-11.66,21.33-9.26,3.49,1.89-1.72,11.21,2.66,15.15,6.13,5.52,25.49-4.52,26.24-3.05.73,1.43-18.52,8.95-17.4,14.83.7,3.69,9.25,5.8,13.79,6.36,5.96.74,10.72-.47,10.83,0,.22.93-18.9,3.39-19.57,8.96-.59,4.88,13.34,9.38,12.35,12.23-.92,2.66-13.42-.17-14.87,3.08-1.65,3.69,12.89,10.88,11.26,15.08-1.47,3.78-13.87-.56-21.36,6.13-5.25,4.69-3.21,10.45-7.53,12.03-6.21,2.27-13.51-8.47-18.99-6.14-4.58,1.95-2.18,10.63-6.3,12.19-5.67,2.15-14.02-12.87-21.48-11.01-6.27,1.56-6,13.55-11.02,14.04-5.53.54-9.87-13.63-14.23-12.86-4.33.77-3.48,15.29-7.44,15.89-4.17.63-8.14-14.98-14.03-14.71-5.02.23-6.67,11.76-11.25,11.68-4.65-.08-6.78-11.97-10.21-11.68-3.64.3-3.36,13.87-7.85,14.71-5.14.96-9.8-16.05-17.41-15.89-7.45.16-11.99,16.68-15.1,15.89-3.18-.81,1.54-18.16-3.84-20.6-5.7-2.59-18.7,13.39-21.44,11.52-2.52-1.72,8.39-15.35,3.76-20.95-4.03-4.87-17.03-.32-18.21-3.27-1.25-3.14,13.11-9.3,11.89-13.23-1.28-4.11-18.49-1.96-19.12-4.93-.64-3.03,16.87-6.82,16.59-11.56-.3-5.04-20.5-7.66-20.2-9.63.3-1.98,20.75,1.67,23.99-4.51,3.12-5.95-11.63-17.36-9.54-19.7,2.56-2.88,24.53,14.02,32.5,9.08,5.99-3.72.31-17.26,3.61-18.16Z"/><path d="m90.04,110c-2.48,0-4.66-3.27-7.16-7.02-2.81-4.21-6.04-8.99-9.8-8.91-4.12.09-7.39,5.69-10.03,10.19-2.07,3.54-3.57,6.1-5.2,5.68-1.77-.45-1.66-3.75-1.52-8.33.15-4.92.34-11.05-2.4-12.3-2.97-1.35-8.6,3.21-13.12,6.87-4.42,3.59-6.99,5.57-8.39,4.61-1.36-.93-.19-3.57,1.44-7.23,2.13-4.77,4.77-10.72,2.21-13.81-2.12-2.56-7.19-2.31-11.27-2.11-3.56.17-6.38.32-7.02-1.29-.74-1.86,2.23-4.06,5.68-6.6,3-2.21,6.73-4.96,6.2-6.67-.59-1.89-6.05-2.3-10.44-2.62-5.16-.38-8.34-.7-8.69-2.36-.37-1.77,2.82-3.19,7.23-5.15,4.23-1.88,9.49-4.23,9.36-6.48-.16-2.72-8.01-4.97-13.2-6.46-5.11-1.47-7.17-2.11-7-3.27.17-1.09,1.91-1.13,6.94-1.09,6.04.05,15.17.11,17.1-3.58,1.68-3.19-2.51-8.41-5.88-12.6-2.75-3.43-4.74-5.91-3.6-7.2,1.23-1.38,4.64.2,11.07,3.37,7.19,3.55,17.05,8.41,21.55,5.61,3.2-1.98,2.78-7.24,2.45-11.47-.28-3.5-.5-6.26,1.29-6.75,1.88-.51,3.99,2.27,6.67,5.79,3.26,4.29,7.32,9.65,11.48,9.32,3.72-.27,6.36-4.88,8.68-8.95,1.98-3.47,3.68-6.47,5.87-6.18,1.59.22,2.06,2,2.59,4.06.69,2.65,1.55,5.95,4.83,8.12,4.64,3.07,12.82,3.07,17.52,0,3.55-2.32,4.6-6.08,5.37-8.83.55-1.95.94-3.36,2.12-3.36h0c1.3,0,1.83,1.53,2.56,3.64.86,2.5,2.04,5.92,5,8.59,5.48,4.95,15.84,6.22,20.52,2.52,4.12-3.25,3.85-10.13,3.69-14.24-.09-2.38-.14-3.46.71-3.54.81-.08.96.88,1.31,2.98.61,3.67,1.63,9.8,6.19,12.21,4.89,2.59,13.16.51,17.52-2.98,3.36-2.69,4.5-6.29,5.33-8.92.6-1.91,1.04-3.29,2.18-3.29h.03c1.49.03,1.98,2.3,2.66,5.45.84,3.89,1.89,8.73,5.05,9.89,3.34,1.23,7.86-2.15,11.85-5.13,3.86-2.88,7.2-5.37,9.55-4.11,1.93,1.04,1.63,3.79,1.32,6.7-.33,3.09-.71,6.59,1.43,8.52,3.94,3.54,14.16.15,20.27-1.88,4.38-1.46,5.66-1.83,6.07-1.02.45.88-.75,1.62-4.98,4.03-4.88,2.79-13.04,7.45-12.38,10.93.61,3.21,8.52,5.36,13.36,5.96,3.64.45,6.85.16,8.77,0,1.8-.16,2.34-.21,2.49.39.18.76-.6.96-4.35,1.89-5.16,1.29-14.78,3.69-15.21,7.24-.28,2.37,3.81,4.95,7.1,7.02,3.24,2.04,5.8,3.65,5.22,5.31-.55,1.6-3.63,1.62-7.19,1.65-3.15.03-7.06.06-7.69,1.47-.65,1.46,2.5,4.18,5.27,6.57,3.58,3.09,6.96,6,6,8.48-.75,1.94-3.6,2.06-7.21,2.22-4.53.19-10.17.43-14.28,4.11-2.52,2.25-3.29,4.74-3.97,6.94-.71,2.31-1.33,4.3-3.72,5.18-3.39,1.23-6.94-1.04-10.37-3.25-3.16-2.03-6.14-3.95-8.59-2.9-2.1.89-2.59,3.52-3.07,6.07-.48,2.59-.98,5.27-3.25,6.13-2.99,1.14-6.45-1.88-10.11-5.08-3.83-3.35-7.79-6.81-11.43-5.91-3.01.75-4.43,4.18-5.8,7.5-1.33,3.23-2.59,6.28-5.3,6.55-3.16.3-5.8-3.51-8.33-7.21-2.01-2.94-4.1-5.95-5.86-5.66-1.88.33-2.74,4.33-3.51,7.86-.86,3.96-1.66,7.69-3.94,8.04-2.23.33-4.17-2.89-6.38-6.64-2.27-3.84-4.84-8.19-7.7-8.06-2.27.1-3.88,3.01-5.45,5.82-1.67,3.01-3.26,5.86-5.78,5.86h-.06c-2.76-.05-4.55-3.48-6.28-6.8-1.28-2.46-2.6-5-3.88-4.89-1.39.12-2.23,3.27-3.04,6.31-1.03,3.88-2.1,7.9-4.75,8.39-.18.03-.35.05-.53.05Zm-16.86-16.93c4.29,0,7.6,4.96,10.52,9.35,2.38,3.57,4.62,6.94,6.69,6.55,2.04-.38,3.07-4.25,3.98-7.67.98-3.69,1.83-6.87,3.92-7.05.06,0,.11,0,.17,0,1.84,0,3.16,2.52,4.67,5.42,1.52,2.92,3.25,6.23,5.42,6.27h.04c1.95,0,3.39-2.6,4.92-5.35,1.69-3.05,3.44-6.2,6.26-6.33.06,0,.11,0,.17,0,3.37,0,6.05,4.54,8.42,8.55,1.86,3.15,3.76,6.39,5.39,6.17,1.6-.24,2.38-3.81,3.12-7.26.87-4.02,1.77-8.18,4.3-8.63,2.39-.42,4.55,2.73,6.84,6.08,2.26,3.3,4.82,7.05,7.43,6.78,2.12-.21,3.26-2.99,4.48-5.94,1.39-3.38,2.98-7.22,6.47-8.09,4.13-1.03,8.29,2.61,12.32,6.13,3.43,3,6.67,5.83,9.11,4.9,1.75-.66,2.17-2.96,2.62-5.38.5-2.67,1.06-5.7,3.65-6.8,2.93-1.25,6.12.81,9.51,2.98,3.23,2.08,6.57,4.22,9.5,3.15,1.94-.71,2.43-2.31,3.12-4.54.68-2.21,1.53-4.96,4.26-7.4,4.38-3.91,10.46-4.17,14.9-4.36,3.25-.14,5.82-.25,6.34-1.58.7-1.81-2.71-4.76-5.72-7.35-3.34-2.88-6.49-5.6-5.53-7.75.89-2,4.8-2.03,8.59-2.06,2.65-.02,5.94-.05,6.27-.98.31-.9-2.53-2.69-4.81-4.13-3.71-2.34-7.92-4.99-7.56-7.99.47-3.91,8.14-6.14,15.95-8.09.26-.06.52-.13.78-.19-1.96.15-4.62.25-7.57-.11-4.58-.57-13.44-2.72-14.21-6.76-.8-4.19,7.09-8.7,12.86-11.99,1.61-.92,3.39-1.93,4.17-2.54-.94.17-2.8.79-4.47,1.35-6.72,2.23-16.88,5.61-21.24,1.68-2.52-2.27-2.12-6.04-1.76-9.37.29-2.68.53-4.99-.8-5.71-1.79-.98-5.05,1.46-8.49,4.03-4.19,3.13-8.94,6.67-12.78,5.26-3.67-1.35-4.79-6.49-5.68-10.62-.47-2.18-1.01-4.65-1.72-4.66h0c-.43,0-.84,1.32-1.25,2.59-.82,2.6-2.05,6.53-5.66,9.4-4.7,3.75-13.29,5.88-18.59,3.08-4.99-2.64-6.11-9.33-6.7-12.93-.03-.16-.05-.33-.08-.49,0,.28.02.56.03.84.16,4.02.45,11.5-4.07,15.07-5.1,4.03-15.89,2.76-21.78-2.56-3.15-2.84-4.38-6.4-5.27-9.01-.55-1.59-1.02-2.97-1.63-2.97h0c-.43,0-.8,1.34-1.16,2.63-.77,2.74-1.93,6.87-5.79,9.4-4.98,3.26-13.67,3.26-18.6,0-3.6-2.39-4.56-6.04-5.25-8.71-.53-2.04-.87-3.2-1.77-3.32-1.51-.2-3.15,2.66-4.88,5.69-2.45,4.29-5.22,9.14-9.47,9.45-4.73.33-8.93-5.23-12.34-9.71-2.16-2.84-4.41-5.77-5.63-5.44l-.13-.48.13.48c-1,.27-.78,3.03-.57,5.7.36,4.5.8,10.1-2.92,12.4-4.96,3.08-14.69-1.72-22.5-5.57-4.27-2.1-9.11-4.5-9.9-3.6-.58.65,1.76,3.56,3.63,5.9,3.55,4.42,7.96,9.92,5.98,13.7-2.21,4.22-11.32,4.15-17.98,4.11-2.41-.02-5.12-.04-5.86.26.67.55,3.71,1.43,6.19,2.14,6.11,1.76,13.72,3.94,13.92,7.37.17,2.94-4.97,5.24-9.94,7.46-2.9,1.29-6.86,3.06-6.66,4.03.21,1,4.6,1.33,7.8,1.56,5.17.38,10.52.78,11.31,3.32.74,2.39-2.81,5-6.56,7.77-2.58,1.91-5.8,4.28-5.34,5.42.38.95,3.26.81,6.05.67,4.29-.21,9.64-.48,12.08,2.46,2.96,3.58.17,9.84-2.07,14.87-1.1,2.46-2.46,5.53-1.79,5.99.87.58,4.39-2.26,7.23-4.56,4.97-4.03,10.61-8.61,14.14-7,3.35,1.52,3.16,7.75,2.99,13.24-.1,3.15-.22,7.08.78,7.33.94.27,2.61-2.67,4.11-5.22,2.76-4.72,6.19-10.58,10.86-10.68.04,0,.08,0,.12,0Z"/><path class="cls-3" d="m63.54,45.62c3.17-.08,6.5-3.39,6.81-6.49.45-4.66-6.15-8.37-11.59-8.53-7.24-.22-13.39,5.76-15.11,11.21-.5,1.58-1.17,3.74-.26,5.97,1.63,3.99,6.4,3.51,13.22,8.2,2.4,1.65,8.59,6.02,7.5,9.38-.74,2.28-4.76,4-7.14,2.99-2.92-1.24-1.75-5.96-4.36-6.89-2.42-.86-6.91,1.97-7.75,5.24-1.36,5.27,6.14,13.21,13.49,12.52,7.59-.71,11.07-10.29,11.52-11.49.28-.76,3.74-10.16-1.23-15.47-4.32-4.61-11.24-1.93-14.57-6.86-1.98-2.93-1.57-6.91-.41-7.37,1.84-.74,4.77,7.7,9.89,7.58Z"/><path d="m59.93,79.71c-.49.12-1,.21-1.53.26-4.62.43-8.85-2.27-11.29-4.95-2.53-2.77-3.68-5.93-3.02-8.47.51-1.98,2.29-4.02,4.53-5.17,1.6-.82,3.13-1.04,4.29-.62,1.64.59,2.09,2.25,2.49,3.72.38,1.39.74,2.7,1.9,3.19.94.4,2.35.27,3.68-.32,1.2-.54,2.11-1.37,2.38-2.19.92-2.86-5.2-7.16-7.24-8.56-2.8-1.92-5.28-2.97-7.29-3.8-2.86-1.19-5.14-2.12-6.21-4.71-1.01-2.46-.27-4.86.23-6.45,1.86-5.92,8.43-12.02,15.95-11.79,6.13.18,12.82,4.37,12.33,9.32-.35,3.57-4.13,7.11-7.62,7.2h0c-3.48.08-5.92-3.13-7.73-5.47-.67-.87-1.59-2.07-1.98-2.16-.39.37-.84,3.63.93,6.24,1.55,2.3,3.95,2.75,6.72,3.28,2.59.5,5.53,1.1,7.77,3.49,5.23,5.58,1.76,15.14,1.36,16.21-.92,2.46-4.19,10.11-10.67,11.74Zm-9.3-17.52c-.42.11-.85.28-1.3.5-1.85.95-3.31,2.59-3.71,4.17-.93,3.58,2.52,7,2.68,7.15,3.94,3.73,10.83,3.02,14.96.49.58-.35,4.33-2.66,5.87-7.01,0-.02.01-.03.01-.04.27-.74,3.51-9.77-1.11-14.69-1.92-2.04-4.36-2.53-6.94-3.03-2.85-.55-5.81-1.1-7.71-3.92-1.58-2.33-1.8-5.39-1.19-7.08.26-.72.65-1.19,1.17-1.39,1.03-.41,2.08,1.13,3.79,2.64,1.56,1.39,3.78,3.35,6.11,3.51,2.72.18,6.02-2.05,6.28-4.41.38-3.39-5.48-7.58-10.85-7.75-6.7-.2-12.57,5.29-14.26,10.64-.43,1.36-1.32,3.65-.28,5.5.95,1.68,2.82,1.88,6.26,3.01,3.14,1.03,6.32,2.08,8.89,4,3.42,2.54,6.97,7.5,5.56,11.06-.78,1.96-2.85,2.96-3.24,3.13-1.76.79-3.61.91-4.97.34-1.83-.77-2.32-2.56-2.76-4.14-.36-1.29-.66-2.41-1.57-2.73-.44-.16-1.03-.14-1.68.03Z"/><path d="m88.36,48.2c-3.53-2.92-12.57,4.38-14.73,1.8-1.41-1.68.96-6.56,3.87-9.7,6.97-7.51,21.5-9.91,28.15-3.16,3.83,3.88,5.31,10.69,3.13,12.66-2.69,2.43-9.46-3.88-12.26-1.59-4.28,3.48,8.31,20.71,2.88,26.91-2.71,3.1-9.63,3.12-12.51,0-5.72-6.2,6.21-22.98,1.47-26.91Z"/><path d="m93.18,78.44c-2.87,0-5.49-.98-7.02-2.65-3.43-3.72-1.36-10.41.46-16.3,1.38-4.47,2.81-9.1,1.11-10.51-1.42-1.18-4.6.05-7.4,1.12-3.08,1.18-5.98,2.3-7.46.55-2.04-2.44,1.12-8.03,3.91-11.03,4.1-4.42,11-7.34,17.58-7.44,4.92-.08,9.21,1.43,11.99,4.25,2.71,2.75,4.53,7.09,4.43,10.56-.05,1.57-.51,2.8-1.34,3.55-1.82,1.64-4.54.51-7.17-.58-1.96-.82-4.19-1.74-5.13-.98-1.42,1.15.25,5.85,1.71,9.99,2.16,6.1,4.61,13.01,1.29,16.8-1.43,1.63-3.97,2.63-6.79,2.67-.05,0-.11,0-.16,0Zm-7.06-31.94c1.08,0,2.06.26,2.86.93h0c2.74,2.27,1.25,7.08-.47,12.66-1.66,5.38-3.55,11.48-.9,14.34,1.17,1.27,3.38,2.06,5.71,2.01,2.27-.03,4.27-.77,5.34-1.99,2.54-2.91.3-9.23-1.67-14.8-1.94-5.46-3.61-10.18-1.09-12.22,1.85-1.5,4.53-.39,7.12.68,1.97.82,4.21,1.75,5.11.94.41-.37.65-1.12.68-2.11.07-2.5-1.23-6.43-3.85-9.09-2.34-2.37-5.96-3.67-10.23-3.67-.11,0-.22,0-.33,0-6.07.09-12.42,2.77-16.17,6.81-2.94,3.17-4.65,7.4-3.84,8.37.57.68,3.27-.36,5.24-1.12,2.15-.83,4.49-1.73,6.5-1.73Z"/><path class="cls-3" d="m85.49,47c-2.83-1.99-8.74,4.12-11.84,1.74-2.22-1.7-1.85-6.87,0-10.36,4.65-8.75,22.79-11.48,30.7-3.45,4.18,4.23,5.8,11.66,3.41,13.81-2.94,2.65-10.32-4.23-13.38-1.74-4.67,3.8,9.06,22.59,3.14,29.36-2.96,3.38-10.51,3.4-13.65,0-6.28-6.81,6.29-26.06,1.61-29.36Z"/><path d="m90.75,79.9c-3.11,0-5.94-1.06-7.59-2.86-3.82-4.15-1.53-11.87.49-18.69,1.32-4.43,2.81-9.45,1.28-10.53-.91-.64-2.79.2-4.61,1-2.43,1.08-5.19,2.3-7.26.71-2.7-2.07-2.31-7.79-.27-11.63,2.29-4.31,7.64-7.47,14.3-8.46,7.24-1.07,13.97.71,17.98,4.77,2.94,2.98,4.91,7.69,4.8,11.46-.05,1.69-.55,3.01-1.43,3.81-1.94,1.75-4.89.53-7.73-.66-2.27-.94-4.62-1.92-5.69-1.05-1.6,1.3.15,6.23,1.84,11,2.35,6.63,5.01,14.14,1.42,18.24-1.54,1.76-4.29,2.84-7.34,2.88-.06,0-.12,0-.18,0Zm-6.65-34.3c.69,0,1.35.17,1.95.58h0c2.71,1.9,1.22,6.93-.51,12.75-1.87,6.3-3.99,13.44-.94,16.75,1.3,1.4,3.71,2.28,6.3,2.22,2.5-.03,4.7-.86,5.88-2.21,2.81-3.21.36-10.13-1.8-16.24-2.1-5.92-3.91-11.04-1.22-13.23,1.97-1.61,4.87-.4,7.67.76,2.28.95,4.64,1.93,5.67,1.01.47-.42.74-1.26.77-2.37.08-2.75-1.35-7.06-4.23-9.98-3.51-3.56-9.75-5.17-16.29-4.2-5.96.88-10.88,3.73-12.84,7.42-1.77,3.33-1.91,7.83-.27,9.09,1.15.88,3.25-.05,5.28-.95,1.56-.69,3.16-1.4,4.59-1.4Z"/><path class="cls-6" d="m130.46,38.74c-1-1.83-3.47-6.44-6.06-6.13-1.59.19-2.58,2.14-3.04,3.07-9,18.3-16.59,33.75-12.12,36.83,2.21,1.52,6.95-.27,9.09-3.08,2.54-3.32.47-6.86,3.03-9.2,2.23-2.04,6.77-2.09,9.1,0,3.35,3-.03,8.38,3.03,12.28,3.1,3.95,11.57,4.78,14.26,1.49,3.28-4.02-4.35-11.45-17.29-35.26Zm-.45,13.89c-.68.48-1.85-1.03-4.39-.89-2.13.12-2.9,1.27-3.51.89-1.6-1,.66-10.54,3.51-10.67,2.92-.12,5.91,9.58,4.39,10.67Z"/><path class="cls-4" d="m128.49,39.38c-1.21-2.19-3.95-7.24-6.82-6.9-1.79.21-2.91,2.41-3.42,3.45-10.12,20.59-18.66,37.96-13.64,41.43,2.48,1.71,7.82-.3,10.23-3.46,2.86-3.74.52-7.72,3.41-10.35,2.51-2.29,7.61-2.35,10.24,0,4.03,3.61-.12,10.84,3.41,13.81,3.09,2.59,11.04,1.03,13.65-3.46,3.03-5.23-3.67-10.18-17.06-34.52Zm-.5,15.62c-.76.54-2.09-1.16-4.94-1-2.39.14-3.26,1.43-3.95,1-1.8-1.12.74-11.86,3.95-12,3.28-.14,6.65,10.78,4.94,12Z"/><path d="m201.18,49.39c-3.53-2.92-12.57,4.38-14.73,1.8-1.41-1.68.96-6.56,3.87-9.7,6.97-7.51,21.5-9.91,28.15-3.16,3.83,3.88,5.31,10.69,3.13,12.66-2.69,2.43-9.46-3.88-12.26-1.59-4.28,3.48,8.31,20.71,2.88,26.91-2.71,3.1-9.63,3.12-12.51,0-5.72-6.2,6.21-22.98,1.47-26.91Z"/><path d="m206,79.63c-2.87,0-5.49-.98-7.02-2.65-3.43-3.72-1.36-10.41.46-16.3,1.38-4.47,2.81-9.1,1.11-10.51h0c-1.42-1.18-4.6.04-7.4,1.12-3.08,1.19-5.99,2.3-7.46.55-2.05-2.45,1.12-8.03,3.91-11.03,4.1-4.42,11-7.34,17.58-7.44,4.93-.06,9.21,1.43,11.99,4.25,2.71,2.75,4.53,7.09,4.43,10.56-.05,1.57-.51,2.8-1.34,3.55-1.82,1.63-4.54.51-7.17-.58-1.96-.82-4.19-1.74-5.13-.98-1.42,1.15.25,5.85,1.71,9.99,2.16,6.1,4.61,13.01,1.29,16.8-1.43,1.63-3.97,2.63-6.79,2.67-.05,0-.11,0-.16,0Zm-4.2-31.01c2.74,2.27,1.25,7.08-.47,12.66-1.66,5.38-3.55,11.48-.9,14.34,1.15,1.25,3.28,2.01,5.58,2.01.05,0,.09,0,.13,0,2.27-.03,4.27-.77,5.33-1.99,2.54-2.91.3-9.23-1.67-14.8-1.94-5.46-3.61-10.18-1.09-12.22,1.85-1.5,4.53-.39,7.12.68,1.97.82,4.21,1.75,5.11.94.41-.37.65-1.12.68-2.11.07-2.5-1.23-6.43-3.85-9.09-2.4-2.43-6.18-3.75-10.56-3.67-6.07.09-12.42,2.77-16.17,6.81-2.94,3.16-4.65,7.4-3.84,8.37.57.68,3.27-.36,5.24-1.12,3.31-1.27,7.05-2.71,9.36-.8h0Z"/><path class="cls-3" d="m198.31,48.19c-2.83-1.99-8.74,4.12-11.84,1.74-2.22-1.7-1.85-6.87,0-10.36,4.65-8.75,22.79-11.48,30.7-3.45,4.18,4.23,5.8,11.66,3.41,13.81-2.94,2.65-10.32-4.23-13.38-1.74-4.67,3.8,9.06,22.59,3.14,29.36-2.96,3.38-10.51,3.4-13.65,0-6.28-6.81,6.29-26.06,1.61-29.36Z"/><path d="m203.57,81.09c-3.11,0-5.94-1.06-7.59-2.86-3.82-4.15-1.53-11.88.49-18.69,1.32-4.43,2.81-9.45,1.28-10.53-.91-.64-2.79.2-4.61,1-2.43,1.08-5.19,2.3-7.26.71-2.7-2.07-2.31-7.79-.27-11.63,2.29-4.31,7.64-7.47,14.3-8.46,7.25-1.08,13.97.71,17.98,4.77,2.94,2.98,4.91,7.69,4.8,11.45-.05,1.69-.55,3.01-1.43,3.81-1.94,1.75-4.89.53-7.73-.66-2.27-.94-4.62-1.92-5.69-1.05-1.6,1.3.15,6.23,1.84,11,2.35,6.63,5.01,14.14,1.42,18.24-1.54,1.76-4.29,2.84-7.34,2.88-.06,0-.12,0-.18,0Zm-4.7-33.72c2.71,1.9,1.22,6.93-.51,12.75-1.87,6.3-3.99,13.44-.94,16.75,1.27,1.38,3.62,2.22,6.15,2.22.05,0,.1,0,.15,0,2.5-.03,4.7-.86,5.88-2.21,2.81-3.21.36-10.13-1.81-16.24-2.1-5.92-3.91-11.04-1.22-13.23,1.97-1.6,4.87-.4,7.67.76,2.28.95,4.65,1.93,5.67,1.01.47-.42.74-1.26.77-2.37.08-2.75-1.35-7.06-4.23-9.98-3.51-3.56-9.75-5.17-16.29-4.2-5.96.88-10.88,3.73-12.84,7.42-1.77,3.33-1.91,7.83-.27,9.09,1.15.88,3.25-.05,5.28-.95,2.32-1.03,4.71-2.09,6.53-.81Z"/><path class="cls-3" d="m171.81,50.21c.33-1.16,5.5,1.14,8.57-1.02,2.77-1.96,3.43-7.37,1.44-10.31-5.26-7.79-21.26-9.25-27.25-3.65-5.02,4.69-2.32,23.62-3.21,31.07-.51,4.24-1.42,8.42,1.04,10.6,2.58,2.28,8.1,1.9,10.97-.72,4.5-4.1,1.56-13.07,2.77-13.29,1.69-.3,4.58,17.63,10.72,18.4,2.3.29,5.48-2.04,6.14-4.28,2.79-9.52-12.77-21.31-11.19-26.8Zm-9.93-6.87c-.01-1.83.78-3.53,2.02-4.31.13-.08,1.4-.81,2.89-.5,2,.43,3.43,2.45,3.35,3.95-.08,1.55-1.67,2.74-3.1,3.35-1.6.68-3.28.77-4.1.23-.65-.43-1.06-1.48-1.06-2.72Z"/><path d="m176.79,58.7c-2.42-3.28-5.22-6.99-4.34-8,.34-.39,1.33-.26,2.46-.11,1.78.24,4.03.58,5.98-.79,2.97-2.09,3.82-7.45,1.66-11.25-1.82-3.21-6.26-5.81-11.79-6.86-6.52-1.24-13.04-.07-16.75,2.98-3.11,2.55-2.93,5.13-2.6,10.2.28,4.32.68,10.88-.82,21.31-.05.35-.07.53-.12.88-.61,4.16-1.18,8.13,1.41,10.4.93.82,2.17,1.33,3.52,1.56,2.89.5,6.33-.29,8.52-2.28,3.26-2.97,2.97-8.12,2.79-11.2-.02-.16-.03-.31-.03-.45.34.88.74,1.99,1.09,2.99,1.97,5.66,4.5,13.42,9.02,13.97,2.82.34,5.81-2.17,6.95-4.72,2.48-5.54-2.66-12.82-6.94-18.62Zm3.08,17.8c-.14.46-1.25,3.99-2.93,4.05-2.87.11-6.64-9.92-7.68-12.94-1.39-4.02-1.99-5.69-3.28-5.46-1.07.19-1.01,1.34-.87,3.41.1,1.59.48,3.98-.13,5.72-.54,1.56-1.75,2.41-2.89,3.21-2.18,1.54-6.95,3.79-9.16,1.84-1.82-1.6-1.39-5.56-.9-9.05.05-.35.08-.53.12-.88,1.53-10.57,1.15-17.21.88-21.61-.3-4.87-.44-6.93,2.11-9.01,3.31-2.71,9.15-3.76,15.18-2.65.07.01.1.02.16.03,2.46.45,9.2,1.72,10.62,6.04.95,2.9-.92,5.82-1.22,6.3-.19.29-1.78,2.7-4.76,3.61-2.25.68-3.33-.09-3.94.61-1.09,1.24,1.55,4.65,4.3,9.82,3.06,5.77,6.05,11.56,4.4,16.96Z"/><path class="cls-5" d="m170.95,42.55c.1-1.9-1.63-4.23-4-4.74-1.87-.4-3.36.48-3.53.58-2.84,1.8-3.07,6.85-.95,8.28,2.33,1.56,8.29-.72,8.47-4.12Zm-3.91,3.28c-1.6.68-3.28.77-4.1.23-.65-.43-1.06-1.48-1.06-2.72-.01-1.83.78-3.53,2.02-4.31.13-.08,1.4-.81,2.89-.5,2,.43,3.43,2.45,3.35,3.95-.08,1.55-1.67,2.74-3.1,3.35Z"/><path d="m171.78,42.62c.12-2.16-1.73-4.92-4.68-5.55-.08-.01-.12-.02-.2-.04-2.07-.37-3.66.53-3.96.72-1.66,1.06-2.73,3.23-2.71,5.54.02,1.79.67,3.25,1.77,3.97.41.27.91.47,1.48.57,1.24.22,2.78,0,4.28-.64,1.86-.79,3.9-2.41,4.02-4.59Zm-4.74,3.21c-1.6.68-3.28.77-4.1.23-.65-.43-1.06-1.48-1.06-2.72-.01-1.83.78-3.53,2.02-4.31.13-.08,1.4-.81,2.89-.5,2,.43,3.43,2.45,3.35,3.95-.08,1.55-1.67,2.74-3.1,3.35Z"/><path class="cls-1" d="m167.04,45.83c-1.6.68-3.28.77-4.1.23-.65-.43-1.06-1.48-1.06-2.72-.01-1.83.78-3.53,2.02-4.31.13-.08,1.4-.81,2.89-.5,2,.43,3.43,2.45,3.35,3.95-.08,1.55-1.67,2.74-3.1,3.35Z"/><path d="m164.82,46.5c-.84,0-1.57-.17-2.11-.5-1-.62-1.61-1.96-1.62-3.58-.02-2.2,1.03-4.25,2.67-5.21.18-.11,1.81-1.01,3.79-.62,2.72.54,4.51,3.07,4.4,5-.13,2.54-3.07,3.89-3.97,4.25h0c-1.1.43-2.2.65-3.17.65Zm1.72-8c-1,0-1.78.44-1.79.45-1.01.59-1.69,1.98-1.68,3.46,0,1.03.34,1.69.67,1.89.44.28,1.83.36,3.53-.31,1.31-.52,2.66-1.49,2.71-2.49.05-.93-1.05-2.58-2.81-2.93-.22-.04-.43-.06-.63-.06Z"/></svg>