<?xml version="1.0" encoding="UTF-8"?><svg id="pelle" xmlns="http://www.w3.org/2000/svg" width="470.16" height="219.84" viewBox="0 0 470.16 219.84"><defs><style>.cls-1{fill:#001300;}.cls-2{fill:#e6e6e6;}.cls-3{fill:#fff;}.cls-4{fill:#3fa9f5;}.cls-5{fill:#29abe2;}.cls-6{fill:#754c24;}</style></defs><rect class="cls-2" x="2" y="2" width="466.16" height="215.84" rx="14" ry="14"/><path d="m454.16,219.84H16c-8.82,0-16-7.18-16-16V16C0,7.18,7.18,0,16,0h438.16c8.82,0,16,7.18,16,16v187.84c0,8.82-7.18,16-16,16ZM16,4c-6.62,0-12,5.38-12,12v187.84c0,6.62,5.38,12,12,12h438.16c6.62,0,12-5.38,12-12V16c0-6.62-5.38-12-12-12H16Z"/><rect x="244.78" y="169.72" width="114.3" height="34.15" rx="17.07" ry="17.07"/><path d="m342.01,205.37h-80.15c-10.24,0-18.57-8.33-18.57-18.57s8.33-18.57,18.57-18.57h80.15c10.24,0,18.57,8.33,18.57,18.57s-8.33,18.57-18.57,18.57Zm-80.15-34.15c-8.59,0-15.57,6.99-15.57,15.57s6.99,15.57,15.57,15.57h80.15c8.59,0,15.57-6.99,15.57-15.57s-6.99-15.57-15.57-15.57h-80.15Z"/><rect class="cls-4" x="242.88" y="168.3" width="113.83" height="33.2" rx="16.6" ry="16.6"/><path d="m340.11,202h-80.63c-9.43,0-17.1-7.67-17.1-17.1s7.67-17.1,17.1-17.1h80.63c9.43,0,17.1,7.67,17.1,17.1s-7.67,17.1-17.1,17.1Zm-80.63-33.2c-8.88,0-16.1,7.22-16.1,16.1s7.22,16.1,16.1,16.1h80.63c8.88,0,16.1-7.22,16.1-16.1s-7.22-16.1-16.1-16.1h-80.63Z"/><path d="m283.42,179.19c1.15,1.53,1.72,3.49,1.72,5.88,0,2.58-.66,4.73-1.97,6.45-1.54,2.01-3.74,3.02-6.59,3.02-2.66,0-4.76-.88-6.28-2.64-1.36-1.7-2.04-3.84-2.04-6.44,0-2.34.58-4.34,1.74-6.01,1.49-2.14,3.7-3.21,6.62-3.21s5.32.98,6.79,2.95Zm-2.07,11.04c.92-1.48,1.38-3.19,1.38-5.11,0-2.04-.53-3.68-1.6-4.92-1.06-1.24-2.52-1.86-4.37-1.86s-3.25.62-4.38,1.85-1.7,3.04-1.7,5.44c0,1.92.49,3.54,1.46,4.85.97,1.32,2.54,1.98,4.72,1.98s3.56-.74,4.48-2.22Z"/><path d="m287.94,176.72h2.29v8.47l8.66-8.47h3.28l-7.4,6.99,7.55,10.33h-3.07l-6.2-8.7-2.82,2.67v6.03h-2.29v-17.31Z"/><path d="m309.07,176.72h2.65l6.28,17.31h-2.57l-1.76-5.19h-6.85l-1.87,5.19h-2.4l6.52-17.31Zm3.85,10.22l-2.63-7.65-2.79,7.65h5.42Z"/><path d="m317.02,176.72h2.73l4.98,8.32,4.98-8.32h2.76l-6.56,10.34v6.98h-2.35v-6.98l-6.55-10.34Z"/><path class="cls-3" d="m282.12,178.17c1.15,1.53,1.72,3.49,1.72,5.88,0,2.58-.66,4.73-1.97,6.45-1.54,2.01-3.74,3.02-6.59,3.02-2.66,0-4.76-.88-6.28-2.64-1.36-1.7-2.04-3.84-2.04-6.44,0-2.34.58-4.34,1.74-6.01,1.49-2.14,3.7-3.21,6.62-3.21s5.32.98,6.79,2.95Zm-2.07,11.04c.92-1.48,1.38-3.19,1.38-5.11,0-2.04-.53-3.68-1.6-4.92-1.06-1.24-2.52-1.86-4.37-1.86s-3.25.62-4.38,1.85-1.7,3.04-1.7,5.44c0,1.92.49,3.54,1.46,4.85.97,1.32,2.54,1.98,4.72,1.98s3.56-.74,4.48-2.22Z"/><path class="cls-3" d="m286.63,175.69h2.29v8.47l8.66-8.47h3.28l-7.4,6.99,7.55,10.33h-3.07l-6.2-8.7-2.82,2.67v6.03h-2.29v-17.31Z"/><path class="cls-3" d="m307.76,175.69h2.65l6.28,17.31h-2.57l-1.76-5.19h-6.85l-1.87,5.19h-2.4l6.52-17.31Zm3.85,10.22l-2.63-7.65-2.79,7.65h5.42Z"/><path class="cls-3" d="m315.71,175.69h2.73l4.98,8.32,4.98-8.32h2.76l-6.56,10.34v6.98h-2.35v-6.98l-6.55-10.34Z"/><path class="cls-3" d="m119.13,85.46c5.27,7.07,4.88,19.58,4.73,24.43-.17,5.55-1.09,7.7-1.58,16.8-.47,8.87.08,12.73,0,16.8-.09,4.39-1.16,25.2-17.33,36.65-1.8,1.27-14.66,10.07-30.89,6.09-2.27-.56-14.16-3.46-21-14-10.06-15.49-2.81-37.61-7-38.49-.9-.19-1.12.83-3.5,1.75-3.46,1.34-8.87,1.37-12.25-1.75-4.16-3.84-3.3-10.34-1.75-14,2.74-6.47,10.46-10.66,14-8.75,2.91,1.57,2.66,7.09,3.5,7,.66-.07.23-3.53,1.75-8.75.73-2.52,1.07-3,1.75-5.25,1.47-4.88,1.69-8.51,1.82-9.37,1.59-10.02,53.96-27.65,67.74-9.16Z"/><path d="m82.48,187.74c-2.71,0-5.57-.3-8.54-1.03-5.36-1.31-15.25-4.91-21.3-14.21-6.24-9.61-5.91-21.75-5.69-29.79.12-4.42.23-8.23-.99-8.49-.21-.05-.33.03-.79.37-.47.35-1.17.87-2.42,1.35-3.66,1.41-9.21,1.44-12.77-1.85-4.56-4.22-3.32-11.14-1.87-14.56,1.94-4.58,6.16-7.8,9.47-8.96,2.06-.72,3.92-.73,5.22-.03,2.04,1.1,2.65,3.83,3.06,5.64.04.17.08.36.12.54.03-.25.06-.53.09-.8.16-1.56.41-3.92,1.26-6.83.4-1.36.68-2.14.96-2.9.25-.68.48-1.32.79-2.36,1.21-3.99,1.55-7.1,1.72-8.6.04-.32.06-.55.09-.71.87-5.47,14.75-12.03,27.67-15.21,7.26-1.79,31.67-6.65,40.97,5.83h0c5.38,7.22,4.98,19.95,4.82,24.75-.08,2.63-.33,4.51-.62,6.69-.33,2.49-.7,5.31-.96,10.12-.31,5.76-.18,9.43-.08,12.37.06,1.6.1,2.98.08,4.41-.11,5.86-1.72,25.84-17.54,37.05-1.97,1.4-10.89,7.2-22.76,7.2Zm-36.62-54.53c.1,0,.2.01.31.03,2.03.43,1.94,3.84,1.79,9.49-.22,7.91-.54,19.87,5.53,29.22,5.85,9.01,15.48,12.51,20.69,13.78,15.55,3.81,28.12-4.34,30.48-6.02,15.44-10.93,17.01-30.51,17.12-36.25.03-1.4-.02-2.77-.08-4.35-.1-2.96-.23-6.65.08-12.46.26-4.85.63-7.69.96-10.2.28-2.15.53-4.01.61-6.59.15-4.7.54-17.18-4.63-24.12h0c-8.93-11.98-32.82-7.2-39.93-5.45-14.13,3.48-26.21,9.94-26.92,14.39-.02.14-.05.37-.08.66-.17,1.52-.52,4.7-1.76,8.78-.32,1.06-.57,1.75-.81,2.41-.27.74-.55,1.51-.94,2.84-.83,2.82-1.07,5.13-1.23,6.65-.17,1.63-.25,2.38-.95,2.45-.75.09-.94-.78-1.23-2.08-.37-1.63-.92-4.09-2.56-4.98-1.05-.57-2.62-.54-4.42.09-3.11,1.09-7.06,4.11-8.88,8.41-1.26,2.96-2.54,9.59,1.63,13.43,3.1,2.86,8.24,3,11.73,1.65,1.13-.43,1.74-.89,2.19-1.22.42-.31.78-.58,1.28-.58Z"/><path class="cls-3" d="m81.06,126.73c-5.83-.58-11.66-1.17-17.5-1.75-.18-1.69-.31-4.11,0-7,.41-3.85,1.25-11.74,7-15.75.92-.64,5.16-3.6,8.75-1.75,2.61,1.35,3.34,4.46,3.5,5.25"/><path d="m81.01,127.23l-17.9-1.79-.04-.4c-.25-2.36-.25-4.75,0-7.1.41-3.88,1.28-11.96,7.21-16.1,3.49-2.43,6.78-3.06,9.26-1.78,2.64,1.36,3.51,4.37,3.76,5.59l-.98.2c-.22-1.09-.98-3.74-3.24-4.9-2.14-1.11-5.06-.5-8.23,1.71-5.56,3.88-6.39,11.65-6.79,15.39-.23,2.15-.24,4.33-.04,6.49l17.09,1.71-.1.99Z"/><path class="cls-3" d="m95.31,126c5.86-.06,11.72-.13,17.58-.19.33-1.66.67-4.07.62-6.97-.07-3.87-.2-11.8-5.57-16.31-.86-.72-4.82-4.05-8.56-2.52-2.72,1.11-3.72,4.14-3.95,4.92"/><path d="m95.32,126.5v-1s17.16-.18,17.16-.18c.39-2.13.57-4.31.54-6.47-.07-3.76-.2-11.58-5.39-15.93-2.96-2.48-5.82-3.35-8.05-2.44-2.35.96-3.34,3.54-3.66,4.6l-.96-.29c.36-1.2,1.49-4.11,4.24-5.24,2.59-1.06,5.81-.13,9.07,2.6,5.54,4.65,5.68,12.78,5.75,16.68.04,2.36-.17,4.74-.63,7.08l-.08.4-17.99.19Z"/><path class="cls-3" d="m89.05,131.84c7.59,4.76,10.41,11.34,8.75,14-1.52,2.44-7.53,2.76-14,0"/><path d="m92.45,148.29c-2.59,0-5.72-.66-8.85-2l.39-.92c6.38,2.72,12.07,2.3,13.38.2,1.45-2.33-1.18-8.67-8.59-13.31l.53-.85c7.65,4.79,10.84,11.59,8.91,14.69-.91,1.46-3.04,2.2-5.77,2.2Z"/><circle class="cls-1" cx="76.86" cy="117.83" r="4.53"/><circle class="cls-1" cx="103.27" cy="117.99" r="4.53"/><path class="cls-6" d="m123.93,90.86c2.62-.45,4.05-4.56,4.35-5.38.69-1.91.7-3.62.62-4.66.56.66,2.99,3.37,6.77,3.54,3.95.17,8.22-2.49,8.46-5.31.24-2.82-3.7-3.98-3.39-7.08.22-2.15,2.18-2.24,3.39-5.31.12-.31,1.73-4.54,0-7.08-2.35-3.44-8.85-.77-10.16-3.54-.98-2.06,2.36-4.11,1.69-7.08-.79-3.55-6.88-6.48-11.85-5.31-5.81,1.38-8.26,7.96-10.16,7.08-1.63-.76.56-5.38-1.69-8.84-2.81-4.31-11.63-5.49-16.93-1.77-5.69,4-5.49,12.39-8.46,12.38-2.35,0-2.51-5.24-6.77-7.08-4.24-1.83-9.19,1.18-10.16,1.77-6.49,3.95-7.05,10.83-10.16,10.61-2.93-.21-3.39-6.42-6.77-7.08-2.94-.57-3.47,5.37-8.46,7.08-4.09,1.4-6.81-1.29-9.31.88-1.4,1.22-2.21,3.5-1.69,5.31,1.14,3.98,8.55,4.94,8.46,5.31-.1.41-8.72-3.54-15.24,0-2.83,1.54-5.63,4.69-5.08,7.08.82,3.51,8.6,3.99,8.46,5.31-.12,1.15-5.97-.06-10.16,3.54-2.85,2.45-4.69,6.93-3.39,8.84,2.21,3.25,13.01-1.45,13.54,0,.47,1.3-8.49,4.29-8.46,8.84.01,2.42,2.55,5.03,5.08,5.31,4.9.53,8.88-7.84,10.16-7.08,1.33.79-2.94,9.78-1.69,10.61.75.5,3.47-1.94,10.16-10.61-.55,2.98-1.1,5.96-1.65,8.94l5.25,5.25c.36-8.52,3.06-14.14,5.25-17.5,10.34-15.86,35.64-21.74,62.99-14,1.29,4.7,4.58,7.42,7,7Z"/><path d="m49.03,116.23l-5.99-5.99,1.4-7.62c-8.19,10.49-9.18,9.83-9.72,9.48-.81-.54-.29-2.41.7-5.66.49-1.61,1.4-4.61,1.01-4.94-.29-.01-1.29,1.13-2.02,1.97-2,2.32-4.73,5.5-7.99,5.15-2.72-.29-5.4-3.11-5.41-5.68-.01-3.07,3.58-5.35,6.2-7.02.94-.6,2.24-1.42,2.28-1.73-.29-.19-2.33.24-3.82.55-3.65.77-8.2,1.74-9.68-.44-1.51-2.23.65-6.93,3.45-9.34,2.7-2.32,6-2.7,8.18-2.95.77-.09,1.72-.2,1.86-.37-.11-.23-1.41-.67-2.37-.98-2.35-.78-5.56-1.84-6.1-4.18-.6-2.57,2.21-5.83,5.27-7.49,3.31-1.8,7.09-1.73,10.11-1.25-1.59-.81-3.04-1.97-3.52-3.63-.54-1.88.24-4.33,1.81-5.69,1.46-1.26,3-1.03,4.63-.78,1.39.21,2.97.45,4.81-.18,2.46-.84,3.77-2.74,4.93-4.41,1.11-1.61,2.07-2.99,3.73-2.68,1.89.37,2.94,2.29,3.86,3.98.84,1.54,1.63,3,2.87,3.09,1.23.09,2.07-1.29,3.23-3.19,1.35-2.21,3.19-5.24,6.71-7.37,3.92-2.38,7.65-3.02,10.5-1.79,2.42,1.04,3.56,3.1,4.48,4.75.71,1.28,1.28,2.29,2.14,2.3h0c1.11,0,1.77-1.69,2.62-3.83,1.1-2.79,2.46-6.26,5.63-8.48,2.87-2.02,6.91-2.77,10.82-2.02,2.99.58,5.41,1.99,6.64,3.89,1.3,1.99,1.2,4.28,1.12,6.11-.05,1.27-.1,2.36.41,2.6.58.27,1.51-.76,2.59-1.95,1.66-1.83,3.93-4.34,7.33-5.15,2.89-.69,6.36-.06,9.06,1.62,1.77,1.1,2.92,2.51,3.24,3.97.37,1.65-.38,3.01-1.04,4.21-.58,1.05-1.08,1.95-.68,2.79.53,1.11,2.16,1.19,4.04,1.28,2.22.11,4.74.24,6.08,2.2,1.82,2.67.23,6.94.04,7.42-.62,1.59-1.46,2.43-2.13,3.11-.66.67-1.14,1.15-1.24,2.1-.15,1.43.73,2.41,1.65,3.44.92,1.03,1.87,2.1,1.74,3.63-.26,3.04-4.65,5.85-8.85,5.65-2.96-.13-5.14-1.75-6.35-2.93,0,1.31-.23,2.58-.67,3.8-1.53,4.25-3.36,5.4-4.64,5.62h0c-2.46.43-5.94-2.15-7.37-7.06-26.96-7.57-52.01-1.99-62.37,13.9-3.16,4.85-4.91,10.67-5.19,17.31l-.04.85Zm-5.18-6.24l4.51,4.51c.4-6.42,2.17-12.09,5.27-16.84,10.57-16.21,36.05-21.89,63.4-14.15l.2.06.06.2c1.23,4.49,4.4,7.09,6.57,6.73h0c1.52-.26,2.96-2.07,4.04-5.09.53-1.47.73-2.98.61-4.54l-.09-1.15.75.88c.83.97,3.12,3.26,6.5,3.41,3.77.2,7.85-2.34,8.08-4.96.1-1.21-.7-2.11-1.55-3.07-.94-1.06-2.01-2.26-1.84-4.02.12-1.22.77-1.87,1.45-2.55.65-.66,1.39-1.4,1.96-2.85.07-.18,1.67-4.34.04-6.73-1.13-1.66-3.35-1.77-5.5-1.88-2.04-.1-3.97-.2-4.68-1.71-.56-1.18.05-2.29.7-3.47.63-1.14,1.27-2.31.97-3.68-.28-1.26-1.31-2.5-2.91-3.5-2.49-1.56-5.83-2.16-8.49-1.53-3.17.75-5.35,3.16-6.94,4.92-1.38,1.53-2.38,2.63-3.46,2.13-.96-.45-.91-1.71-.85-3.31.07-1.73.16-3.88-1-5.67-1.12-1.72-3.37-3.02-6.16-3.56-3.65-.7-7.58.02-10.24,1.89-2.99,2.1-4.3,5.45-5.36,8.14-.95,2.41-1.69,4.31-3.31,4.31h0c-1.3,0-1.99-1.24-2.79-2.68-.87-1.55-1.94-3.49-4.12-4.42-3.54-1.52-7.67.44-9.82,1.74-3.36,2.04-5.07,4.86-6.45,7.12-1.25,2.05-2.23,3.67-3.92,3.55-1.65-.12-2.57-1.82-3.47-3.48-.88-1.62-1.8-3.3-3.34-3.6-1.12-.22-1.83.71-2.97,2.37-1.16,1.68-2.61,3.77-5.3,4.7-2.01.69-3.68.43-5.16.21-1.58-.24-2.83-.43-4.03.61-1.34,1.17-2.04,3.33-1.58,4.92.8,2.8,5.07,4.04,7.11,4.63,1.09.32,1.46.42,1.35.86l-.04.15-.15.1c-.22.13-.46.06-1.48-.22-2.64-.74-8.81-2.47-13.75.21-2.76,1.5-5.39,4.54-4.89,6.66.45,1.92,3.43,2.91,5.6,3.63,1.78.59,2.95.98,2.87,1.79-.07.74-.99.84-2.51,1.01-2.09.24-5.26.6-7.78,2.77-2.76,2.37-4.47,6.66-3.32,8.35,1.2,1.76,5.65.82,8.9.13,2.72-.58,4.36-.92,4.68-.04.28.77-.8,1.45-2.59,2.59-2.48,1.57-5.86,3.72-5.85,6.38.01,2.19,2.4,4.68,4.74,4.94,2.86.31,5.45-2.7,7.34-4.9,1.38-1.61,2.22-2.57,2.97-2.13.88.53.35,2.45-.68,5.81-.51,1.67-1.36,4.46-1,4.82.28.08,1.85-.4,9.65-10.53l.95-1.23-1.89,10.27Z"/><path d="m83.98,179.18c-1.1,0-2.18-.09-3.24-.27-5.94-1.01-11.65-4.96-15.29-10.59-3.74-5.78-4.85-12.58-3.14-19.13l.97.25c-1.64,6.28-.57,12.79,3.02,18.34,3.49,5.4,8.95,9.19,14.62,10.15,6.1,1.03,13.2-1.14,18.55-5.67,5.38-4.56,8.34-10.85,8.32-17.7h1c.02,7.15-3.06,13.7-8.68,18.46-4.64,3.93-10.58,6.15-16.12,6.15Z"/><rect x="85.33" y="128.78" width="1" height="46.27" transform="translate(-74.48 220.83) rotate(-83.8)"/><rect x="84.33" y="133.78" width="1" height="46.27" transform="translate(-80.34 224.29) rotate(-83.8)"/><rect x="81.83" y="163.32" width="1" height="23.19" transform="translate(-101.77 233.93) rotate(-82.57)"/><path class="cls-5" d="m252.17,21.91c-4.59-5.5-6.85-6.86-6.34-8.64.84-2.89,8.4-4.8,13.25-2.02,4.41,2.52,4.27,7.59,6.91,7.78,3.67.25,4.89-9.46,9.79-10.08,4.04-.51,9.67,5.24,9.22,10.08-.54,5.81-9.39,5.35-12.96,12.96-4.16,8.87,4.08,17.49-.29,21.89-2.84,2.86-9.55,2.49-12.1-.58-3.59-4.32,3.78-10.76.58-19.87-1.13-3.22-3.44-5.99-8.07-11.52Z"/><path d="m266.15,56.83c-.18,0-.36,0-.54-.01-2.82-.12-5.34-1.2-6.73-2.87-2.05-2.47-1.15-5.44-.19-8.59,1.01-3.34,2.16-7.12.59-11.59-1.07-3.05-3.35-5.78-7.89-11.21h0c-1.44-1.73-2.66-3.04-3.63-4.1-2.27-2.47-3.41-3.71-2.9-5.46.37-1.27,1.6-2.38,3.48-3.14,3-1.21,7.64-1.52,11.22.54,2.56,1.47,3.71,3.65,4.63,5.4.74,1.41,1.19,2.2,1.86,2.25,1.12.1,2.23-1.93,3.3-3.86,1.51-2.73,3.23-5.82,6.3-6.21,2.06-.25,4.55.81,6.68,2.86,2.51,2.43,3.91,5.61,3.66,8.3-.32,3.42-2.99,4.95-5.82,6.57-2.61,1.5-5.58,3.19-7.23,6.73-2.01,4.28-.88,8.6.12,12.4.98,3.73,1.9,7.25-.6,9.77-1.41,1.42-3.74,2.24-6.31,2.24Zm-13.22-35.56c4.69,5.62,7.05,8.44,8.24,11.83,1.79,5.09.48,9.39-.57,12.84-.99,3.25-1.48,5.17-.18,6.73,1.02,1.23,3.04,2.05,5.28,2.15,2.23.1,4.22-.52,5.34-1.64,1.61-1.62,1.08-4.04.08-7.86-1.03-3.93-2.31-8.82,0-13.76,1.93-4.1,5.32-6.05,8.05-7.61,2.57-1.47,4.6-2.63,4.82-5.02.19-2.07-1.01-4.7-3.06-6.68-1.67-1.61-3.6-2.5-5.03-2.31-2.06.26-3.45,2.77-4.8,5.2-1.44,2.6-2.8,5.06-5.19,4.89-1.81-.13-2.63-1.67-3.49-3.31-.84-1.6-1.79-3.41-3.85-4.59-2.99-1.71-7.01-1.42-9.48-.42-1.26.51-2.12,1.2-2.31,1.85-.19.65.57,1.5,2.45,3.55.99,1.07,2.22,2.41,3.69,4.17l-.77.64.77-.64Z"/><path class="cls-5" d="m321.29,40.22c-.9-7.02-8.81-14.55-20.02-14.57-10.95-.02-19.03,7.14-20.02,13.84-1.39,9.36,10.85,19,23.1,17.85,10.24-.97,17.95-9.24,16.94-17.12Zm-18.48,3.64c-2.57.11-4.66-1.38-5.13-2.91-.7-2.26,2.06-4.85,5.13-4.74,2.55.09,4.74,2.02,4.62,4.01-.11,1.71-1.93,3.53-4.62,3.64Z"/><path d="m302.39,58.44c-6.55,0-13.35-2.84-17.8-7.53-3.37-3.56-4.91-7.66-4.33-11.56,1.05-7.07,9.37-14.7,20.97-14.7h.04c11.76.02,20.07,8.03,21.01,15.45h0c.46,3.59-.73,7.37-3.35,10.64-3.43,4.29-8.72,7.06-14.5,7.61-.68.06-1.37.1-2.06.1Zm-1.15-31.79c-8.25,0-17.84,5.21-19,12.99-.49,3.27.86,6.79,3.8,9.89,4.51,4.76,11.66,7.44,18.22,6.82,5.17-.49,10.07-3.05,13.12-6.87,2.27-2.84,3.31-6.09,2.92-9.13-.84-6.57-8.36-13.68-19.03-13.7h-.03Zm1.3,18.22c-2.95,0-5.25-1.81-5.82-3.63-.36-1.18-.09-2.44.78-3.57,1.2-1.56,3.3-2.54,5.35-2.46,1.68.06,3.33.81,4.4,2,.83.91,1.24,2,1.18,3.07-.13,2.14-2.26,4.44-5.58,4.58h0c-.11,0-.21,0-.32,0Zm.09-7.66c-1.36,0-2.77.66-3.54,1.68-.27.35-.68,1.04-.45,1.77.31.99,1.91,2.31,4.14,2.21h0c2.1-.09,3.59-1.47,3.67-2.71.03-.53-.2-1.1-.66-1.6-.72-.8-1.84-1.3-2.99-1.34-.05,0-.1,0-.15,0Z"/><path class="cls-5" d="m341.06,23.26c-1.98-2.38-6.44-1.62-8.92,1.03-4.96,5.31-4.58,20.99,2.7,28.27,6,5.99,14.92,4.54,20.27-1.03,8.14-8.47,7.83-26.21,3.51-29.65-2.61-2.08-7.82.17-9.46,4.14-2.04,4.92,2.08,10.81,0,13.44-1.31,1.65-4.54,1.36-6.22-.69-3.2-3.9,1-12.02-1.89-15.51Z"/><path d="m344.06,57.43c-3.77,0-7.19-1.44-9.92-4.16-7.6-7.59-8.11-23.9-2.73-29.66,1.66-1.78,4.14-2.86,6.45-2.78,1.64.05,3.05.68,3.97,1.79,1.68,2.02,1.37,5.12,1.08,8.11-.28,2.81-.56,5.72.82,7.4.71.87,1.85,1.38,2.97,1.39.73,0,1.35-.26,1.69-.69.71-.89.33-2.68-.12-4.75-.56-2.63-1.2-5.61-.02-8.45,1.05-2.53,3.48-4.61,6.18-5.31,1.88-.48,3.6-.21,4.83.78,1.8,1.43,3,4.82,3.3,9.29.42,6.41-1.08,15.97-6.72,21.83-3.14,3.27-7.38,5.17-11.63,5.21-.05,0-.1,0-.15,0Zm-6.4-34.6c-1.69,0-3.55.83-4.78,2.15-4.73,5.06-4.13,20.08,2.68,26.88,2.38,2.37,5.36,3.66,8.64,3.58,3.72-.04,7.44-1.71,10.21-4.59,5.18-5.39,6.56-14.31,6.16-20.31-.25-3.79-1.23-6.81-2.55-7.86-.73-.58-1.83-.73-3.09-.4-2.08.54-4.02,2.2-4.83,4.14-.94,2.27-.37,4.92.13,7.27.53,2.46,1.02,4.78-.27,6.41-.72.91-1.9,1.43-3.24,1.45-1.7,0-3.45-.8-4.53-2.12-1.9-2.32-1.58-5.65-1.26-8.87.27-2.71.52-5.26-.63-6.64-.7-.84-1.74-1.04-2.49-1.07-.05,0-.1,0-.15,0Z"/><path class="cls-5" d="m166.27,70.57c-15.9,10.5-18.51,41.72-10.66,63.11,1.9,5.16,7.11,19.37,17.76,21.69,5.27,1.15,9.77-1.07,11.55-1.97,17.16-8.75,17.22-36.25,23.98-36.48,7.71-.27,8.1,35.43,23.09,40.43,10.97,3.65,24.7-10.82,31.09-21.69,13.5-22.99,10.94-58.39-4.44-69.02-1.34-.93-7.92-5.47-14.21-2.96-14.23,5.68-12.13,41.5-20.43,42.4-4.9.53-7.25-11.79-14.21-11.83-7.36-.05-10.59,13.71-15.1,12.82-6.84-1.35-2.45-33.61-14.21-39.44-5.56-2.76-12.22,1.64-14.21,2.96Z"/><path d="m235.61,159.42c-1.42,0-2.78-.22-4.09-.65-9.26-3.08-13.22-16.36-16.4-27.02-1.78-5.97-4-13.38-6.17-13.33-1.74.06-3.49,5-5.19,9.79-3.16,8.9-7.48,21.08-18.16,26.53-1.64.84-6.64,3.4-12.55,2.1-11.46-2.5-16.83-17.13-18.85-22.64-8.03-21.87-5.39-53.89,11.24-64.88l.83,1.25-.83-1.25c6.22-4.11,11.5-5.13,15.7-3.05,7.33,3.63,8.86,15.44,10.21,25.87.75,5.82,1.69,13.07,3.63,13.45,1.08.2,2.88-2.43,4.33-4.56,2.52-3.7,5.65-8.29,10.45-8.29h.05c4.5.03,7.29,4.12,9.53,7.41,1.54,2.25,3.12,4.58,4.51,4.43,2.6-.28,4.36-8.03,5.91-14.86,2.55-11.24,5.44-23.97,14.12-27.44,4.54-1.82,10.09-.71,15.62,3.12,16.11,11.13,18.61,47.64,4.88,71.02-3.68,6.26-8.98,12.51-14.18,16.7-5.17,4.17-10.14,6.3-14.59,6.3Zm-26.6-44c4.38,0,6.32,6.51,8.99,15.47,2.98,10,6.69,22.44,14.47,25.04,9.79,3.25,23.04-10.33,29.32-21.03,13.05-22.21,10.99-56.67-4-67.03-4.68-3.23-9.22-4.23-12.8-2.8-7.21,2.88-10.04,15.32-12.31,25.32-2.11,9.31-3.79,16.67-8.52,17.18-3.18.34-5.28-2.74-7.31-5.73-2.03-2.99-4.14-6.08-7.07-6.1h-.03c-3.21,0-5.74,3.71-7.97,6.98-2.25,3.29-4.37,6.4-7.38,5.81-4.05-.8-4.92-7.51-6.02-16.01-1.19-9.2-2.67-20.64-8.57-23.56-3.18-1.58-7.46-.61-12.72,2.87-15.01,9.92-17.7,40.56-10.08,61.34,1.87,5.08,6.83,18.59,16.68,20.74,4.86,1.06,9.14-1.12,10.55-1.84,9.62-4.91,13.71-16.44,16.7-24.86,2.4-6.76,4.13-11.65,7.91-11.78.05,0,.11,0,.16,0Z"/><path class="cls-5" d="m337.69,81.42c-8.59-16.78-45.42-18.42-55.07-1.97-3.14,5.35-4.34,14.2-.89,18.73,4.18,5.5,12.37.92,16.88,6.9,3.28,4.35,3.2,12.41,0,15.78-4.22,4.44-12.28-2.37-16.88,1.97-3.47,3.27-3.39,11.47-.89,16.76,7.43,15.71,42.57,19.06,55.07,1.97,4.72-6.45,6.97-16.85,3.55-20.71-5.04-5.69-19.44,6.18-24.87,0-2.98-3.39-2.45-11.3.89-15.78,6.02-8.07,18.59-1.58,23.09-8.87,2.65-4.29,1.05-11-.89-14.79Z"/><path d="m309.12,154.45c-1.53,0-3.02-.07-4.45-.21-11.99-1.14-21.64-6.51-25.19-14.01-2.68-5.67-2.85-14.66,1.21-18.5,2.86-2.7,6.59-1.97,9.89-1.33,3.35.65,5.49.93,6.93-.58,2.75-2.89,2.69-10.13-.11-13.84-1.9-2.52-4.59-2.77-7.7-3.06-3.15-.29-6.73-.62-9.17-3.84-3.9-5.13-2.63-14.58.79-20.4,4.65-7.92,15.67-12.6,28.77-12.23,13.33.38,24.68,5.99,28.93,14.28h0c2.37,4.64,3.64,11.7.83,16.26-2.6,4.22-7.3,4.53-11.85,4.83-4.45.3-8.66.58-11.32,4.15-2.94,3.94-3.43,11.08-.96,13.89,2.13,2.42,6.8,1.01,11.32-.35,5.14-1.55,10.45-3.16,13.55.35,4.09,4.63,1.54,15.74-3.47,22.59-6.51,8.89-18.04,12-28,12Zm-23.13-31.65c-1.25,0-2.35.28-3.23,1.12-2.73,2.57-3,9.88-.56,15.03,3.1,6.55,11.82,11.26,22.76,12.31,9.95.95,22.98-1.33,29.75-10.58,4.55-6.22,6.39-15.72,3.64-18.83-1.83-2.07-6.01-.81-10.43.53-5.17,1.56-11.03,3.34-14.44-.54-3.44-3.91-3.04-12.49.81-17.66,3.49-4.68,8.82-5.04,13.53-5.35,4.13-.27,7.7-.51,9.49-3.42,2.35-3.81.72-10.05-.95-13.32h0c-3.75-7.33-14.09-12.3-26.34-12.65-12-.36-22,3.77-26.1,10.75-2.88,4.91-3.99,13.12-.99,17.07,1.65,2.17,4.16,2.4,7.06,2.67,3.34.31,7.12.66,9.82,4.24,3.67,4.86,3.61,13.8-.11,17.71-2.68,2.82-6.4,2.1-9.68,1.46-1.46-.28-2.81-.54-4.02-.54Z"/><path class="cls-5" d="m361.67,80.43c-17.17,11.37-17.94,54.1-.89,67.05,8.26,6.27,21.81,6.4,25.76,0,5.74-9.29-10.55-29.42-7.11-32.54,2.5-2.27,13.97,5.79,22.21,16.76,7.64,10.17,7.51,16.21,13.32,18.73,7.42,3.22,17.04-2.52,22.21-7.89,18.74-19.49,11.32-68.07-2.66-72.97-6.31-2.21-15.45,3.94-18.65,11.83-6.09,14.97,10.31,33.45,6.22,37.47-2.99,2.93-14.95-3.69-23.09-13.8-9.45-11.73-7.74-20.69-15.99-25.64-6.67-4-15.58-2.81-21.32.99Z"/><path d="m375.29,153.75c-5.43,0-11.14-1.83-15.41-5.07-6.67-5.07-13.58-17.31-12.96-36.5.49-14.99,5.82-27.63,13.92-33,5.64-3.73,15.21-5.64,22.92-1.02,4.85,2.91,6.57,7.1,8.55,11.95,1.68,4.11,3.59,8.76,7.83,14.03,6.46,8.03,15.34,13.69,19.57,13.94.62.03,1.1-.06,1.3-.26.93-.91-1.02-5.49-2.59-9.17-3.3-7.73-7.82-18.31-3.96-27.79,3.64-8.94,13.62-15.1,20.54-12.68,5.44,1.9,10.09,9.42,12.77,20.62,4.13,17.33,2.92,41.87-9.52,54.81-6.07,6.32-16.14,11.59-23.88,8.22-3.86-1.68-5.4-4.64-7.53-8.75-1.45-2.8-3.26-6.29-6.4-10.46-8.14-10.85-18.08-17.12-19.98-16.54-.35,1.13,1.77,5.73,3.19,8.79,3.55,7.69,7.97,17.26,4.17,23.42-1.61,2.61-4.54,4.38-8.47,5.11-1.32.25-2.68.36-4.07.36Zm-1.71-75.27c-4.11,0-8.16,1.28-11.07,3.21h0c-7.31,4.84-12.13,16.56-12.58,30.59-.48,14.87,4.14,28.22,11.77,34.01,4.64,3.52,11.51,5.19,17.11,4.14,3.03-.56,5.32-1.89,6.46-3.74,2.95-4.79-1.26-13.92-4.34-20.59-2.85-6.17-4.73-10.25-2.5-12.28.46-.42,1.29-.88,2.68-.75,4.92.47,14.88,8.59,21.74,17.72,3.28,4.37,5.15,7.98,6.66,10.88,1.98,3.82,3.18,6.13,6.06,7.38,6.87,2.98,16.04-2.88,20.53-7.55,11.14-11.58,12.84-34.94,8.76-52.03-2.36-9.89-6.51-16.97-10.84-18.48-5.33-1.87-13.8,3.68-16.77,10.98-3.38,8.32.85,18.24,3.94,25.48,2.51,5.89,4.33,10.14,1.94,12.49-.84.83-2.05,1.19-3.58,1.12-5.66-.33-15.21-6.94-21.73-15.05-4.52-5.61-6.6-10.69-8.27-14.78-1.93-4.71-3.33-8.12-7.32-10.52-2.65-1.59-5.66-2.26-8.65-2.26Z"/></svg>