<?xml version="1.0" encoding="UTF-8"?><svg id="pollen" xmlns="http://www.w3.org/2000/svg" width="311.42" height="614.07" viewBox="0 0 311.42 614.07"><defs><style>.cls-1{fill:#999;}.cls-2{fill:#8c6239;}.cls-3{fill:#b3b3b3;}.cls-4{fill:#666;}.cls-5{fill:#42210b;}.cls-6{fill:#603813;}.cls-7{fill:#4d4d4d;}</style></defs><path class="cls-6" d="m92.44,602.25c2.79,3.54,5.59,7.08,8.38,10.62,38.48-41.29,76.95-82.58,115.43-123.87-3.41-3.54-6.83-7.08-10.24-10.62-37.85,41.29-75.71,82.58-113.56,123.87Z"/><path class="cls-6" d="m216.05,602.42c-2.79,3.54-5.59,7.08-8.38,10.62-38.48-41.29-76.95-82.58-115.43-123.87,3.41-3.54,6.83-7.08,10.24-10.62,37.85,41.29,75.71,82.58,113.56,123.87Z"/><path class="cls-2" d="m93.74,613.54c-4.33-.33-8.67-.67-13-1,0,0,49-354,49-354h-11v-19h68v17h-11c17.33,118.67,34.67,237.33,52,356h-16c-15.33-117.67-30.67-235.33-46-353-8,.33-16,.67-24,1-16,117.67-32,235.33-48,353Z"/><path class="cls-6" d="m94.17,614.07l-14-1.08.07-.53,48.92-353.43h-10.93v-20h69v18h-10.92l52,356h-17.02l-46-352.98-23.12.96-48.01,353.05Zm-12.86-1.99l12,.92,47.99-352.95,24.88-1.04.06.45,45.94,352.56h14.98l-52-356h11.08v-16h-67v18h11.07l-.08.57-48.93,353.47Z"/><path class="cls-6" d="m108.39,484.14c2.09,2.92,4.19,5.83,6.28,8.75,28.86-34.04,57.71-68.07,86.57-102.11-2.56-2.92-5.12-5.83-7.68-8.75-28.39,34.04-56.78,68.07-85.17,102.11Z"/><path class="cls-6" d="m201.09,484.29c-2.09,2.92-4.19,5.83-6.28,8.75-28.86-34.04-57.71-68.07-86.57-102.11,2.56-2.92,5.12-5.83,7.68-8.75,28.39,34.04,56.78,68.07,85.17,102.11Z"/><path class="cls-6" d="m99.71,373.07c-.07,6.24-.15,12.47-.22,18.71,17.53-.29,35.22-.5,53.06-.62,18.86-.13,37.56-.15,56.08-.08.57-6.27,1.14-12.54,1.71-18.81-18.77-.06-37.72-.01-56.83.13-18.09.14-36.02.36-53.8.67Z"/><path class="cls-5" d="m212.54,502.17c-.15-6.53-.31-13.05-.46-19.58-18.38.06-36.93.03-55.64-.1-19.78-.13-39.4-.37-58.83-.71-.37,6.55-.73,13.11-1.1,19.66,19.7.32,39.57.55,59.61.67,18.97.11,37.77.13,56.41.06Z"/><path class="cls-6" d="m104.5,317.2c-3.86,1.23-6.43,4.89-6.26,8.83.16,3.69,2.67,6.93,6.26,8.07,9.85,4.09,26.38,9.49,47.43,9.77,23.18.3,41.15-5.79,51.25-10.09,3.63-1.48,6.02-4.95,6.06-8.75.04-5.29-4.51-8.12-4.72-8.24-8.57-4.48-27.04-12.63-51.69-12.2-22.94.4-39.96,8.1-48.34,12.61Z"/><polygon class="cls-1" points="155.08 147.73 135.52 239.51 130.1 238.82 149.66 147.04 155.08 147.73"/><polygon class="cls-1" points="149.86 147.81 167.73 239.79 173.16 239.16 155.29 147.17 149.86 147.81"/><rect class="cls-1" x="147.24" y="159.04" width="11" height="64" rx="5.5" ry="5.5" transform="translate(305.48 382.07) rotate(180)"/><path class="cls-3" d="m152.96,225.04c-43.7,0-79.25-35.55-79.25-79.25s35.55-79.25,79.25-79.25,79.25,35.55,79.25,79.25-35.55,79.25-79.25,79.25Zm0-155.5c-42.05,0-76.25,34.21-76.25,76.25s34.21,76.25,76.25,76.25,76.25-34.21,76.25-76.25-34.21-76.25-76.25-76.25Z"/><path class="cls-3" d="m152.82,201.53c-30.56,0-55.42-24.86-55.42-55.42s24.86-55.42,55.42-55.42,55.42,24.86,55.42,55.42-24.86,55.42-55.42,55.42Zm0-107.84c-28.9,0-52.42,23.51-52.42,52.42s23.51,52.42,52.42,52.42,52.42-23.51,52.42-52.42-23.51-52.42-52.42-52.42Z"/><polygon class="cls-4" points="194.75 0 209.07 5.57 223.39 11.14 186.82 83.96 150.25 156.78 172.5 78.39 194.75 0"/><polygon class="cls-4" points="6.47 192.46 3.23 177.44 0 162.42 80.93 152.86 161.85 143.3 84.16 167.88 6.47 192.46"/><polygon class="cls-4" points="257.9 253.97 245.85 263.5 233.8 273.04 189.49 204.65 145.18 136.26 201.54 195.12 257.9 253.97"/><polygon class="cls-4" points="311.42 171.58 307.39 186.4 303.35 201.23 227.09 172.51 150.83 143.79 231.13 157.68 311.42 171.58"/><polygon class="cls-4" points="297.12 67.58 303.11 81.73 309.1 95.88 231.4 120.43 153.7 144.98 225.41 106.28 297.12 67.58"/><polygon class="cls-4" points="56.47 266.5 45.74 255.5 35.01 244.51 98.43 193.34 161.86 142.18 109.16 204.34 56.47 266.5"/><polygon class="cls-4" points="12.62 89.35 19.71 75.72 26.8 62.09 95.23 106.33 163.66 150.58 88.14 119.96 12.62 89.35"/><polygon class="cls-4" points="79.98 12.01 94.21 6.2 108.43 .39 131.99 78.4 155.54 156.41 117.76 84.21 79.98 12.01"/><circle class="cls-7" cx="152.85" cy="145.55" r="21.9"/></svg>