<?xml version="1.0" encoding="UTF-8"?><svg id="Layer_7" xmlns="http://www.w3.org/2000/svg" width="654" height="436" viewBox="0 0 654 436"><defs><style>.cls-1{fill:#fff;}.cls-2{fill:#97724a;}.cls-3{fill:#d1df27;}.cls-4{fill:#40af42;}.cls-5{fill:#41c6fd;}.cls-6{fill:#707070;}.cls-7{fill:#73dda8;}</style></defs><g id="Group_1"><g id="Rectangle_4"><rect class="cls-2" x="0" y="218" width="218" height="218"/><path class="cls-6" d="m218,436H0v-218h218v218Zm-217-1h216v-216H1v216Z"/></g><g id="Rectangle_5"><rect class="cls-1" x="436" y="218" width="218" height="218"/><path class="cls-6" d="m654,436h-218v-218h218v218Zm-217-1h216v-216h-216v216Z"/></g><g id="Rectangle_6"><rect class="cls-5" x="218" y="218" width="218" height="218"/><path class="cls-6" d="m436,436h-218v-218h218v218Zm-217-1h216v-216h-216v216Z"/></g><g id="Rectangle_7"><rect class="cls-4" x="0" y="0" width="218" height="218"/><path class="cls-6" d="m218,218H0V0h218v218Zm-217-1h216V1H1v216Z"/></g><g id="Rectangle_8"><rect class="cls-7" x="218" y="0" width="218" height="218"/><path class="cls-6" d="m436,218h-218V0h218v218Zm-217-1h216V1h-216v216Z"/></g><g id="Rectangle_9"><rect class="cls-3" x="436" y="0" width="218" height="218"/><path class="cls-6" d="m654,218h-218V0h218v218Zm-217-1h216V1h-216v216Z"/></g></g></svg>